%TF.GenerationSoftware,KiCad,Pcbnew,8.0.5*%
%TF.CreationDate,2024-11-06T13:26:22-05:00*%
%TF.ProjectId,MacroPad,4d616372-6f50-4616-942e-6b696361645f,rev?*%
%TF.SameCoordinates,Original*%
%TF.FileFunction,Soldermask,Bot*%
%TF.FilePolarity,Negative*%
%FSLAX46Y46*%
G04 Gerber Fmt 4.6, Leading zero omitted, Abs format (unit mm)*
G04 Created by KiCad (PCBNEW 8.0.5) date 2024-11-06 13:26:22*
%MOMM*%
%LPD*%
G01*
G04 APERTURE LIST*
G04 Aperture macros list*
%AMRoundRect*
0 Rectangle with rounded corners*
0 $1 Rounding radius*
0 $2 $3 $4 $5 $6 $7 $8 $9 X,Y pos of 4 corners*
0 Add a 4 corners polygon primitive as box body*
4,1,4,$2,$3,$4,$5,$6,$7,$8,$9,$2,$3,0*
0 Add four circle primitives for the rounded corners*
1,1,$1+$1,$2,$3*
1,1,$1+$1,$4,$5*
1,1,$1+$1,$6,$7*
1,1,$1+$1,$8,$9*
0 Add four rect primitives between the rounded corners*
20,1,$1+$1,$2,$3,$4,$5,0*
20,1,$1+$1,$4,$5,$6,$7,0*
20,1,$1+$1,$6,$7,$8,$9,0*
20,1,$1+$1,$8,$9,$2,$3,0*%
G04 Aperture macros list end*
%ADD10C,1.750000*%
%ADD11C,4.000000*%
%ADD12C,2.500000*%
%ADD13RoundRect,0.250000X0.550000X0.550000X-0.550000X0.550000X-0.550000X-0.550000X0.550000X-0.550000X0*%
%ADD14C,1.600000*%
%ADD15O,4.100000X3.000000*%
%ADD16O,1.700000X1.700000*%
%ADD17R,1.700000X1.700000*%
%ADD18RoundRect,0.250000X-0.550000X-0.550000X0.550000X-0.550000X0.550000X0.550000X-0.550000X0.550000X0*%
%ADD19R,1.600000X1.600000*%
%ADD20O,1.600000X1.600000*%
G04 APERTURE END LIST*
D10*
%TO.C,S7*%
X108115000Y-112525000D03*
D11*
X113195000Y-112525000D03*
D10*
X118275000Y-112525000D03*
D12*
X109385000Y-109985000D03*
X115735000Y-107445000D03*
%TD*%
D10*
%TO.C,S1*%
X108115000Y-74425000D03*
D11*
X113195000Y-74425000D03*
D10*
X118275000Y-74425000D03*
D12*
X109385000Y-71885000D03*
X115735000Y-69345000D03*
%TD*%
D10*
%TO.C,S6*%
X146215000Y-93475000D03*
D11*
X151295000Y-93475000D03*
D10*
X156375000Y-93475000D03*
D12*
X147485000Y-90935000D03*
X153835000Y-88395000D03*
%TD*%
D10*
%TO.C,S5*%
X127165000Y-93475000D03*
D11*
X132245000Y-93475000D03*
D10*
X137325000Y-93475000D03*
D12*
X128435000Y-90935000D03*
X134785000Y-88395000D03*
%TD*%
D10*
%TO.C,S2*%
X127165000Y-74425000D03*
D11*
X132245000Y-74425000D03*
D10*
X137325000Y-74425000D03*
D12*
X128435000Y-71885000D03*
X134785000Y-69345000D03*
%TD*%
D13*
%TO.C,SW2*%
X106601250Y-47656250D03*
D14*
X106601250Y-42656250D03*
X106601250Y-45156250D03*
X92101250Y-47656250D03*
X92101250Y-42656250D03*
D15*
X99101250Y-50756250D03*
X99101250Y-39556250D03*
%TD*%
D10*
%TO.C,S9*%
X146215000Y-112525000D03*
D11*
X151295000Y-112525000D03*
D10*
X156375000Y-112525000D03*
D12*
X147485000Y-109985000D03*
X153835000Y-107445000D03*
%TD*%
D10*
%TO.C,S4*%
X108115000Y-93475000D03*
D11*
X113195000Y-93475000D03*
D10*
X118275000Y-93475000D03*
D12*
X109385000Y-90935000D03*
X115735000Y-88395000D03*
%TD*%
D16*
%TO.C,U1*%
X110496250Y-55375000D03*
X113036250Y-55375000D03*
D17*
X115576250Y-55375000D03*
D16*
X118116250Y-55375000D03*
X120656250Y-55375000D03*
X123196250Y-55375000D03*
X125736250Y-55375000D03*
D17*
X128276250Y-55375000D03*
D16*
X130816250Y-55375000D03*
X133356250Y-55375000D03*
X135896250Y-55375000D03*
X138436250Y-55375000D03*
D17*
X140976250Y-55375000D03*
D16*
X143516250Y-55375000D03*
X146056250Y-55375000D03*
X148596250Y-55375000D03*
X151136250Y-55375000D03*
D17*
X153676250Y-55375000D03*
D16*
X156216250Y-55375000D03*
X158756250Y-55375000D03*
X158756250Y-37595000D03*
X156216250Y-37595000D03*
D17*
X153676250Y-37595000D03*
D16*
X151136250Y-37595000D03*
X148596250Y-37595000D03*
X146056250Y-37595000D03*
X143516250Y-37595000D03*
D17*
X140976250Y-37595000D03*
D16*
X138436250Y-37595000D03*
X135896250Y-37595000D03*
X133356250Y-37595000D03*
X130816250Y-37595000D03*
D17*
X128276250Y-37595000D03*
D16*
X125736250Y-37595000D03*
X123196250Y-37595000D03*
X120656250Y-37595000D03*
X118116250Y-37595000D03*
D17*
X115576250Y-37595000D03*
D16*
X113036250Y-37595000D03*
X110496250Y-37595000D03*
X158526250Y-49025000D03*
D17*
X158526250Y-46485000D03*
D16*
X158526250Y-43945000D03*
%TD*%
D10*
%TO.C,S3*%
X146215000Y-74425000D03*
D11*
X151295000Y-74425000D03*
D10*
X156375000Y-74425000D03*
D12*
X147485000Y-71885000D03*
X153835000Y-69345000D03*
%TD*%
D10*
%TO.C,S8*%
X127165000Y-112525000D03*
D11*
X132245000Y-112525000D03*
D10*
X137325000Y-112525000D03*
D12*
X128435000Y-109985000D03*
X134785000Y-107445000D03*
%TD*%
D18*
%TO.C,SW1*%
X163178750Y-42506250D03*
D14*
X163178750Y-47506250D03*
X163178750Y-45006250D03*
X177678750Y-42506250D03*
X177678750Y-47506250D03*
D15*
X170678750Y-39406250D03*
X170678750Y-50606250D03*
%TD*%
D19*
%TO.C,D1*%
X122720000Y-78332500D03*
D20*
X122720000Y-70712500D03*
%TD*%
D19*
%TO.C,D4*%
X122720000Y-97382500D03*
D20*
X122720000Y-89762500D03*
%TD*%
D19*
%TO.C,D3*%
X160820000Y-78332500D03*
D20*
X160820000Y-70712500D03*
%TD*%
D19*
%TO.C,D2*%
X141770000Y-78332500D03*
D20*
X141770000Y-70712500D03*
%TD*%
D19*
%TO.C,D6*%
X160820000Y-97382500D03*
D20*
X160820000Y-89762500D03*
%TD*%
D19*
%TO.C,D9*%
X160820000Y-116432500D03*
D20*
X160820000Y-108812500D03*
%TD*%
D19*
%TO.C,D8*%
X141770000Y-116432500D03*
D20*
X141770000Y-108812500D03*
%TD*%
D19*
%TO.C,D5*%
X141770000Y-97382500D03*
D20*
X141770000Y-89762500D03*
%TD*%
D19*
%TO.C,D7*%
X122720000Y-116432500D03*
D20*
X122720000Y-108812500D03*
%TD*%
M02*
