%TF.GenerationSoftware,KiCad,Pcbnew,8.0.5*%
%TF.CreationDate,2024-11-06T13:26:22-05:00*%
%TF.ProjectId,MacroPad,4d616372-6f50-4616-942e-6b696361645f,rev?*%
%TF.SameCoordinates,Original*%
%TF.FileFunction,Legend,Top*%
%TF.FilePolarity,Positive*%
%FSLAX46Y46*%
G04 Gerber Fmt 4.6, Leading zero omitted, Abs format (unit mm)*
G04 Created by KiCad (PCBNEW 8.0.5) date 2024-11-06 13:26:22*
%MOMM*%
%LPD*%
G01*
G04 APERTURE LIST*
%ADD10C,0.150000*%
%ADD11C,0.120000*%
G04 APERTURE END LIST*
D10*
X112433095Y-104932200D02*
X112575952Y-104979819D01*
X112575952Y-104979819D02*
X112814047Y-104979819D01*
X112814047Y-104979819D02*
X112909285Y-104932200D01*
X112909285Y-104932200D02*
X112956904Y-104884580D01*
X112956904Y-104884580D02*
X113004523Y-104789342D01*
X113004523Y-104789342D02*
X113004523Y-104694104D01*
X113004523Y-104694104D02*
X112956904Y-104598866D01*
X112956904Y-104598866D02*
X112909285Y-104551247D01*
X112909285Y-104551247D02*
X112814047Y-104503628D01*
X112814047Y-104503628D02*
X112623571Y-104456009D01*
X112623571Y-104456009D02*
X112528333Y-104408390D01*
X112528333Y-104408390D02*
X112480714Y-104360771D01*
X112480714Y-104360771D02*
X112433095Y-104265533D01*
X112433095Y-104265533D02*
X112433095Y-104170295D01*
X112433095Y-104170295D02*
X112480714Y-104075057D01*
X112480714Y-104075057D02*
X112528333Y-104027438D01*
X112528333Y-104027438D02*
X112623571Y-103979819D01*
X112623571Y-103979819D02*
X112861666Y-103979819D01*
X112861666Y-103979819D02*
X113004523Y-104027438D01*
X113337857Y-103979819D02*
X114004523Y-103979819D01*
X114004523Y-103979819D02*
X113575952Y-104979819D01*
X112433095Y-66832200D02*
X112575952Y-66879819D01*
X112575952Y-66879819D02*
X112814047Y-66879819D01*
X112814047Y-66879819D02*
X112909285Y-66832200D01*
X112909285Y-66832200D02*
X112956904Y-66784580D01*
X112956904Y-66784580D02*
X113004523Y-66689342D01*
X113004523Y-66689342D02*
X113004523Y-66594104D01*
X113004523Y-66594104D02*
X112956904Y-66498866D01*
X112956904Y-66498866D02*
X112909285Y-66451247D01*
X112909285Y-66451247D02*
X112814047Y-66403628D01*
X112814047Y-66403628D02*
X112623571Y-66356009D01*
X112623571Y-66356009D02*
X112528333Y-66308390D01*
X112528333Y-66308390D02*
X112480714Y-66260771D01*
X112480714Y-66260771D02*
X112433095Y-66165533D01*
X112433095Y-66165533D02*
X112433095Y-66070295D01*
X112433095Y-66070295D02*
X112480714Y-65975057D01*
X112480714Y-65975057D02*
X112528333Y-65927438D01*
X112528333Y-65927438D02*
X112623571Y-65879819D01*
X112623571Y-65879819D02*
X112861666Y-65879819D01*
X112861666Y-65879819D02*
X113004523Y-65927438D01*
X113956904Y-66879819D02*
X113385476Y-66879819D01*
X113671190Y-66879819D02*
X113671190Y-65879819D01*
X113671190Y-65879819D02*
X113575952Y-66022676D01*
X113575952Y-66022676D02*
X113480714Y-66117914D01*
X113480714Y-66117914D02*
X113385476Y-66165533D01*
X150533095Y-85882200D02*
X150675952Y-85929819D01*
X150675952Y-85929819D02*
X150914047Y-85929819D01*
X150914047Y-85929819D02*
X151009285Y-85882200D01*
X151009285Y-85882200D02*
X151056904Y-85834580D01*
X151056904Y-85834580D02*
X151104523Y-85739342D01*
X151104523Y-85739342D02*
X151104523Y-85644104D01*
X151104523Y-85644104D02*
X151056904Y-85548866D01*
X151056904Y-85548866D02*
X151009285Y-85501247D01*
X151009285Y-85501247D02*
X150914047Y-85453628D01*
X150914047Y-85453628D02*
X150723571Y-85406009D01*
X150723571Y-85406009D02*
X150628333Y-85358390D01*
X150628333Y-85358390D02*
X150580714Y-85310771D01*
X150580714Y-85310771D02*
X150533095Y-85215533D01*
X150533095Y-85215533D02*
X150533095Y-85120295D01*
X150533095Y-85120295D02*
X150580714Y-85025057D01*
X150580714Y-85025057D02*
X150628333Y-84977438D01*
X150628333Y-84977438D02*
X150723571Y-84929819D01*
X150723571Y-84929819D02*
X150961666Y-84929819D01*
X150961666Y-84929819D02*
X151104523Y-84977438D01*
X151961666Y-84929819D02*
X151771190Y-84929819D01*
X151771190Y-84929819D02*
X151675952Y-84977438D01*
X151675952Y-84977438D02*
X151628333Y-85025057D01*
X151628333Y-85025057D02*
X151533095Y-85167914D01*
X151533095Y-85167914D02*
X151485476Y-85358390D01*
X151485476Y-85358390D02*
X151485476Y-85739342D01*
X151485476Y-85739342D02*
X151533095Y-85834580D01*
X151533095Y-85834580D02*
X151580714Y-85882200D01*
X151580714Y-85882200D02*
X151675952Y-85929819D01*
X151675952Y-85929819D02*
X151866428Y-85929819D01*
X151866428Y-85929819D02*
X151961666Y-85882200D01*
X151961666Y-85882200D02*
X152009285Y-85834580D01*
X152009285Y-85834580D02*
X152056904Y-85739342D01*
X152056904Y-85739342D02*
X152056904Y-85501247D01*
X152056904Y-85501247D02*
X152009285Y-85406009D01*
X152009285Y-85406009D02*
X151961666Y-85358390D01*
X151961666Y-85358390D02*
X151866428Y-85310771D01*
X151866428Y-85310771D02*
X151675952Y-85310771D01*
X151675952Y-85310771D02*
X151580714Y-85358390D01*
X151580714Y-85358390D02*
X151533095Y-85406009D01*
X151533095Y-85406009D02*
X151485476Y-85501247D01*
X131483095Y-85882200D02*
X131625952Y-85929819D01*
X131625952Y-85929819D02*
X131864047Y-85929819D01*
X131864047Y-85929819D02*
X131959285Y-85882200D01*
X131959285Y-85882200D02*
X132006904Y-85834580D01*
X132006904Y-85834580D02*
X132054523Y-85739342D01*
X132054523Y-85739342D02*
X132054523Y-85644104D01*
X132054523Y-85644104D02*
X132006904Y-85548866D01*
X132006904Y-85548866D02*
X131959285Y-85501247D01*
X131959285Y-85501247D02*
X131864047Y-85453628D01*
X131864047Y-85453628D02*
X131673571Y-85406009D01*
X131673571Y-85406009D02*
X131578333Y-85358390D01*
X131578333Y-85358390D02*
X131530714Y-85310771D01*
X131530714Y-85310771D02*
X131483095Y-85215533D01*
X131483095Y-85215533D02*
X131483095Y-85120295D01*
X131483095Y-85120295D02*
X131530714Y-85025057D01*
X131530714Y-85025057D02*
X131578333Y-84977438D01*
X131578333Y-84977438D02*
X131673571Y-84929819D01*
X131673571Y-84929819D02*
X131911666Y-84929819D01*
X131911666Y-84929819D02*
X132054523Y-84977438D01*
X132959285Y-84929819D02*
X132483095Y-84929819D01*
X132483095Y-84929819D02*
X132435476Y-85406009D01*
X132435476Y-85406009D02*
X132483095Y-85358390D01*
X132483095Y-85358390D02*
X132578333Y-85310771D01*
X132578333Y-85310771D02*
X132816428Y-85310771D01*
X132816428Y-85310771D02*
X132911666Y-85358390D01*
X132911666Y-85358390D02*
X132959285Y-85406009D01*
X132959285Y-85406009D02*
X133006904Y-85501247D01*
X133006904Y-85501247D02*
X133006904Y-85739342D01*
X133006904Y-85739342D02*
X132959285Y-85834580D01*
X132959285Y-85834580D02*
X132911666Y-85882200D01*
X132911666Y-85882200D02*
X132816428Y-85929819D01*
X132816428Y-85929819D02*
X132578333Y-85929819D01*
X132578333Y-85929819D02*
X132483095Y-85882200D01*
X132483095Y-85882200D02*
X132435476Y-85834580D01*
X131483095Y-66832200D02*
X131625952Y-66879819D01*
X131625952Y-66879819D02*
X131864047Y-66879819D01*
X131864047Y-66879819D02*
X131959285Y-66832200D01*
X131959285Y-66832200D02*
X132006904Y-66784580D01*
X132006904Y-66784580D02*
X132054523Y-66689342D01*
X132054523Y-66689342D02*
X132054523Y-66594104D01*
X132054523Y-66594104D02*
X132006904Y-66498866D01*
X132006904Y-66498866D02*
X131959285Y-66451247D01*
X131959285Y-66451247D02*
X131864047Y-66403628D01*
X131864047Y-66403628D02*
X131673571Y-66356009D01*
X131673571Y-66356009D02*
X131578333Y-66308390D01*
X131578333Y-66308390D02*
X131530714Y-66260771D01*
X131530714Y-66260771D02*
X131483095Y-66165533D01*
X131483095Y-66165533D02*
X131483095Y-66070295D01*
X131483095Y-66070295D02*
X131530714Y-65975057D01*
X131530714Y-65975057D02*
X131578333Y-65927438D01*
X131578333Y-65927438D02*
X131673571Y-65879819D01*
X131673571Y-65879819D02*
X131911666Y-65879819D01*
X131911666Y-65879819D02*
X132054523Y-65927438D01*
X132435476Y-65975057D02*
X132483095Y-65927438D01*
X132483095Y-65927438D02*
X132578333Y-65879819D01*
X132578333Y-65879819D02*
X132816428Y-65879819D01*
X132816428Y-65879819D02*
X132911666Y-65927438D01*
X132911666Y-65927438D02*
X132959285Y-65975057D01*
X132959285Y-65975057D02*
X133006904Y-66070295D01*
X133006904Y-66070295D02*
X133006904Y-66165533D01*
X133006904Y-66165533D02*
X132959285Y-66308390D01*
X132959285Y-66308390D02*
X132387857Y-66879819D01*
X132387857Y-66879819D02*
X133006904Y-66879819D01*
X102267917Y-52813450D02*
X102410774Y-52861069D01*
X102410774Y-52861069D02*
X102648869Y-52861069D01*
X102648869Y-52861069D02*
X102744107Y-52813450D01*
X102744107Y-52813450D02*
X102791726Y-52765830D01*
X102791726Y-52765830D02*
X102839345Y-52670592D01*
X102839345Y-52670592D02*
X102839345Y-52575354D01*
X102839345Y-52575354D02*
X102791726Y-52480116D01*
X102791726Y-52480116D02*
X102744107Y-52432497D01*
X102744107Y-52432497D02*
X102648869Y-52384878D01*
X102648869Y-52384878D02*
X102458393Y-52337259D01*
X102458393Y-52337259D02*
X102363155Y-52289640D01*
X102363155Y-52289640D02*
X102315536Y-52242021D01*
X102315536Y-52242021D02*
X102267917Y-52146783D01*
X102267917Y-52146783D02*
X102267917Y-52051545D01*
X102267917Y-52051545D02*
X102315536Y-51956307D01*
X102315536Y-51956307D02*
X102363155Y-51908688D01*
X102363155Y-51908688D02*
X102458393Y-51861069D01*
X102458393Y-51861069D02*
X102696488Y-51861069D01*
X102696488Y-51861069D02*
X102839345Y-51908688D01*
X103172679Y-51861069D02*
X103410774Y-52861069D01*
X103410774Y-52861069D02*
X103601250Y-52146783D01*
X103601250Y-52146783D02*
X103791726Y-52861069D01*
X103791726Y-52861069D02*
X104029822Y-51861069D01*
X104363155Y-51956307D02*
X104410774Y-51908688D01*
X104410774Y-51908688D02*
X104506012Y-51861069D01*
X104506012Y-51861069D02*
X104744107Y-51861069D01*
X104744107Y-51861069D02*
X104839345Y-51908688D01*
X104839345Y-51908688D02*
X104886964Y-51956307D01*
X104886964Y-51956307D02*
X104934583Y-52051545D01*
X104934583Y-52051545D02*
X104934583Y-52146783D01*
X104934583Y-52146783D02*
X104886964Y-52289640D01*
X104886964Y-52289640D02*
X104315536Y-52861069D01*
X104315536Y-52861069D02*
X104934583Y-52861069D01*
X150533095Y-104932200D02*
X150675952Y-104979819D01*
X150675952Y-104979819D02*
X150914047Y-104979819D01*
X150914047Y-104979819D02*
X151009285Y-104932200D01*
X151009285Y-104932200D02*
X151056904Y-104884580D01*
X151056904Y-104884580D02*
X151104523Y-104789342D01*
X151104523Y-104789342D02*
X151104523Y-104694104D01*
X151104523Y-104694104D02*
X151056904Y-104598866D01*
X151056904Y-104598866D02*
X151009285Y-104551247D01*
X151009285Y-104551247D02*
X150914047Y-104503628D01*
X150914047Y-104503628D02*
X150723571Y-104456009D01*
X150723571Y-104456009D02*
X150628333Y-104408390D01*
X150628333Y-104408390D02*
X150580714Y-104360771D01*
X150580714Y-104360771D02*
X150533095Y-104265533D01*
X150533095Y-104265533D02*
X150533095Y-104170295D01*
X150533095Y-104170295D02*
X150580714Y-104075057D01*
X150580714Y-104075057D02*
X150628333Y-104027438D01*
X150628333Y-104027438D02*
X150723571Y-103979819D01*
X150723571Y-103979819D02*
X150961666Y-103979819D01*
X150961666Y-103979819D02*
X151104523Y-104027438D01*
X151580714Y-104979819D02*
X151771190Y-104979819D01*
X151771190Y-104979819D02*
X151866428Y-104932200D01*
X151866428Y-104932200D02*
X151914047Y-104884580D01*
X151914047Y-104884580D02*
X152009285Y-104741723D01*
X152009285Y-104741723D02*
X152056904Y-104551247D01*
X152056904Y-104551247D02*
X152056904Y-104170295D01*
X152056904Y-104170295D02*
X152009285Y-104075057D01*
X152009285Y-104075057D02*
X151961666Y-104027438D01*
X151961666Y-104027438D02*
X151866428Y-103979819D01*
X151866428Y-103979819D02*
X151675952Y-103979819D01*
X151675952Y-103979819D02*
X151580714Y-104027438D01*
X151580714Y-104027438D02*
X151533095Y-104075057D01*
X151533095Y-104075057D02*
X151485476Y-104170295D01*
X151485476Y-104170295D02*
X151485476Y-104408390D01*
X151485476Y-104408390D02*
X151533095Y-104503628D01*
X151533095Y-104503628D02*
X151580714Y-104551247D01*
X151580714Y-104551247D02*
X151675952Y-104598866D01*
X151675952Y-104598866D02*
X151866428Y-104598866D01*
X151866428Y-104598866D02*
X151961666Y-104551247D01*
X151961666Y-104551247D02*
X152009285Y-104503628D01*
X152009285Y-104503628D02*
X152056904Y-104408390D01*
X112433095Y-85882200D02*
X112575952Y-85929819D01*
X112575952Y-85929819D02*
X112814047Y-85929819D01*
X112814047Y-85929819D02*
X112909285Y-85882200D01*
X112909285Y-85882200D02*
X112956904Y-85834580D01*
X112956904Y-85834580D02*
X113004523Y-85739342D01*
X113004523Y-85739342D02*
X113004523Y-85644104D01*
X113004523Y-85644104D02*
X112956904Y-85548866D01*
X112956904Y-85548866D02*
X112909285Y-85501247D01*
X112909285Y-85501247D02*
X112814047Y-85453628D01*
X112814047Y-85453628D02*
X112623571Y-85406009D01*
X112623571Y-85406009D02*
X112528333Y-85358390D01*
X112528333Y-85358390D02*
X112480714Y-85310771D01*
X112480714Y-85310771D02*
X112433095Y-85215533D01*
X112433095Y-85215533D02*
X112433095Y-85120295D01*
X112433095Y-85120295D02*
X112480714Y-85025057D01*
X112480714Y-85025057D02*
X112528333Y-84977438D01*
X112528333Y-84977438D02*
X112623571Y-84929819D01*
X112623571Y-84929819D02*
X112861666Y-84929819D01*
X112861666Y-84929819D02*
X113004523Y-84977438D01*
X113861666Y-85263152D02*
X113861666Y-85929819D01*
X113623571Y-84882200D02*
X113385476Y-85596485D01*
X113385476Y-85596485D02*
X114004523Y-85596485D01*
X130426640Y-41897381D02*
X130388545Y-41973571D01*
X130388545Y-41973571D02*
X130388545Y-42087857D01*
X130388545Y-42087857D02*
X130426640Y-42202143D01*
X130426640Y-42202143D02*
X130502830Y-42278333D01*
X130502830Y-42278333D02*
X130579021Y-42316428D01*
X130579021Y-42316428D02*
X130731402Y-42354524D01*
X130731402Y-42354524D02*
X130845688Y-42354524D01*
X130845688Y-42354524D02*
X130998069Y-42316428D01*
X130998069Y-42316428D02*
X131074259Y-42278333D01*
X131074259Y-42278333D02*
X131150450Y-42202143D01*
X131150450Y-42202143D02*
X131188545Y-42087857D01*
X131188545Y-42087857D02*
X131188545Y-42011666D01*
X131188545Y-42011666D02*
X131150450Y-41897381D01*
X131150450Y-41897381D02*
X131112354Y-41859285D01*
X131112354Y-41859285D02*
X130845688Y-41859285D01*
X130845688Y-41859285D02*
X130845688Y-42011666D01*
X131188545Y-41516428D02*
X130388545Y-41516428D01*
X130388545Y-41516428D02*
X130388545Y-41211666D01*
X130388545Y-41211666D02*
X130426640Y-41135476D01*
X130426640Y-41135476D02*
X130464735Y-41097381D01*
X130464735Y-41097381D02*
X130540926Y-41059285D01*
X130540926Y-41059285D02*
X130655211Y-41059285D01*
X130655211Y-41059285D02*
X130731402Y-41097381D01*
X130731402Y-41097381D02*
X130769497Y-41135476D01*
X130769497Y-41135476D02*
X130807592Y-41211666D01*
X130807592Y-41211666D02*
X130807592Y-41516428D01*
X130464735Y-40754524D02*
X130426640Y-40716428D01*
X130426640Y-40716428D02*
X130388545Y-40640238D01*
X130388545Y-40640238D02*
X130388545Y-40449762D01*
X130388545Y-40449762D02*
X130426640Y-40373571D01*
X130426640Y-40373571D02*
X130464735Y-40335476D01*
X130464735Y-40335476D02*
X130540926Y-40297381D01*
X130540926Y-40297381D02*
X130617116Y-40297381D01*
X130617116Y-40297381D02*
X130731402Y-40335476D01*
X130731402Y-40335476D02*
X131188545Y-40792619D01*
X131188545Y-40792619D02*
X131188545Y-40297381D01*
X130388545Y-40030714D02*
X130388545Y-39497380D01*
X130388545Y-39497380D02*
X131188545Y-39840238D01*
X135496640Y-53096428D02*
X135458545Y-53172618D01*
X135458545Y-53172618D02*
X135458545Y-53286904D01*
X135458545Y-53286904D02*
X135496640Y-53401190D01*
X135496640Y-53401190D02*
X135572830Y-53477380D01*
X135572830Y-53477380D02*
X135649021Y-53515475D01*
X135649021Y-53515475D02*
X135801402Y-53553571D01*
X135801402Y-53553571D02*
X135915688Y-53553571D01*
X135915688Y-53553571D02*
X136068069Y-53515475D01*
X136068069Y-53515475D02*
X136144259Y-53477380D01*
X136144259Y-53477380D02*
X136220450Y-53401190D01*
X136220450Y-53401190D02*
X136258545Y-53286904D01*
X136258545Y-53286904D02*
X136258545Y-53210713D01*
X136258545Y-53210713D02*
X136220450Y-53096428D01*
X136220450Y-53096428D02*
X136182354Y-53058332D01*
X136182354Y-53058332D02*
X135915688Y-53058332D01*
X135915688Y-53058332D02*
X135915688Y-53210713D01*
X136258545Y-52715475D02*
X135458545Y-52715475D01*
X135458545Y-52715475D02*
X135458545Y-52410713D01*
X135458545Y-52410713D02*
X135496640Y-52334523D01*
X135496640Y-52334523D02*
X135534735Y-52296428D01*
X135534735Y-52296428D02*
X135610926Y-52258332D01*
X135610926Y-52258332D02*
X135725211Y-52258332D01*
X135725211Y-52258332D02*
X135801402Y-52296428D01*
X135801402Y-52296428D02*
X135839497Y-52334523D01*
X135839497Y-52334523D02*
X135877592Y-52410713D01*
X135877592Y-52410713D02*
X135877592Y-52715475D01*
X135801402Y-51801190D02*
X135763307Y-51877380D01*
X135763307Y-51877380D02*
X135725211Y-51915475D01*
X135725211Y-51915475D02*
X135649021Y-51953571D01*
X135649021Y-51953571D02*
X135610926Y-51953571D01*
X135610926Y-51953571D02*
X135534735Y-51915475D01*
X135534735Y-51915475D02*
X135496640Y-51877380D01*
X135496640Y-51877380D02*
X135458545Y-51801190D01*
X135458545Y-51801190D02*
X135458545Y-51648809D01*
X135458545Y-51648809D02*
X135496640Y-51572618D01*
X135496640Y-51572618D02*
X135534735Y-51534523D01*
X135534735Y-51534523D02*
X135610926Y-51496428D01*
X135610926Y-51496428D02*
X135649021Y-51496428D01*
X135649021Y-51496428D02*
X135725211Y-51534523D01*
X135725211Y-51534523D02*
X135763307Y-51572618D01*
X135763307Y-51572618D02*
X135801402Y-51648809D01*
X135801402Y-51648809D02*
X135801402Y-51801190D01*
X135801402Y-51801190D02*
X135839497Y-51877380D01*
X135839497Y-51877380D02*
X135877592Y-51915475D01*
X135877592Y-51915475D02*
X135953783Y-51953571D01*
X135953783Y-51953571D02*
X136106164Y-51953571D01*
X136106164Y-51953571D02*
X136182354Y-51915475D01*
X136182354Y-51915475D02*
X136220450Y-51877380D01*
X136220450Y-51877380D02*
X136258545Y-51801190D01*
X136258545Y-51801190D02*
X136258545Y-51648809D01*
X136258545Y-51648809D02*
X136220450Y-51572618D01*
X136220450Y-51572618D02*
X136182354Y-51534523D01*
X136182354Y-51534523D02*
X136106164Y-51496428D01*
X136106164Y-51496428D02*
X135953783Y-51496428D01*
X135953783Y-51496428D02*
X135877592Y-51534523D01*
X135877592Y-51534523D02*
X135839497Y-51572618D01*
X135839497Y-51572618D02*
X135801402Y-51648809D01*
X120218545Y-41435476D02*
X120218545Y-40940238D01*
X120218545Y-40940238D02*
X120523307Y-41206904D01*
X120523307Y-41206904D02*
X120523307Y-41092619D01*
X120523307Y-41092619D02*
X120561402Y-41016428D01*
X120561402Y-41016428D02*
X120599497Y-40978333D01*
X120599497Y-40978333D02*
X120675688Y-40940238D01*
X120675688Y-40940238D02*
X120866164Y-40940238D01*
X120866164Y-40940238D02*
X120942354Y-40978333D01*
X120942354Y-40978333D02*
X120980450Y-41016428D01*
X120980450Y-41016428D02*
X121018545Y-41092619D01*
X121018545Y-41092619D02*
X121018545Y-41321190D01*
X121018545Y-41321190D02*
X120980450Y-41397381D01*
X120980450Y-41397381D02*
X120942354Y-41435476D01*
X120218545Y-40711666D02*
X121018545Y-40444999D01*
X121018545Y-40444999D02*
X120218545Y-40178333D01*
X120218545Y-39987857D02*
X120218545Y-39492619D01*
X120218545Y-39492619D02*
X120523307Y-39759285D01*
X120523307Y-39759285D02*
X120523307Y-39645000D01*
X120523307Y-39645000D02*
X120561402Y-39568809D01*
X120561402Y-39568809D02*
X120599497Y-39530714D01*
X120599497Y-39530714D02*
X120675688Y-39492619D01*
X120675688Y-39492619D02*
X120866164Y-39492619D01*
X120866164Y-39492619D02*
X120942354Y-39530714D01*
X120942354Y-39530714D02*
X120980450Y-39568809D01*
X120980450Y-39568809D02*
X121018545Y-39645000D01*
X121018545Y-39645000D02*
X121018545Y-39873571D01*
X121018545Y-39873571D02*
X120980450Y-39949762D01*
X120980450Y-39949762D02*
X120942354Y-39987857D01*
X117678545Y-43521190D02*
X117678545Y-43025952D01*
X117678545Y-43025952D02*
X117983307Y-43292618D01*
X117983307Y-43292618D02*
X117983307Y-43178333D01*
X117983307Y-43178333D02*
X118021402Y-43102142D01*
X118021402Y-43102142D02*
X118059497Y-43064047D01*
X118059497Y-43064047D02*
X118135688Y-43025952D01*
X118135688Y-43025952D02*
X118326164Y-43025952D01*
X118326164Y-43025952D02*
X118402354Y-43064047D01*
X118402354Y-43064047D02*
X118440450Y-43102142D01*
X118440450Y-43102142D02*
X118478545Y-43178333D01*
X118478545Y-43178333D02*
X118478545Y-43406904D01*
X118478545Y-43406904D02*
X118440450Y-43483095D01*
X118440450Y-43483095D02*
X118402354Y-43521190D01*
X117678545Y-42797380D02*
X118478545Y-42530713D01*
X118478545Y-42530713D02*
X117678545Y-42264047D01*
X117678545Y-42073571D02*
X117678545Y-41578333D01*
X117678545Y-41578333D02*
X117983307Y-41844999D01*
X117983307Y-41844999D02*
X117983307Y-41730714D01*
X117983307Y-41730714D02*
X118021402Y-41654523D01*
X118021402Y-41654523D02*
X118059497Y-41616428D01*
X118059497Y-41616428D02*
X118135688Y-41578333D01*
X118135688Y-41578333D02*
X118326164Y-41578333D01*
X118326164Y-41578333D02*
X118402354Y-41616428D01*
X118402354Y-41616428D02*
X118440450Y-41654523D01*
X118440450Y-41654523D02*
X118478545Y-41730714D01*
X118478545Y-41730714D02*
X118478545Y-41959285D01*
X118478545Y-41959285D02*
X118440450Y-42035476D01*
X118440450Y-42035476D02*
X118402354Y-42073571D01*
X118554735Y-41425952D02*
X118554735Y-40816428D01*
X118059497Y-40625951D02*
X118059497Y-40359285D01*
X118478545Y-40244999D02*
X118478545Y-40625951D01*
X118478545Y-40625951D02*
X117678545Y-40625951D01*
X117678545Y-40625951D02*
X117678545Y-40244999D01*
X118478545Y-39902141D02*
X117678545Y-39902141D01*
X117678545Y-39902141D02*
X118478545Y-39444998D01*
X118478545Y-39444998D02*
X117678545Y-39444998D01*
X128409973Y-42354523D02*
X128409973Y-41973570D01*
X128638545Y-42430713D02*
X127838545Y-42164046D01*
X127838545Y-42164046D02*
X128638545Y-41897380D01*
X127876640Y-41211666D02*
X127838545Y-41287856D01*
X127838545Y-41287856D02*
X127838545Y-41402142D01*
X127838545Y-41402142D02*
X127876640Y-41516428D01*
X127876640Y-41516428D02*
X127952830Y-41592618D01*
X127952830Y-41592618D02*
X128029021Y-41630713D01*
X128029021Y-41630713D02*
X128181402Y-41668809D01*
X128181402Y-41668809D02*
X128295688Y-41668809D01*
X128295688Y-41668809D02*
X128448069Y-41630713D01*
X128448069Y-41630713D02*
X128524259Y-41592618D01*
X128524259Y-41592618D02*
X128600450Y-41516428D01*
X128600450Y-41516428D02*
X128638545Y-41402142D01*
X128638545Y-41402142D02*
X128638545Y-41325951D01*
X128638545Y-41325951D02*
X128600450Y-41211666D01*
X128600450Y-41211666D02*
X128562354Y-41173570D01*
X128562354Y-41173570D02*
X128295688Y-41173570D01*
X128295688Y-41173570D02*
X128295688Y-41325951D01*
X128638545Y-40830713D02*
X127838545Y-40830713D01*
X127838545Y-40830713D02*
X128638545Y-40373570D01*
X128638545Y-40373570D02*
X127838545Y-40373570D01*
X128638545Y-39992618D02*
X127838545Y-39992618D01*
X127838545Y-39992618D02*
X127838545Y-39802142D01*
X127838545Y-39802142D02*
X127876640Y-39687856D01*
X127876640Y-39687856D02*
X127952830Y-39611666D01*
X127952830Y-39611666D02*
X128029021Y-39573571D01*
X128029021Y-39573571D02*
X128181402Y-39535475D01*
X128181402Y-39535475D02*
X128295688Y-39535475D01*
X128295688Y-39535475D02*
X128448069Y-39573571D01*
X128448069Y-39573571D02*
X128524259Y-39611666D01*
X128524259Y-39611666D02*
X128600450Y-39687856D01*
X128600450Y-39687856D02*
X128638545Y-39802142D01*
X128638545Y-39802142D02*
X128638545Y-39992618D01*
X145656640Y-53127381D02*
X145618545Y-53203571D01*
X145618545Y-53203571D02*
X145618545Y-53317857D01*
X145618545Y-53317857D02*
X145656640Y-53432143D01*
X145656640Y-53432143D02*
X145732830Y-53508333D01*
X145732830Y-53508333D02*
X145809021Y-53546428D01*
X145809021Y-53546428D02*
X145961402Y-53584524D01*
X145961402Y-53584524D02*
X146075688Y-53584524D01*
X146075688Y-53584524D02*
X146228069Y-53546428D01*
X146228069Y-53546428D02*
X146304259Y-53508333D01*
X146304259Y-53508333D02*
X146380450Y-53432143D01*
X146380450Y-53432143D02*
X146418545Y-53317857D01*
X146418545Y-53317857D02*
X146418545Y-53241666D01*
X146418545Y-53241666D02*
X146380450Y-53127381D01*
X146380450Y-53127381D02*
X146342354Y-53089285D01*
X146342354Y-53089285D02*
X146075688Y-53089285D01*
X146075688Y-53089285D02*
X146075688Y-53241666D01*
X146418545Y-52746428D02*
X145618545Y-52746428D01*
X145618545Y-52746428D02*
X145618545Y-52441666D01*
X145618545Y-52441666D02*
X145656640Y-52365476D01*
X145656640Y-52365476D02*
X145694735Y-52327381D01*
X145694735Y-52327381D02*
X145770926Y-52289285D01*
X145770926Y-52289285D02*
X145885211Y-52289285D01*
X145885211Y-52289285D02*
X145961402Y-52327381D01*
X145961402Y-52327381D02*
X145999497Y-52365476D01*
X145999497Y-52365476D02*
X146037592Y-52441666D01*
X146037592Y-52441666D02*
X146037592Y-52746428D01*
X146418545Y-51527381D02*
X146418545Y-51984524D01*
X146418545Y-51755952D02*
X145618545Y-51755952D01*
X145618545Y-51755952D02*
X145732830Y-51832143D01*
X145732830Y-51832143D02*
X145809021Y-51908333D01*
X145809021Y-51908333D02*
X145847116Y-51984524D01*
X146418545Y-50765476D02*
X146418545Y-51222619D01*
X146418545Y-50994047D02*
X145618545Y-50994047D01*
X145618545Y-50994047D02*
X145732830Y-51070238D01*
X145732830Y-51070238D02*
X145809021Y-51146428D01*
X145809021Y-51146428D02*
X145847116Y-51222619D01*
X130416640Y-53096428D02*
X130378545Y-53172618D01*
X130378545Y-53172618D02*
X130378545Y-53286904D01*
X130378545Y-53286904D02*
X130416640Y-53401190D01*
X130416640Y-53401190D02*
X130492830Y-53477380D01*
X130492830Y-53477380D02*
X130569021Y-53515475D01*
X130569021Y-53515475D02*
X130721402Y-53553571D01*
X130721402Y-53553571D02*
X130835688Y-53553571D01*
X130835688Y-53553571D02*
X130988069Y-53515475D01*
X130988069Y-53515475D02*
X131064259Y-53477380D01*
X131064259Y-53477380D02*
X131140450Y-53401190D01*
X131140450Y-53401190D02*
X131178545Y-53286904D01*
X131178545Y-53286904D02*
X131178545Y-53210713D01*
X131178545Y-53210713D02*
X131140450Y-53096428D01*
X131140450Y-53096428D02*
X131102354Y-53058332D01*
X131102354Y-53058332D02*
X130835688Y-53058332D01*
X130835688Y-53058332D02*
X130835688Y-53210713D01*
X131178545Y-52715475D02*
X130378545Y-52715475D01*
X130378545Y-52715475D02*
X130378545Y-52410713D01*
X130378545Y-52410713D02*
X130416640Y-52334523D01*
X130416640Y-52334523D02*
X130454735Y-52296428D01*
X130454735Y-52296428D02*
X130530926Y-52258332D01*
X130530926Y-52258332D02*
X130645211Y-52258332D01*
X130645211Y-52258332D02*
X130721402Y-52296428D01*
X130721402Y-52296428D02*
X130759497Y-52334523D01*
X130759497Y-52334523D02*
X130797592Y-52410713D01*
X130797592Y-52410713D02*
X130797592Y-52715475D01*
X130378545Y-51572618D02*
X130378545Y-51724999D01*
X130378545Y-51724999D02*
X130416640Y-51801190D01*
X130416640Y-51801190D02*
X130454735Y-51839285D01*
X130454735Y-51839285D02*
X130569021Y-51915475D01*
X130569021Y-51915475D02*
X130721402Y-51953571D01*
X130721402Y-51953571D02*
X131026164Y-51953571D01*
X131026164Y-51953571D02*
X131102354Y-51915475D01*
X131102354Y-51915475D02*
X131140450Y-51877380D01*
X131140450Y-51877380D02*
X131178545Y-51801190D01*
X131178545Y-51801190D02*
X131178545Y-51648809D01*
X131178545Y-51648809D02*
X131140450Y-51572618D01*
X131140450Y-51572618D02*
X131102354Y-51534523D01*
X131102354Y-51534523D02*
X131026164Y-51496428D01*
X131026164Y-51496428D02*
X130835688Y-51496428D01*
X130835688Y-51496428D02*
X130759497Y-51534523D01*
X130759497Y-51534523D02*
X130721402Y-51572618D01*
X130721402Y-51572618D02*
X130683307Y-51648809D01*
X130683307Y-51648809D02*
X130683307Y-51801190D01*
X130683307Y-51801190D02*
X130721402Y-51877380D01*
X130721402Y-51877380D02*
X130759497Y-51915475D01*
X130759497Y-51915475D02*
X130835688Y-51953571D01*
X110096640Y-53096428D02*
X110058545Y-53172618D01*
X110058545Y-53172618D02*
X110058545Y-53286904D01*
X110058545Y-53286904D02*
X110096640Y-53401190D01*
X110096640Y-53401190D02*
X110172830Y-53477380D01*
X110172830Y-53477380D02*
X110249021Y-53515475D01*
X110249021Y-53515475D02*
X110401402Y-53553571D01*
X110401402Y-53553571D02*
X110515688Y-53553571D01*
X110515688Y-53553571D02*
X110668069Y-53515475D01*
X110668069Y-53515475D02*
X110744259Y-53477380D01*
X110744259Y-53477380D02*
X110820450Y-53401190D01*
X110820450Y-53401190D02*
X110858545Y-53286904D01*
X110858545Y-53286904D02*
X110858545Y-53210713D01*
X110858545Y-53210713D02*
X110820450Y-53096428D01*
X110820450Y-53096428D02*
X110782354Y-53058332D01*
X110782354Y-53058332D02*
X110515688Y-53058332D01*
X110515688Y-53058332D02*
X110515688Y-53210713D01*
X110858545Y-52715475D02*
X110058545Y-52715475D01*
X110058545Y-52715475D02*
X110058545Y-52410713D01*
X110058545Y-52410713D02*
X110096640Y-52334523D01*
X110096640Y-52334523D02*
X110134735Y-52296428D01*
X110134735Y-52296428D02*
X110210926Y-52258332D01*
X110210926Y-52258332D02*
X110325211Y-52258332D01*
X110325211Y-52258332D02*
X110401402Y-52296428D01*
X110401402Y-52296428D02*
X110439497Y-52334523D01*
X110439497Y-52334523D02*
X110477592Y-52410713D01*
X110477592Y-52410713D02*
X110477592Y-52715475D01*
X110058545Y-51763094D02*
X110058545Y-51686904D01*
X110058545Y-51686904D02*
X110096640Y-51610713D01*
X110096640Y-51610713D02*
X110134735Y-51572618D01*
X110134735Y-51572618D02*
X110210926Y-51534523D01*
X110210926Y-51534523D02*
X110363307Y-51496428D01*
X110363307Y-51496428D02*
X110553783Y-51496428D01*
X110553783Y-51496428D02*
X110706164Y-51534523D01*
X110706164Y-51534523D02*
X110782354Y-51572618D01*
X110782354Y-51572618D02*
X110820450Y-51610713D01*
X110820450Y-51610713D02*
X110858545Y-51686904D01*
X110858545Y-51686904D02*
X110858545Y-51763094D01*
X110858545Y-51763094D02*
X110820450Y-51839285D01*
X110820450Y-51839285D02*
X110782354Y-51877380D01*
X110782354Y-51877380D02*
X110706164Y-51915475D01*
X110706164Y-51915475D02*
X110553783Y-51953571D01*
X110553783Y-51953571D02*
X110363307Y-51953571D01*
X110363307Y-51953571D02*
X110210926Y-51915475D01*
X110210926Y-51915475D02*
X110134735Y-51877380D01*
X110134735Y-51877380D02*
X110096640Y-51839285D01*
X110096640Y-51839285D02*
X110058545Y-51763094D01*
X138036640Y-53096428D02*
X137998545Y-53172618D01*
X137998545Y-53172618D02*
X137998545Y-53286904D01*
X137998545Y-53286904D02*
X138036640Y-53401190D01*
X138036640Y-53401190D02*
X138112830Y-53477380D01*
X138112830Y-53477380D02*
X138189021Y-53515475D01*
X138189021Y-53515475D02*
X138341402Y-53553571D01*
X138341402Y-53553571D02*
X138455688Y-53553571D01*
X138455688Y-53553571D02*
X138608069Y-53515475D01*
X138608069Y-53515475D02*
X138684259Y-53477380D01*
X138684259Y-53477380D02*
X138760450Y-53401190D01*
X138760450Y-53401190D02*
X138798545Y-53286904D01*
X138798545Y-53286904D02*
X138798545Y-53210713D01*
X138798545Y-53210713D02*
X138760450Y-53096428D01*
X138760450Y-53096428D02*
X138722354Y-53058332D01*
X138722354Y-53058332D02*
X138455688Y-53058332D01*
X138455688Y-53058332D02*
X138455688Y-53210713D01*
X138798545Y-52715475D02*
X137998545Y-52715475D01*
X137998545Y-52715475D02*
X137998545Y-52410713D01*
X137998545Y-52410713D02*
X138036640Y-52334523D01*
X138036640Y-52334523D02*
X138074735Y-52296428D01*
X138074735Y-52296428D02*
X138150926Y-52258332D01*
X138150926Y-52258332D02*
X138265211Y-52258332D01*
X138265211Y-52258332D02*
X138341402Y-52296428D01*
X138341402Y-52296428D02*
X138379497Y-52334523D01*
X138379497Y-52334523D02*
X138417592Y-52410713D01*
X138417592Y-52410713D02*
X138417592Y-52715475D01*
X138798545Y-51877380D02*
X138798545Y-51724999D01*
X138798545Y-51724999D02*
X138760450Y-51648809D01*
X138760450Y-51648809D02*
X138722354Y-51610713D01*
X138722354Y-51610713D02*
X138608069Y-51534523D01*
X138608069Y-51534523D02*
X138455688Y-51496428D01*
X138455688Y-51496428D02*
X138150926Y-51496428D01*
X138150926Y-51496428D02*
X138074735Y-51534523D01*
X138074735Y-51534523D02*
X138036640Y-51572618D01*
X138036640Y-51572618D02*
X137998545Y-51648809D01*
X137998545Y-51648809D02*
X137998545Y-51801190D01*
X137998545Y-51801190D02*
X138036640Y-51877380D01*
X138036640Y-51877380D02*
X138074735Y-51915475D01*
X138074735Y-51915475D02*
X138150926Y-51953571D01*
X138150926Y-51953571D02*
X138341402Y-51953571D01*
X138341402Y-51953571D02*
X138417592Y-51915475D01*
X138417592Y-51915475D02*
X138455688Y-51877380D01*
X138455688Y-51877380D02*
X138493783Y-51801190D01*
X138493783Y-51801190D02*
X138493783Y-51648809D01*
X138493783Y-51648809D02*
X138455688Y-51572618D01*
X138455688Y-51572618D02*
X138417592Y-51534523D01*
X138417592Y-51534523D02*
X138341402Y-51496428D01*
X122796640Y-53096428D02*
X122758545Y-53172618D01*
X122758545Y-53172618D02*
X122758545Y-53286904D01*
X122758545Y-53286904D02*
X122796640Y-53401190D01*
X122796640Y-53401190D02*
X122872830Y-53477380D01*
X122872830Y-53477380D02*
X122949021Y-53515475D01*
X122949021Y-53515475D02*
X123101402Y-53553571D01*
X123101402Y-53553571D02*
X123215688Y-53553571D01*
X123215688Y-53553571D02*
X123368069Y-53515475D01*
X123368069Y-53515475D02*
X123444259Y-53477380D01*
X123444259Y-53477380D02*
X123520450Y-53401190D01*
X123520450Y-53401190D02*
X123558545Y-53286904D01*
X123558545Y-53286904D02*
X123558545Y-53210713D01*
X123558545Y-53210713D02*
X123520450Y-53096428D01*
X123520450Y-53096428D02*
X123482354Y-53058332D01*
X123482354Y-53058332D02*
X123215688Y-53058332D01*
X123215688Y-53058332D02*
X123215688Y-53210713D01*
X123558545Y-52715475D02*
X122758545Y-52715475D01*
X122758545Y-52715475D02*
X122758545Y-52410713D01*
X122758545Y-52410713D02*
X122796640Y-52334523D01*
X122796640Y-52334523D02*
X122834735Y-52296428D01*
X122834735Y-52296428D02*
X122910926Y-52258332D01*
X122910926Y-52258332D02*
X123025211Y-52258332D01*
X123025211Y-52258332D02*
X123101402Y-52296428D01*
X123101402Y-52296428D02*
X123139497Y-52334523D01*
X123139497Y-52334523D02*
X123177592Y-52410713D01*
X123177592Y-52410713D02*
X123177592Y-52715475D01*
X123025211Y-51572618D02*
X123558545Y-51572618D01*
X122720450Y-51763094D02*
X123291878Y-51953571D01*
X123291878Y-51953571D02*
X123291878Y-51458332D01*
X148196640Y-41897381D02*
X148158545Y-41973571D01*
X148158545Y-41973571D02*
X148158545Y-42087857D01*
X148158545Y-42087857D02*
X148196640Y-42202143D01*
X148196640Y-42202143D02*
X148272830Y-42278333D01*
X148272830Y-42278333D02*
X148349021Y-42316428D01*
X148349021Y-42316428D02*
X148501402Y-42354524D01*
X148501402Y-42354524D02*
X148615688Y-42354524D01*
X148615688Y-42354524D02*
X148768069Y-42316428D01*
X148768069Y-42316428D02*
X148844259Y-42278333D01*
X148844259Y-42278333D02*
X148920450Y-42202143D01*
X148920450Y-42202143D02*
X148958545Y-42087857D01*
X148958545Y-42087857D02*
X148958545Y-42011666D01*
X148958545Y-42011666D02*
X148920450Y-41897381D01*
X148920450Y-41897381D02*
X148882354Y-41859285D01*
X148882354Y-41859285D02*
X148615688Y-41859285D01*
X148615688Y-41859285D02*
X148615688Y-42011666D01*
X148958545Y-41516428D02*
X148158545Y-41516428D01*
X148158545Y-41516428D02*
X148158545Y-41211666D01*
X148158545Y-41211666D02*
X148196640Y-41135476D01*
X148196640Y-41135476D02*
X148234735Y-41097381D01*
X148234735Y-41097381D02*
X148310926Y-41059285D01*
X148310926Y-41059285D02*
X148425211Y-41059285D01*
X148425211Y-41059285D02*
X148501402Y-41097381D01*
X148501402Y-41097381D02*
X148539497Y-41135476D01*
X148539497Y-41135476D02*
X148577592Y-41211666D01*
X148577592Y-41211666D02*
X148577592Y-41516428D01*
X148958545Y-40297381D02*
X148958545Y-40754524D01*
X148958545Y-40525952D02*
X148158545Y-40525952D01*
X148158545Y-40525952D02*
X148272830Y-40602143D01*
X148272830Y-40602143D02*
X148349021Y-40678333D01*
X148349021Y-40678333D02*
X148387116Y-40754524D01*
X148958545Y-39916428D02*
X148958545Y-39764047D01*
X148958545Y-39764047D02*
X148920450Y-39687857D01*
X148920450Y-39687857D02*
X148882354Y-39649761D01*
X148882354Y-39649761D02*
X148768069Y-39573571D01*
X148768069Y-39573571D02*
X148615688Y-39535476D01*
X148615688Y-39535476D02*
X148310926Y-39535476D01*
X148310926Y-39535476D02*
X148234735Y-39573571D01*
X148234735Y-39573571D02*
X148196640Y-39611666D01*
X148196640Y-39611666D02*
X148158545Y-39687857D01*
X148158545Y-39687857D02*
X148158545Y-39840238D01*
X148158545Y-39840238D02*
X148196640Y-39916428D01*
X148196640Y-39916428D02*
X148234735Y-39954523D01*
X148234735Y-39954523D02*
X148310926Y-39992619D01*
X148310926Y-39992619D02*
X148501402Y-39992619D01*
X148501402Y-39992619D02*
X148577592Y-39954523D01*
X148577592Y-39954523D02*
X148615688Y-39916428D01*
X148615688Y-39916428D02*
X148653783Y-39840238D01*
X148653783Y-39840238D02*
X148653783Y-39687857D01*
X148653783Y-39687857D02*
X148615688Y-39611666D01*
X148615688Y-39611666D02*
X148577592Y-39573571D01*
X148577592Y-39573571D02*
X148501402Y-39535476D01*
X143126640Y-41897381D02*
X143088545Y-41973571D01*
X143088545Y-41973571D02*
X143088545Y-42087857D01*
X143088545Y-42087857D02*
X143126640Y-42202143D01*
X143126640Y-42202143D02*
X143202830Y-42278333D01*
X143202830Y-42278333D02*
X143279021Y-42316428D01*
X143279021Y-42316428D02*
X143431402Y-42354524D01*
X143431402Y-42354524D02*
X143545688Y-42354524D01*
X143545688Y-42354524D02*
X143698069Y-42316428D01*
X143698069Y-42316428D02*
X143774259Y-42278333D01*
X143774259Y-42278333D02*
X143850450Y-42202143D01*
X143850450Y-42202143D02*
X143888545Y-42087857D01*
X143888545Y-42087857D02*
X143888545Y-42011666D01*
X143888545Y-42011666D02*
X143850450Y-41897381D01*
X143850450Y-41897381D02*
X143812354Y-41859285D01*
X143812354Y-41859285D02*
X143545688Y-41859285D01*
X143545688Y-41859285D02*
X143545688Y-42011666D01*
X143888545Y-41516428D02*
X143088545Y-41516428D01*
X143088545Y-41516428D02*
X143088545Y-41211666D01*
X143088545Y-41211666D02*
X143126640Y-41135476D01*
X143126640Y-41135476D02*
X143164735Y-41097381D01*
X143164735Y-41097381D02*
X143240926Y-41059285D01*
X143240926Y-41059285D02*
X143355211Y-41059285D01*
X143355211Y-41059285D02*
X143431402Y-41097381D01*
X143431402Y-41097381D02*
X143469497Y-41135476D01*
X143469497Y-41135476D02*
X143507592Y-41211666D01*
X143507592Y-41211666D02*
X143507592Y-41516428D01*
X143164735Y-40754524D02*
X143126640Y-40716428D01*
X143126640Y-40716428D02*
X143088545Y-40640238D01*
X143088545Y-40640238D02*
X143088545Y-40449762D01*
X143088545Y-40449762D02*
X143126640Y-40373571D01*
X143126640Y-40373571D02*
X143164735Y-40335476D01*
X143164735Y-40335476D02*
X143240926Y-40297381D01*
X143240926Y-40297381D02*
X143317116Y-40297381D01*
X143317116Y-40297381D02*
X143431402Y-40335476D01*
X143431402Y-40335476D02*
X143888545Y-40792619D01*
X143888545Y-40792619D02*
X143888545Y-40297381D01*
X143888545Y-39535476D02*
X143888545Y-39992619D01*
X143888545Y-39764047D02*
X143088545Y-39764047D01*
X143088545Y-39764047D02*
X143202830Y-39840238D01*
X143202830Y-39840238D02*
X143279021Y-39916428D01*
X143279021Y-39916428D02*
X143317116Y-39992619D01*
X110058545Y-42161666D02*
X110858545Y-41894999D01*
X110858545Y-41894999D02*
X110058545Y-41628333D01*
X110439497Y-41095000D02*
X110477592Y-40980714D01*
X110477592Y-40980714D02*
X110515688Y-40942619D01*
X110515688Y-40942619D02*
X110591878Y-40904523D01*
X110591878Y-40904523D02*
X110706164Y-40904523D01*
X110706164Y-40904523D02*
X110782354Y-40942619D01*
X110782354Y-40942619D02*
X110820450Y-40980714D01*
X110820450Y-40980714D02*
X110858545Y-41056904D01*
X110858545Y-41056904D02*
X110858545Y-41361666D01*
X110858545Y-41361666D02*
X110058545Y-41361666D01*
X110058545Y-41361666D02*
X110058545Y-41095000D01*
X110058545Y-41095000D02*
X110096640Y-41018809D01*
X110096640Y-41018809D02*
X110134735Y-40980714D01*
X110134735Y-40980714D02*
X110210926Y-40942619D01*
X110210926Y-40942619D02*
X110287116Y-40942619D01*
X110287116Y-40942619D02*
X110363307Y-40980714D01*
X110363307Y-40980714D02*
X110401402Y-41018809D01*
X110401402Y-41018809D02*
X110439497Y-41095000D01*
X110439497Y-41095000D02*
X110439497Y-41361666D01*
X110058545Y-40561666D02*
X110706164Y-40561666D01*
X110706164Y-40561666D02*
X110782354Y-40523571D01*
X110782354Y-40523571D02*
X110820450Y-40485476D01*
X110820450Y-40485476D02*
X110858545Y-40409285D01*
X110858545Y-40409285D02*
X110858545Y-40256904D01*
X110858545Y-40256904D02*
X110820450Y-40180714D01*
X110820450Y-40180714D02*
X110782354Y-40142619D01*
X110782354Y-40142619D02*
X110706164Y-40104523D01*
X110706164Y-40104523D02*
X110058545Y-40104523D01*
X110820450Y-39761667D02*
X110858545Y-39647381D01*
X110858545Y-39647381D02*
X110858545Y-39456905D01*
X110858545Y-39456905D02*
X110820450Y-39380714D01*
X110820450Y-39380714D02*
X110782354Y-39342619D01*
X110782354Y-39342619D02*
X110706164Y-39304524D01*
X110706164Y-39304524D02*
X110629973Y-39304524D01*
X110629973Y-39304524D02*
X110553783Y-39342619D01*
X110553783Y-39342619D02*
X110515688Y-39380714D01*
X110515688Y-39380714D02*
X110477592Y-39456905D01*
X110477592Y-39456905D02*
X110439497Y-39609286D01*
X110439497Y-39609286D02*
X110401402Y-39685476D01*
X110401402Y-39685476D02*
X110363307Y-39723571D01*
X110363307Y-39723571D02*
X110287116Y-39761667D01*
X110287116Y-39761667D02*
X110210926Y-39761667D01*
X110210926Y-39761667D02*
X110134735Y-39723571D01*
X110134735Y-39723571D02*
X110096640Y-39685476D01*
X110096640Y-39685476D02*
X110058545Y-39609286D01*
X110058545Y-39609286D02*
X110058545Y-39418809D01*
X110058545Y-39418809D02*
X110096640Y-39304524D01*
X153181011Y-44269200D02*
X153295297Y-44307295D01*
X153295297Y-44307295D02*
X153485773Y-44307295D01*
X153485773Y-44307295D02*
X153561964Y-44269200D01*
X153561964Y-44269200D02*
X153600059Y-44231104D01*
X153600059Y-44231104D02*
X153638154Y-44154914D01*
X153638154Y-44154914D02*
X153638154Y-44078723D01*
X153638154Y-44078723D02*
X153600059Y-44002533D01*
X153600059Y-44002533D02*
X153561964Y-43964438D01*
X153561964Y-43964438D02*
X153485773Y-43926342D01*
X153485773Y-43926342D02*
X153333392Y-43888247D01*
X153333392Y-43888247D02*
X153257202Y-43850152D01*
X153257202Y-43850152D02*
X153219107Y-43812057D01*
X153219107Y-43812057D02*
X153181011Y-43735866D01*
X153181011Y-43735866D02*
X153181011Y-43659676D01*
X153181011Y-43659676D02*
X153219107Y-43583485D01*
X153219107Y-43583485D02*
X153257202Y-43545390D01*
X153257202Y-43545390D02*
X153333392Y-43507295D01*
X153333392Y-43507295D02*
X153523869Y-43507295D01*
X153523869Y-43507295D02*
X153638154Y-43545390D01*
X153904821Y-43507295D02*
X154095297Y-44307295D01*
X154095297Y-44307295D02*
X154247678Y-43735866D01*
X154247678Y-43735866D02*
X154400059Y-44307295D01*
X154400059Y-44307295D02*
X154590536Y-43507295D01*
X154895298Y-44307295D02*
X154895298Y-43507295D01*
X154895298Y-43507295D02*
X155085774Y-43507295D01*
X155085774Y-43507295D02*
X155200060Y-43545390D01*
X155200060Y-43545390D02*
X155276250Y-43621580D01*
X155276250Y-43621580D02*
X155314345Y-43697771D01*
X155314345Y-43697771D02*
X155352441Y-43850152D01*
X155352441Y-43850152D02*
X155352441Y-43964438D01*
X155352441Y-43964438D02*
X155314345Y-44116819D01*
X155314345Y-44116819D02*
X155276250Y-44193009D01*
X155276250Y-44193009D02*
X155200060Y-44269200D01*
X155200060Y-44269200D02*
X155085774Y-44307295D01*
X155085774Y-44307295D02*
X154895298Y-44307295D01*
X155695298Y-44307295D02*
X155695298Y-43507295D01*
X156228631Y-43507295D02*
X156381012Y-43507295D01*
X156381012Y-43507295D02*
X156457202Y-43545390D01*
X156457202Y-43545390D02*
X156533393Y-43621580D01*
X156533393Y-43621580D02*
X156571488Y-43773961D01*
X156571488Y-43773961D02*
X156571488Y-44040628D01*
X156571488Y-44040628D02*
X156533393Y-44193009D01*
X156533393Y-44193009D02*
X156457202Y-44269200D01*
X156457202Y-44269200D02*
X156381012Y-44307295D01*
X156381012Y-44307295D02*
X156228631Y-44307295D01*
X156228631Y-44307295D02*
X156152440Y-44269200D01*
X156152440Y-44269200D02*
X156076250Y-44193009D01*
X156076250Y-44193009D02*
X156038154Y-44040628D01*
X156038154Y-44040628D02*
X156038154Y-43773961D01*
X156038154Y-43773961D02*
X156076250Y-43621580D01*
X156076250Y-43621580D02*
X156152440Y-43545390D01*
X156152440Y-43545390D02*
X156228631Y-43507295D01*
X143116640Y-53127381D02*
X143078545Y-53203571D01*
X143078545Y-53203571D02*
X143078545Y-53317857D01*
X143078545Y-53317857D02*
X143116640Y-53432143D01*
X143116640Y-53432143D02*
X143192830Y-53508333D01*
X143192830Y-53508333D02*
X143269021Y-53546428D01*
X143269021Y-53546428D02*
X143421402Y-53584524D01*
X143421402Y-53584524D02*
X143535688Y-53584524D01*
X143535688Y-53584524D02*
X143688069Y-53546428D01*
X143688069Y-53546428D02*
X143764259Y-53508333D01*
X143764259Y-53508333D02*
X143840450Y-53432143D01*
X143840450Y-53432143D02*
X143878545Y-53317857D01*
X143878545Y-53317857D02*
X143878545Y-53241666D01*
X143878545Y-53241666D02*
X143840450Y-53127381D01*
X143840450Y-53127381D02*
X143802354Y-53089285D01*
X143802354Y-53089285D02*
X143535688Y-53089285D01*
X143535688Y-53089285D02*
X143535688Y-53241666D01*
X143878545Y-52746428D02*
X143078545Y-52746428D01*
X143078545Y-52746428D02*
X143078545Y-52441666D01*
X143078545Y-52441666D02*
X143116640Y-52365476D01*
X143116640Y-52365476D02*
X143154735Y-52327381D01*
X143154735Y-52327381D02*
X143230926Y-52289285D01*
X143230926Y-52289285D02*
X143345211Y-52289285D01*
X143345211Y-52289285D02*
X143421402Y-52327381D01*
X143421402Y-52327381D02*
X143459497Y-52365476D01*
X143459497Y-52365476D02*
X143497592Y-52441666D01*
X143497592Y-52441666D02*
X143497592Y-52746428D01*
X143878545Y-51527381D02*
X143878545Y-51984524D01*
X143878545Y-51755952D02*
X143078545Y-51755952D01*
X143078545Y-51755952D02*
X143192830Y-51832143D01*
X143192830Y-51832143D02*
X143269021Y-51908333D01*
X143269021Y-51908333D02*
X143307116Y-51984524D01*
X143078545Y-51032142D02*
X143078545Y-50955952D01*
X143078545Y-50955952D02*
X143116640Y-50879761D01*
X143116640Y-50879761D02*
X143154735Y-50841666D01*
X143154735Y-50841666D02*
X143230926Y-50803571D01*
X143230926Y-50803571D02*
X143383307Y-50765476D01*
X143383307Y-50765476D02*
X143573783Y-50765476D01*
X143573783Y-50765476D02*
X143726164Y-50803571D01*
X143726164Y-50803571D02*
X143802354Y-50841666D01*
X143802354Y-50841666D02*
X143840450Y-50879761D01*
X143840450Y-50879761D02*
X143878545Y-50955952D01*
X143878545Y-50955952D02*
X143878545Y-51032142D01*
X143878545Y-51032142D02*
X143840450Y-51108333D01*
X143840450Y-51108333D02*
X143802354Y-51146428D01*
X143802354Y-51146428D02*
X143726164Y-51184523D01*
X143726164Y-51184523D02*
X143573783Y-51222619D01*
X143573783Y-51222619D02*
X143383307Y-51222619D01*
X143383307Y-51222619D02*
X143230926Y-51184523D01*
X143230926Y-51184523D02*
X143154735Y-51146428D01*
X143154735Y-51146428D02*
X143116640Y-51108333D01*
X143116640Y-51108333D02*
X143078545Y-51032142D01*
X148196640Y-53127381D02*
X148158545Y-53203571D01*
X148158545Y-53203571D02*
X148158545Y-53317857D01*
X148158545Y-53317857D02*
X148196640Y-53432143D01*
X148196640Y-53432143D02*
X148272830Y-53508333D01*
X148272830Y-53508333D02*
X148349021Y-53546428D01*
X148349021Y-53546428D02*
X148501402Y-53584524D01*
X148501402Y-53584524D02*
X148615688Y-53584524D01*
X148615688Y-53584524D02*
X148768069Y-53546428D01*
X148768069Y-53546428D02*
X148844259Y-53508333D01*
X148844259Y-53508333D02*
X148920450Y-53432143D01*
X148920450Y-53432143D02*
X148958545Y-53317857D01*
X148958545Y-53317857D02*
X148958545Y-53241666D01*
X148958545Y-53241666D02*
X148920450Y-53127381D01*
X148920450Y-53127381D02*
X148882354Y-53089285D01*
X148882354Y-53089285D02*
X148615688Y-53089285D01*
X148615688Y-53089285D02*
X148615688Y-53241666D01*
X148958545Y-52746428D02*
X148158545Y-52746428D01*
X148158545Y-52746428D02*
X148158545Y-52441666D01*
X148158545Y-52441666D02*
X148196640Y-52365476D01*
X148196640Y-52365476D02*
X148234735Y-52327381D01*
X148234735Y-52327381D02*
X148310926Y-52289285D01*
X148310926Y-52289285D02*
X148425211Y-52289285D01*
X148425211Y-52289285D02*
X148501402Y-52327381D01*
X148501402Y-52327381D02*
X148539497Y-52365476D01*
X148539497Y-52365476D02*
X148577592Y-52441666D01*
X148577592Y-52441666D02*
X148577592Y-52746428D01*
X148958545Y-51527381D02*
X148958545Y-51984524D01*
X148958545Y-51755952D02*
X148158545Y-51755952D01*
X148158545Y-51755952D02*
X148272830Y-51832143D01*
X148272830Y-51832143D02*
X148349021Y-51908333D01*
X148349021Y-51908333D02*
X148387116Y-51984524D01*
X148234735Y-51222619D02*
X148196640Y-51184523D01*
X148196640Y-51184523D02*
X148158545Y-51108333D01*
X148158545Y-51108333D02*
X148158545Y-50917857D01*
X148158545Y-50917857D02*
X148196640Y-50841666D01*
X148196640Y-50841666D02*
X148234735Y-50803571D01*
X148234735Y-50803571D02*
X148310926Y-50765476D01*
X148310926Y-50765476D02*
X148387116Y-50765476D01*
X148387116Y-50765476D02*
X148501402Y-50803571D01*
X148501402Y-50803571D02*
X148958545Y-51260714D01*
X148958545Y-51260714D02*
X148958545Y-50765476D01*
X127876640Y-53134523D02*
X127838545Y-53210713D01*
X127838545Y-53210713D02*
X127838545Y-53324999D01*
X127838545Y-53324999D02*
X127876640Y-53439285D01*
X127876640Y-53439285D02*
X127952830Y-53515475D01*
X127952830Y-53515475D02*
X128029021Y-53553570D01*
X128029021Y-53553570D02*
X128181402Y-53591666D01*
X128181402Y-53591666D02*
X128295688Y-53591666D01*
X128295688Y-53591666D02*
X128448069Y-53553570D01*
X128448069Y-53553570D02*
X128524259Y-53515475D01*
X128524259Y-53515475D02*
X128600450Y-53439285D01*
X128600450Y-53439285D02*
X128638545Y-53324999D01*
X128638545Y-53324999D02*
X128638545Y-53248808D01*
X128638545Y-53248808D02*
X128600450Y-53134523D01*
X128600450Y-53134523D02*
X128562354Y-53096427D01*
X128562354Y-53096427D02*
X128295688Y-53096427D01*
X128295688Y-53096427D02*
X128295688Y-53248808D01*
X128638545Y-52753570D02*
X127838545Y-52753570D01*
X127838545Y-52753570D02*
X128638545Y-52296427D01*
X128638545Y-52296427D02*
X127838545Y-52296427D01*
X128638545Y-51915475D02*
X127838545Y-51915475D01*
X127838545Y-51915475D02*
X127838545Y-51724999D01*
X127838545Y-51724999D02*
X127876640Y-51610713D01*
X127876640Y-51610713D02*
X127952830Y-51534523D01*
X127952830Y-51534523D02*
X128029021Y-51496428D01*
X128029021Y-51496428D02*
X128181402Y-51458332D01*
X128181402Y-51458332D02*
X128295688Y-51458332D01*
X128295688Y-51458332D02*
X128448069Y-51496428D01*
X128448069Y-51496428D02*
X128524259Y-51534523D01*
X128524259Y-51534523D02*
X128600450Y-51610713D01*
X128600450Y-51610713D02*
X128638545Y-51724999D01*
X128638545Y-51724999D02*
X128638545Y-51915475D01*
X132956640Y-41897381D02*
X132918545Y-41973571D01*
X132918545Y-41973571D02*
X132918545Y-42087857D01*
X132918545Y-42087857D02*
X132956640Y-42202143D01*
X132956640Y-42202143D02*
X133032830Y-42278333D01*
X133032830Y-42278333D02*
X133109021Y-42316428D01*
X133109021Y-42316428D02*
X133261402Y-42354524D01*
X133261402Y-42354524D02*
X133375688Y-42354524D01*
X133375688Y-42354524D02*
X133528069Y-42316428D01*
X133528069Y-42316428D02*
X133604259Y-42278333D01*
X133604259Y-42278333D02*
X133680450Y-42202143D01*
X133680450Y-42202143D02*
X133718545Y-42087857D01*
X133718545Y-42087857D02*
X133718545Y-42011666D01*
X133718545Y-42011666D02*
X133680450Y-41897381D01*
X133680450Y-41897381D02*
X133642354Y-41859285D01*
X133642354Y-41859285D02*
X133375688Y-41859285D01*
X133375688Y-41859285D02*
X133375688Y-42011666D01*
X133718545Y-41516428D02*
X132918545Y-41516428D01*
X132918545Y-41516428D02*
X132918545Y-41211666D01*
X132918545Y-41211666D02*
X132956640Y-41135476D01*
X132956640Y-41135476D02*
X132994735Y-41097381D01*
X132994735Y-41097381D02*
X133070926Y-41059285D01*
X133070926Y-41059285D02*
X133185211Y-41059285D01*
X133185211Y-41059285D02*
X133261402Y-41097381D01*
X133261402Y-41097381D02*
X133299497Y-41135476D01*
X133299497Y-41135476D02*
X133337592Y-41211666D01*
X133337592Y-41211666D02*
X133337592Y-41516428D01*
X132994735Y-40754524D02*
X132956640Y-40716428D01*
X132956640Y-40716428D02*
X132918545Y-40640238D01*
X132918545Y-40640238D02*
X132918545Y-40449762D01*
X132918545Y-40449762D02*
X132956640Y-40373571D01*
X132956640Y-40373571D02*
X132994735Y-40335476D01*
X132994735Y-40335476D02*
X133070926Y-40297381D01*
X133070926Y-40297381D02*
X133147116Y-40297381D01*
X133147116Y-40297381D02*
X133261402Y-40335476D01*
X133261402Y-40335476D02*
X133718545Y-40792619D01*
X133718545Y-40792619D02*
X133718545Y-40297381D01*
X132918545Y-39611666D02*
X132918545Y-39764047D01*
X132918545Y-39764047D02*
X132956640Y-39840238D01*
X132956640Y-39840238D02*
X132994735Y-39878333D01*
X132994735Y-39878333D02*
X133109021Y-39954523D01*
X133109021Y-39954523D02*
X133261402Y-39992619D01*
X133261402Y-39992619D02*
X133566164Y-39992619D01*
X133566164Y-39992619D02*
X133642354Y-39954523D01*
X133642354Y-39954523D02*
X133680450Y-39916428D01*
X133680450Y-39916428D02*
X133718545Y-39840238D01*
X133718545Y-39840238D02*
X133718545Y-39687857D01*
X133718545Y-39687857D02*
X133680450Y-39611666D01*
X133680450Y-39611666D02*
X133642354Y-39573571D01*
X133642354Y-39573571D02*
X133566164Y-39535476D01*
X133566164Y-39535476D02*
X133375688Y-39535476D01*
X133375688Y-39535476D02*
X133299497Y-39573571D01*
X133299497Y-39573571D02*
X133261402Y-39611666D01*
X133261402Y-39611666D02*
X133223307Y-39687857D01*
X133223307Y-39687857D02*
X133223307Y-39840238D01*
X133223307Y-39840238D02*
X133261402Y-39916428D01*
X133261402Y-39916428D02*
X133299497Y-39954523D01*
X133299497Y-39954523D02*
X133375688Y-39992619D01*
X123329973Y-44937857D02*
X123329973Y-44556904D01*
X123558545Y-45014047D02*
X122758545Y-44747380D01*
X122758545Y-44747380D02*
X123558545Y-44480714D01*
X123558545Y-44214047D02*
X122758545Y-44214047D01*
X122758545Y-44214047D02*
X122758545Y-44023571D01*
X122758545Y-44023571D02*
X122796640Y-43909285D01*
X122796640Y-43909285D02*
X122872830Y-43833095D01*
X122872830Y-43833095D02*
X122949021Y-43795000D01*
X122949021Y-43795000D02*
X123101402Y-43756904D01*
X123101402Y-43756904D02*
X123215688Y-43756904D01*
X123215688Y-43756904D02*
X123368069Y-43795000D01*
X123368069Y-43795000D02*
X123444259Y-43833095D01*
X123444259Y-43833095D02*
X123520450Y-43909285D01*
X123520450Y-43909285D02*
X123558545Y-44023571D01*
X123558545Y-44023571D02*
X123558545Y-44214047D01*
X123482354Y-42956904D02*
X123520450Y-42995000D01*
X123520450Y-42995000D02*
X123558545Y-43109285D01*
X123558545Y-43109285D02*
X123558545Y-43185476D01*
X123558545Y-43185476D02*
X123520450Y-43299762D01*
X123520450Y-43299762D02*
X123444259Y-43375952D01*
X123444259Y-43375952D02*
X123368069Y-43414047D01*
X123368069Y-43414047D02*
X123215688Y-43452143D01*
X123215688Y-43452143D02*
X123101402Y-43452143D01*
X123101402Y-43452143D02*
X122949021Y-43414047D01*
X122949021Y-43414047D02*
X122872830Y-43375952D01*
X122872830Y-43375952D02*
X122796640Y-43299762D01*
X122796640Y-43299762D02*
X122758545Y-43185476D01*
X122758545Y-43185476D02*
X122758545Y-43109285D01*
X122758545Y-43109285D02*
X122796640Y-42995000D01*
X122796640Y-42995000D02*
X122834735Y-42956904D01*
X123634735Y-42804524D02*
X123634735Y-42195000D01*
X122758545Y-42118809D02*
X123558545Y-41852142D01*
X123558545Y-41852142D02*
X122758545Y-41585476D01*
X123558545Y-40861666D02*
X123177592Y-41128333D01*
X123558545Y-41318809D02*
X122758545Y-41318809D01*
X122758545Y-41318809D02*
X122758545Y-41014047D01*
X122758545Y-41014047D02*
X122796640Y-40937857D01*
X122796640Y-40937857D02*
X122834735Y-40899762D01*
X122834735Y-40899762D02*
X122910926Y-40861666D01*
X122910926Y-40861666D02*
X123025211Y-40861666D01*
X123025211Y-40861666D02*
X123101402Y-40899762D01*
X123101402Y-40899762D02*
X123139497Y-40937857D01*
X123139497Y-40937857D02*
X123177592Y-41014047D01*
X123177592Y-41014047D02*
X123177592Y-41318809D01*
X123139497Y-40518809D02*
X123139497Y-40252143D01*
X123558545Y-40137857D02*
X123558545Y-40518809D01*
X123558545Y-40518809D02*
X122758545Y-40518809D01*
X122758545Y-40518809D02*
X122758545Y-40137857D01*
X123139497Y-39528333D02*
X123139497Y-39794999D01*
X123558545Y-39794999D02*
X122758545Y-39794999D01*
X122758545Y-39794999D02*
X122758545Y-39414047D01*
X117716640Y-53096428D02*
X117678545Y-53172618D01*
X117678545Y-53172618D02*
X117678545Y-53286904D01*
X117678545Y-53286904D02*
X117716640Y-53401190D01*
X117716640Y-53401190D02*
X117792830Y-53477380D01*
X117792830Y-53477380D02*
X117869021Y-53515475D01*
X117869021Y-53515475D02*
X118021402Y-53553571D01*
X118021402Y-53553571D02*
X118135688Y-53553571D01*
X118135688Y-53553571D02*
X118288069Y-53515475D01*
X118288069Y-53515475D02*
X118364259Y-53477380D01*
X118364259Y-53477380D02*
X118440450Y-53401190D01*
X118440450Y-53401190D02*
X118478545Y-53286904D01*
X118478545Y-53286904D02*
X118478545Y-53210713D01*
X118478545Y-53210713D02*
X118440450Y-53096428D01*
X118440450Y-53096428D02*
X118402354Y-53058332D01*
X118402354Y-53058332D02*
X118135688Y-53058332D01*
X118135688Y-53058332D02*
X118135688Y-53210713D01*
X118478545Y-52715475D02*
X117678545Y-52715475D01*
X117678545Y-52715475D02*
X117678545Y-52410713D01*
X117678545Y-52410713D02*
X117716640Y-52334523D01*
X117716640Y-52334523D02*
X117754735Y-52296428D01*
X117754735Y-52296428D02*
X117830926Y-52258332D01*
X117830926Y-52258332D02*
X117945211Y-52258332D01*
X117945211Y-52258332D02*
X118021402Y-52296428D01*
X118021402Y-52296428D02*
X118059497Y-52334523D01*
X118059497Y-52334523D02*
X118097592Y-52410713D01*
X118097592Y-52410713D02*
X118097592Y-52715475D01*
X117754735Y-51953571D02*
X117716640Y-51915475D01*
X117716640Y-51915475D02*
X117678545Y-51839285D01*
X117678545Y-51839285D02*
X117678545Y-51648809D01*
X117678545Y-51648809D02*
X117716640Y-51572618D01*
X117716640Y-51572618D02*
X117754735Y-51534523D01*
X117754735Y-51534523D02*
X117830926Y-51496428D01*
X117830926Y-51496428D02*
X117907116Y-51496428D01*
X117907116Y-51496428D02*
X118021402Y-51534523D01*
X118021402Y-51534523D02*
X118478545Y-51991666D01*
X118478545Y-51991666D02*
X118478545Y-51496428D01*
X150736640Y-53127381D02*
X150698545Y-53203571D01*
X150698545Y-53203571D02*
X150698545Y-53317857D01*
X150698545Y-53317857D02*
X150736640Y-53432143D01*
X150736640Y-53432143D02*
X150812830Y-53508333D01*
X150812830Y-53508333D02*
X150889021Y-53546428D01*
X150889021Y-53546428D02*
X151041402Y-53584524D01*
X151041402Y-53584524D02*
X151155688Y-53584524D01*
X151155688Y-53584524D02*
X151308069Y-53546428D01*
X151308069Y-53546428D02*
X151384259Y-53508333D01*
X151384259Y-53508333D02*
X151460450Y-53432143D01*
X151460450Y-53432143D02*
X151498545Y-53317857D01*
X151498545Y-53317857D02*
X151498545Y-53241666D01*
X151498545Y-53241666D02*
X151460450Y-53127381D01*
X151460450Y-53127381D02*
X151422354Y-53089285D01*
X151422354Y-53089285D02*
X151155688Y-53089285D01*
X151155688Y-53089285D02*
X151155688Y-53241666D01*
X151498545Y-52746428D02*
X150698545Y-52746428D01*
X150698545Y-52746428D02*
X150698545Y-52441666D01*
X150698545Y-52441666D02*
X150736640Y-52365476D01*
X150736640Y-52365476D02*
X150774735Y-52327381D01*
X150774735Y-52327381D02*
X150850926Y-52289285D01*
X150850926Y-52289285D02*
X150965211Y-52289285D01*
X150965211Y-52289285D02*
X151041402Y-52327381D01*
X151041402Y-52327381D02*
X151079497Y-52365476D01*
X151079497Y-52365476D02*
X151117592Y-52441666D01*
X151117592Y-52441666D02*
X151117592Y-52746428D01*
X151498545Y-51527381D02*
X151498545Y-51984524D01*
X151498545Y-51755952D02*
X150698545Y-51755952D01*
X150698545Y-51755952D02*
X150812830Y-51832143D01*
X150812830Y-51832143D02*
X150889021Y-51908333D01*
X150889021Y-51908333D02*
X150927116Y-51984524D01*
X150698545Y-51260714D02*
X150698545Y-50765476D01*
X150698545Y-50765476D02*
X151003307Y-51032142D01*
X151003307Y-51032142D02*
X151003307Y-50917857D01*
X151003307Y-50917857D02*
X151041402Y-50841666D01*
X151041402Y-50841666D02*
X151079497Y-50803571D01*
X151079497Y-50803571D02*
X151155688Y-50765476D01*
X151155688Y-50765476D02*
X151346164Y-50765476D01*
X151346164Y-50765476D02*
X151422354Y-50803571D01*
X151422354Y-50803571D02*
X151460450Y-50841666D01*
X151460450Y-50841666D02*
X151498545Y-50917857D01*
X151498545Y-50917857D02*
X151498545Y-51146428D01*
X151498545Y-51146428D02*
X151460450Y-51222619D01*
X151460450Y-51222619D02*
X151422354Y-51260714D01*
X112598545Y-42066428D02*
X113398545Y-41799761D01*
X113398545Y-41799761D02*
X112598545Y-41533095D01*
X113360450Y-41304524D02*
X113398545Y-41190238D01*
X113398545Y-41190238D02*
X113398545Y-40999762D01*
X113398545Y-40999762D02*
X113360450Y-40923571D01*
X113360450Y-40923571D02*
X113322354Y-40885476D01*
X113322354Y-40885476D02*
X113246164Y-40847381D01*
X113246164Y-40847381D02*
X113169973Y-40847381D01*
X113169973Y-40847381D02*
X113093783Y-40885476D01*
X113093783Y-40885476D02*
X113055688Y-40923571D01*
X113055688Y-40923571D02*
X113017592Y-40999762D01*
X113017592Y-40999762D02*
X112979497Y-41152143D01*
X112979497Y-41152143D02*
X112941402Y-41228333D01*
X112941402Y-41228333D02*
X112903307Y-41266428D01*
X112903307Y-41266428D02*
X112827116Y-41304524D01*
X112827116Y-41304524D02*
X112750926Y-41304524D01*
X112750926Y-41304524D02*
X112674735Y-41266428D01*
X112674735Y-41266428D02*
X112636640Y-41228333D01*
X112636640Y-41228333D02*
X112598545Y-41152143D01*
X112598545Y-41152143D02*
X112598545Y-40961666D01*
X112598545Y-40961666D02*
X112636640Y-40847381D01*
X113017592Y-40352142D02*
X113398545Y-40352142D01*
X112598545Y-40618809D02*
X113017592Y-40352142D01*
X113017592Y-40352142D02*
X112598545Y-40085476D01*
X113360450Y-39856905D02*
X113398545Y-39742619D01*
X113398545Y-39742619D02*
X113398545Y-39552143D01*
X113398545Y-39552143D02*
X113360450Y-39475952D01*
X113360450Y-39475952D02*
X113322354Y-39437857D01*
X113322354Y-39437857D02*
X113246164Y-39399762D01*
X113246164Y-39399762D02*
X113169973Y-39399762D01*
X113169973Y-39399762D02*
X113093783Y-39437857D01*
X113093783Y-39437857D02*
X113055688Y-39475952D01*
X113055688Y-39475952D02*
X113017592Y-39552143D01*
X113017592Y-39552143D02*
X112979497Y-39704524D01*
X112979497Y-39704524D02*
X112941402Y-39780714D01*
X112941402Y-39780714D02*
X112903307Y-39818809D01*
X112903307Y-39818809D02*
X112827116Y-39856905D01*
X112827116Y-39856905D02*
X112750926Y-39856905D01*
X112750926Y-39856905D02*
X112674735Y-39818809D01*
X112674735Y-39818809D02*
X112636640Y-39780714D01*
X112636640Y-39780714D02*
X112598545Y-39704524D01*
X112598545Y-39704524D02*
X112598545Y-39514047D01*
X112598545Y-39514047D02*
X112636640Y-39399762D01*
X125336640Y-53096428D02*
X125298545Y-53172618D01*
X125298545Y-53172618D02*
X125298545Y-53286904D01*
X125298545Y-53286904D02*
X125336640Y-53401190D01*
X125336640Y-53401190D02*
X125412830Y-53477380D01*
X125412830Y-53477380D02*
X125489021Y-53515475D01*
X125489021Y-53515475D02*
X125641402Y-53553571D01*
X125641402Y-53553571D02*
X125755688Y-53553571D01*
X125755688Y-53553571D02*
X125908069Y-53515475D01*
X125908069Y-53515475D02*
X125984259Y-53477380D01*
X125984259Y-53477380D02*
X126060450Y-53401190D01*
X126060450Y-53401190D02*
X126098545Y-53286904D01*
X126098545Y-53286904D02*
X126098545Y-53210713D01*
X126098545Y-53210713D02*
X126060450Y-53096428D01*
X126060450Y-53096428D02*
X126022354Y-53058332D01*
X126022354Y-53058332D02*
X125755688Y-53058332D01*
X125755688Y-53058332D02*
X125755688Y-53210713D01*
X126098545Y-52715475D02*
X125298545Y-52715475D01*
X125298545Y-52715475D02*
X125298545Y-52410713D01*
X125298545Y-52410713D02*
X125336640Y-52334523D01*
X125336640Y-52334523D02*
X125374735Y-52296428D01*
X125374735Y-52296428D02*
X125450926Y-52258332D01*
X125450926Y-52258332D02*
X125565211Y-52258332D01*
X125565211Y-52258332D02*
X125641402Y-52296428D01*
X125641402Y-52296428D02*
X125679497Y-52334523D01*
X125679497Y-52334523D02*
X125717592Y-52410713D01*
X125717592Y-52410713D02*
X125717592Y-52715475D01*
X125298545Y-51534523D02*
X125298545Y-51915475D01*
X125298545Y-51915475D02*
X125679497Y-51953571D01*
X125679497Y-51953571D02*
X125641402Y-51915475D01*
X125641402Y-51915475D02*
X125603307Y-51839285D01*
X125603307Y-51839285D02*
X125603307Y-51648809D01*
X125603307Y-51648809D02*
X125641402Y-51572618D01*
X125641402Y-51572618D02*
X125679497Y-51534523D01*
X125679497Y-51534523D02*
X125755688Y-51496428D01*
X125755688Y-51496428D02*
X125946164Y-51496428D01*
X125946164Y-51496428D02*
X126022354Y-51534523D01*
X126022354Y-51534523D02*
X126060450Y-51572618D01*
X126060450Y-51572618D02*
X126098545Y-51648809D01*
X126098545Y-51648809D02*
X126098545Y-51839285D01*
X126098545Y-51839285D02*
X126060450Y-51915475D01*
X126060450Y-51915475D02*
X126022354Y-51953571D01*
X150736640Y-41897381D02*
X150698545Y-41973571D01*
X150698545Y-41973571D02*
X150698545Y-42087857D01*
X150698545Y-42087857D02*
X150736640Y-42202143D01*
X150736640Y-42202143D02*
X150812830Y-42278333D01*
X150812830Y-42278333D02*
X150889021Y-42316428D01*
X150889021Y-42316428D02*
X151041402Y-42354524D01*
X151041402Y-42354524D02*
X151155688Y-42354524D01*
X151155688Y-42354524D02*
X151308069Y-42316428D01*
X151308069Y-42316428D02*
X151384259Y-42278333D01*
X151384259Y-42278333D02*
X151460450Y-42202143D01*
X151460450Y-42202143D02*
X151498545Y-42087857D01*
X151498545Y-42087857D02*
X151498545Y-42011666D01*
X151498545Y-42011666D02*
X151460450Y-41897381D01*
X151460450Y-41897381D02*
X151422354Y-41859285D01*
X151422354Y-41859285D02*
X151155688Y-41859285D01*
X151155688Y-41859285D02*
X151155688Y-42011666D01*
X151498545Y-41516428D02*
X150698545Y-41516428D01*
X150698545Y-41516428D02*
X150698545Y-41211666D01*
X150698545Y-41211666D02*
X150736640Y-41135476D01*
X150736640Y-41135476D02*
X150774735Y-41097381D01*
X150774735Y-41097381D02*
X150850926Y-41059285D01*
X150850926Y-41059285D02*
X150965211Y-41059285D01*
X150965211Y-41059285D02*
X151041402Y-41097381D01*
X151041402Y-41097381D02*
X151079497Y-41135476D01*
X151079497Y-41135476D02*
X151117592Y-41211666D01*
X151117592Y-41211666D02*
X151117592Y-41516428D01*
X151498545Y-40297381D02*
X151498545Y-40754524D01*
X151498545Y-40525952D02*
X150698545Y-40525952D01*
X150698545Y-40525952D02*
X150812830Y-40602143D01*
X150812830Y-40602143D02*
X150889021Y-40678333D01*
X150889021Y-40678333D02*
X150927116Y-40754524D01*
X151041402Y-39840238D02*
X151003307Y-39916428D01*
X151003307Y-39916428D02*
X150965211Y-39954523D01*
X150965211Y-39954523D02*
X150889021Y-39992619D01*
X150889021Y-39992619D02*
X150850926Y-39992619D01*
X150850926Y-39992619D02*
X150774735Y-39954523D01*
X150774735Y-39954523D02*
X150736640Y-39916428D01*
X150736640Y-39916428D02*
X150698545Y-39840238D01*
X150698545Y-39840238D02*
X150698545Y-39687857D01*
X150698545Y-39687857D02*
X150736640Y-39611666D01*
X150736640Y-39611666D02*
X150774735Y-39573571D01*
X150774735Y-39573571D02*
X150850926Y-39535476D01*
X150850926Y-39535476D02*
X150889021Y-39535476D01*
X150889021Y-39535476D02*
X150965211Y-39573571D01*
X150965211Y-39573571D02*
X151003307Y-39611666D01*
X151003307Y-39611666D02*
X151041402Y-39687857D01*
X151041402Y-39687857D02*
X151041402Y-39840238D01*
X151041402Y-39840238D02*
X151079497Y-39916428D01*
X151079497Y-39916428D02*
X151117592Y-39954523D01*
X151117592Y-39954523D02*
X151193783Y-39992619D01*
X151193783Y-39992619D02*
X151346164Y-39992619D01*
X151346164Y-39992619D02*
X151422354Y-39954523D01*
X151422354Y-39954523D02*
X151460450Y-39916428D01*
X151460450Y-39916428D02*
X151498545Y-39840238D01*
X151498545Y-39840238D02*
X151498545Y-39687857D01*
X151498545Y-39687857D02*
X151460450Y-39611666D01*
X151460450Y-39611666D02*
X151422354Y-39573571D01*
X151422354Y-39573571D02*
X151346164Y-39535476D01*
X151346164Y-39535476D02*
X151193783Y-39535476D01*
X151193783Y-39535476D02*
X151117592Y-39573571D01*
X151117592Y-39573571D02*
X151079497Y-39611666D01*
X151079497Y-39611666D02*
X151041402Y-39687857D01*
X132926640Y-53096428D02*
X132888545Y-53172618D01*
X132888545Y-53172618D02*
X132888545Y-53286904D01*
X132888545Y-53286904D02*
X132926640Y-53401190D01*
X132926640Y-53401190D02*
X133002830Y-53477380D01*
X133002830Y-53477380D02*
X133079021Y-53515475D01*
X133079021Y-53515475D02*
X133231402Y-53553571D01*
X133231402Y-53553571D02*
X133345688Y-53553571D01*
X133345688Y-53553571D02*
X133498069Y-53515475D01*
X133498069Y-53515475D02*
X133574259Y-53477380D01*
X133574259Y-53477380D02*
X133650450Y-53401190D01*
X133650450Y-53401190D02*
X133688545Y-53286904D01*
X133688545Y-53286904D02*
X133688545Y-53210713D01*
X133688545Y-53210713D02*
X133650450Y-53096428D01*
X133650450Y-53096428D02*
X133612354Y-53058332D01*
X133612354Y-53058332D02*
X133345688Y-53058332D01*
X133345688Y-53058332D02*
X133345688Y-53210713D01*
X133688545Y-52715475D02*
X132888545Y-52715475D01*
X132888545Y-52715475D02*
X132888545Y-52410713D01*
X132888545Y-52410713D02*
X132926640Y-52334523D01*
X132926640Y-52334523D02*
X132964735Y-52296428D01*
X132964735Y-52296428D02*
X133040926Y-52258332D01*
X133040926Y-52258332D02*
X133155211Y-52258332D01*
X133155211Y-52258332D02*
X133231402Y-52296428D01*
X133231402Y-52296428D02*
X133269497Y-52334523D01*
X133269497Y-52334523D02*
X133307592Y-52410713D01*
X133307592Y-52410713D02*
X133307592Y-52715475D01*
X132888545Y-51991666D02*
X132888545Y-51458332D01*
X132888545Y-51458332D02*
X133688545Y-51801190D01*
X145656640Y-41897381D02*
X145618545Y-41973571D01*
X145618545Y-41973571D02*
X145618545Y-42087857D01*
X145618545Y-42087857D02*
X145656640Y-42202143D01*
X145656640Y-42202143D02*
X145732830Y-42278333D01*
X145732830Y-42278333D02*
X145809021Y-42316428D01*
X145809021Y-42316428D02*
X145961402Y-42354524D01*
X145961402Y-42354524D02*
X146075688Y-42354524D01*
X146075688Y-42354524D02*
X146228069Y-42316428D01*
X146228069Y-42316428D02*
X146304259Y-42278333D01*
X146304259Y-42278333D02*
X146380450Y-42202143D01*
X146380450Y-42202143D02*
X146418545Y-42087857D01*
X146418545Y-42087857D02*
X146418545Y-42011666D01*
X146418545Y-42011666D02*
X146380450Y-41897381D01*
X146380450Y-41897381D02*
X146342354Y-41859285D01*
X146342354Y-41859285D02*
X146075688Y-41859285D01*
X146075688Y-41859285D02*
X146075688Y-42011666D01*
X146418545Y-41516428D02*
X145618545Y-41516428D01*
X145618545Y-41516428D02*
X145618545Y-41211666D01*
X145618545Y-41211666D02*
X145656640Y-41135476D01*
X145656640Y-41135476D02*
X145694735Y-41097381D01*
X145694735Y-41097381D02*
X145770926Y-41059285D01*
X145770926Y-41059285D02*
X145885211Y-41059285D01*
X145885211Y-41059285D02*
X145961402Y-41097381D01*
X145961402Y-41097381D02*
X145999497Y-41135476D01*
X145999497Y-41135476D02*
X146037592Y-41211666D01*
X146037592Y-41211666D02*
X146037592Y-41516428D01*
X145694735Y-40754524D02*
X145656640Y-40716428D01*
X145656640Y-40716428D02*
X145618545Y-40640238D01*
X145618545Y-40640238D02*
X145618545Y-40449762D01*
X145618545Y-40449762D02*
X145656640Y-40373571D01*
X145656640Y-40373571D02*
X145694735Y-40335476D01*
X145694735Y-40335476D02*
X145770926Y-40297381D01*
X145770926Y-40297381D02*
X145847116Y-40297381D01*
X145847116Y-40297381D02*
X145961402Y-40335476D01*
X145961402Y-40335476D02*
X146418545Y-40792619D01*
X146418545Y-40792619D02*
X146418545Y-40297381D01*
X145618545Y-39802142D02*
X145618545Y-39725952D01*
X145618545Y-39725952D02*
X145656640Y-39649761D01*
X145656640Y-39649761D02*
X145694735Y-39611666D01*
X145694735Y-39611666D02*
X145770926Y-39573571D01*
X145770926Y-39573571D02*
X145923307Y-39535476D01*
X145923307Y-39535476D02*
X146113783Y-39535476D01*
X146113783Y-39535476D02*
X146266164Y-39573571D01*
X146266164Y-39573571D02*
X146342354Y-39611666D01*
X146342354Y-39611666D02*
X146380450Y-39649761D01*
X146380450Y-39649761D02*
X146418545Y-39725952D01*
X146418545Y-39725952D02*
X146418545Y-39802142D01*
X146418545Y-39802142D02*
X146380450Y-39878333D01*
X146380450Y-39878333D02*
X146342354Y-39916428D01*
X146342354Y-39916428D02*
X146266164Y-39954523D01*
X146266164Y-39954523D02*
X146113783Y-39992619D01*
X146113783Y-39992619D02*
X145923307Y-39992619D01*
X145923307Y-39992619D02*
X145770926Y-39954523D01*
X145770926Y-39954523D02*
X145694735Y-39916428D01*
X145694735Y-39916428D02*
X145656640Y-39878333D01*
X145656640Y-39878333D02*
X145618545Y-39802142D01*
X136258545Y-41185475D02*
X135877592Y-41452142D01*
X136258545Y-41642618D02*
X135458545Y-41642618D01*
X135458545Y-41642618D02*
X135458545Y-41337856D01*
X135458545Y-41337856D02*
X135496640Y-41261666D01*
X135496640Y-41261666D02*
X135534735Y-41223571D01*
X135534735Y-41223571D02*
X135610926Y-41185475D01*
X135610926Y-41185475D02*
X135725211Y-41185475D01*
X135725211Y-41185475D02*
X135801402Y-41223571D01*
X135801402Y-41223571D02*
X135839497Y-41261666D01*
X135839497Y-41261666D02*
X135877592Y-41337856D01*
X135877592Y-41337856D02*
X135877592Y-41642618D01*
X135458545Y-40842618D02*
X136106164Y-40842618D01*
X136106164Y-40842618D02*
X136182354Y-40804523D01*
X136182354Y-40804523D02*
X136220450Y-40766428D01*
X136220450Y-40766428D02*
X136258545Y-40690237D01*
X136258545Y-40690237D02*
X136258545Y-40537856D01*
X136258545Y-40537856D02*
X136220450Y-40461666D01*
X136220450Y-40461666D02*
X136182354Y-40423571D01*
X136182354Y-40423571D02*
X136106164Y-40385475D01*
X136106164Y-40385475D02*
X135458545Y-40385475D01*
X136258545Y-40004523D02*
X135458545Y-40004523D01*
X135458545Y-40004523D02*
X136258545Y-39547380D01*
X136258545Y-39547380D02*
X135458545Y-39547380D01*
X155816640Y-41897381D02*
X155778545Y-41973571D01*
X155778545Y-41973571D02*
X155778545Y-42087857D01*
X155778545Y-42087857D02*
X155816640Y-42202143D01*
X155816640Y-42202143D02*
X155892830Y-42278333D01*
X155892830Y-42278333D02*
X155969021Y-42316428D01*
X155969021Y-42316428D02*
X156121402Y-42354524D01*
X156121402Y-42354524D02*
X156235688Y-42354524D01*
X156235688Y-42354524D02*
X156388069Y-42316428D01*
X156388069Y-42316428D02*
X156464259Y-42278333D01*
X156464259Y-42278333D02*
X156540450Y-42202143D01*
X156540450Y-42202143D02*
X156578545Y-42087857D01*
X156578545Y-42087857D02*
X156578545Y-42011666D01*
X156578545Y-42011666D02*
X156540450Y-41897381D01*
X156540450Y-41897381D02*
X156502354Y-41859285D01*
X156502354Y-41859285D02*
X156235688Y-41859285D01*
X156235688Y-41859285D02*
X156235688Y-42011666D01*
X156578545Y-41516428D02*
X155778545Y-41516428D01*
X155778545Y-41516428D02*
X155778545Y-41211666D01*
X155778545Y-41211666D02*
X155816640Y-41135476D01*
X155816640Y-41135476D02*
X155854735Y-41097381D01*
X155854735Y-41097381D02*
X155930926Y-41059285D01*
X155930926Y-41059285D02*
X156045211Y-41059285D01*
X156045211Y-41059285D02*
X156121402Y-41097381D01*
X156121402Y-41097381D02*
X156159497Y-41135476D01*
X156159497Y-41135476D02*
X156197592Y-41211666D01*
X156197592Y-41211666D02*
X156197592Y-41516428D01*
X156578545Y-40297381D02*
X156578545Y-40754524D01*
X156578545Y-40525952D02*
X155778545Y-40525952D01*
X155778545Y-40525952D02*
X155892830Y-40602143D01*
X155892830Y-40602143D02*
X155969021Y-40678333D01*
X155969021Y-40678333D02*
X156007116Y-40754524D01*
X155778545Y-40030714D02*
X155778545Y-39497380D01*
X155778545Y-39497380D02*
X156578545Y-39840238D01*
X140576640Y-41204523D02*
X140538545Y-41280713D01*
X140538545Y-41280713D02*
X140538545Y-41394999D01*
X140538545Y-41394999D02*
X140576640Y-41509285D01*
X140576640Y-41509285D02*
X140652830Y-41585475D01*
X140652830Y-41585475D02*
X140729021Y-41623570D01*
X140729021Y-41623570D02*
X140881402Y-41661666D01*
X140881402Y-41661666D02*
X140995688Y-41661666D01*
X140995688Y-41661666D02*
X141148069Y-41623570D01*
X141148069Y-41623570D02*
X141224259Y-41585475D01*
X141224259Y-41585475D02*
X141300450Y-41509285D01*
X141300450Y-41509285D02*
X141338545Y-41394999D01*
X141338545Y-41394999D02*
X141338545Y-41318808D01*
X141338545Y-41318808D02*
X141300450Y-41204523D01*
X141300450Y-41204523D02*
X141262354Y-41166427D01*
X141262354Y-41166427D02*
X140995688Y-41166427D01*
X140995688Y-41166427D02*
X140995688Y-41318808D01*
X141338545Y-40823570D02*
X140538545Y-40823570D01*
X140538545Y-40823570D02*
X141338545Y-40366427D01*
X141338545Y-40366427D02*
X140538545Y-40366427D01*
X141338545Y-39985475D02*
X140538545Y-39985475D01*
X140538545Y-39985475D02*
X140538545Y-39794999D01*
X140538545Y-39794999D02*
X140576640Y-39680713D01*
X140576640Y-39680713D02*
X140652830Y-39604523D01*
X140652830Y-39604523D02*
X140729021Y-39566428D01*
X140729021Y-39566428D02*
X140881402Y-39528332D01*
X140881402Y-39528332D02*
X140995688Y-39528332D01*
X140995688Y-39528332D02*
X141148069Y-39566428D01*
X141148069Y-39566428D02*
X141224259Y-39604523D01*
X141224259Y-39604523D02*
X141300450Y-39680713D01*
X141300450Y-39680713D02*
X141338545Y-39794999D01*
X141338545Y-39794999D02*
X141338545Y-39985475D01*
X115176640Y-41054523D02*
X115138545Y-41130713D01*
X115138545Y-41130713D02*
X115138545Y-41244999D01*
X115138545Y-41244999D02*
X115176640Y-41359285D01*
X115176640Y-41359285D02*
X115252830Y-41435475D01*
X115252830Y-41435475D02*
X115329021Y-41473570D01*
X115329021Y-41473570D02*
X115481402Y-41511666D01*
X115481402Y-41511666D02*
X115595688Y-41511666D01*
X115595688Y-41511666D02*
X115748069Y-41473570D01*
X115748069Y-41473570D02*
X115824259Y-41435475D01*
X115824259Y-41435475D02*
X115900450Y-41359285D01*
X115900450Y-41359285D02*
X115938545Y-41244999D01*
X115938545Y-41244999D02*
X115938545Y-41168808D01*
X115938545Y-41168808D02*
X115900450Y-41054523D01*
X115900450Y-41054523D02*
X115862354Y-41016427D01*
X115862354Y-41016427D02*
X115595688Y-41016427D01*
X115595688Y-41016427D02*
X115595688Y-41168808D01*
X115938545Y-40673570D02*
X115138545Y-40673570D01*
X115138545Y-40673570D02*
X115938545Y-40216427D01*
X115938545Y-40216427D02*
X115138545Y-40216427D01*
X115938545Y-39835475D02*
X115138545Y-39835475D01*
X115138545Y-39835475D02*
X115138545Y-39644999D01*
X115138545Y-39644999D02*
X115176640Y-39530713D01*
X115176640Y-39530713D02*
X115252830Y-39454523D01*
X115252830Y-39454523D02*
X115329021Y-39416428D01*
X115329021Y-39416428D02*
X115481402Y-39378332D01*
X115481402Y-39378332D02*
X115595688Y-39378332D01*
X115595688Y-39378332D02*
X115748069Y-39416428D01*
X115748069Y-39416428D02*
X115824259Y-39454523D01*
X115824259Y-39454523D02*
X115900450Y-39530713D01*
X115900450Y-39530713D02*
X115938545Y-39644999D01*
X115938545Y-39644999D02*
X115938545Y-39835475D01*
X153066725Y-49349200D02*
X153181011Y-49387295D01*
X153181011Y-49387295D02*
X153371487Y-49387295D01*
X153371487Y-49387295D02*
X153447678Y-49349200D01*
X153447678Y-49349200D02*
X153485773Y-49311104D01*
X153485773Y-49311104D02*
X153523868Y-49234914D01*
X153523868Y-49234914D02*
X153523868Y-49158723D01*
X153523868Y-49158723D02*
X153485773Y-49082533D01*
X153485773Y-49082533D02*
X153447678Y-49044438D01*
X153447678Y-49044438D02*
X153371487Y-49006342D01*
X153371487Y-49006342D02*
X153219106Y-48968247D01*
X153219106Y-48968247D02*
X153142916Y-48930152D01*
X153142916Y-48930152D02*
X153104821Y-48892057D01*
X153104821Y-48892057D02*
X153066725Y-48815866D01*
X153066725Y-48815866D02*
X153066725Y-48739676D01*
X153066725Y-48739676D02*
X153104821Y-48663485D01*
X153104821Y-48663485D02*
X153142916Y-48625390D01*
X153142916Y-48625390D02*
X153219106Y-48587295D01*
X153219106Y-48587295D02*
X153409583Y-48587295D01*
X153409583Y-48587295D02*
X153523868Y-48625390D01*
X153790535Y-48587295D02*
X153981011Y-49387295D01*
X153981011Y-49387295D02*
X154133392Y-48815866D01*
X154133392Y-48815866D02*
X154285773Y-49387295D01*
X154285773Y-49387295D02*
X154476250Y-48587295D01*
X155238155Y-49311104D02*
X155200059Y-49349200D01*
X155200059Y-49349200D02*
X155085774Y-49387295D01*
X155085774Y-49387295D02*
X155009583Y-49387295D01*
X155009583Y-49387295D02*
X154895297Y-49349200D01*
X154895297Y-49349200D02*
X154819107Y-49273009D01*
X154819107Y-49273009D02*
X154781012Y-49196819D01*
X154781012Y-49196819D02*
X154742916Y-49044438D01*
X154742916Y-49044438D02*
X154742916Y-48930152D01*
X154742916Y-48930152D02*
X154781012Y-48777771D01*
X154781012Y-48777771D02*
X154819107Y-48701580D01*
X154819107Y-48701580D02*
X154895297Y-48625390D01*
X154895297Y-48625390D02*
X155009583Y-48587295D01*
X155009583Y-48587295D02*
X155085774Y-48587295D01*
X155085774Y-48587295D02*
X155200059Y-48625390D01*
X155200059Y-48625390D02*
X155238155Y-48663485D01*
X155961964Y-49387295D02*
X155581012Y-49387295D01*
X155581012Y-49387295D02*
X155581012Y-48587295D01*
X156228631Y-49387295D02*
X156228631Y-48587295D01*
X156685774Y-49387295D02*
X156342916Y-48930152D01*
X156685774Y-48587295D02*
X156228631Y-49044438D01*
X115176640Y-53134523D02*
X115138545Y-53210713D01*
X115138545Y-53210713D02*
X115138545Y-53324999D01*
X115138545Y-53324999D02*
X115176640Y-53439285D01*
X115176640Y-53439285D02*
X115252830Y-53515475D01*
X115252830Y-53515475D02*
X115329021Y-53553570D01*
X115329021Y-53553570D02*
X115481402Y-53591666D01*
X115481402Y-53591666D02*
X115595688Y-53591666D01*
X115595688Y-53591666D02*
X115748069Y-53553570D01*
X115748069Y-53553570D02*
X115824259Y-53515475D01*
X115824259Y-53515475D02*
X115900450Y-53439285D01*
X115900450Y-53439285D02*
X115938545Y-53324999D01*
X115938545Y-53324999D02*
X115938545Y-53248808D01*
X115938545Y-53248808D02*
X115900450Y-53134523D01*
X115900450Y-53134523D02*
X115862354Y-53096427D01*
X115862354Y-53096427D02*
X115595688Y-53096427D01*
X115595688Y-53096427D02*
X115595688Y-53248808D01*
X115938545Y-52753570D02*
X115138545Y-52753570D01*
X115138545Y-52753570D02*
X115938545Y-52296427D01*
X115938545Y-52296427D02*
X115138545Y-52296427D01*
X115938545Y-51915475D02*
X115138545Y-51915475D01*
X115138545Y-51915475D02*
X115138545Y-51724999D01*
X115138545Y-51724999D02*
X115176640Y-51610713D01*
X115176640Y-51610713D02*
X115252830Y-51534523D01*
X115252830Y-51534523D02*
X115329021Y-51496428D01*
X115329021Y-51496428D02*
X115481402Y-51458332D01*
X115481402Y-51458332D02*
X115595688Y-51458332D01*
X115595688Y-51458332D02*
X115748069Y-51496428D01*
X115748069Y-51496428D02*
X115824259Y-51534523D01*
X115824259Y-51534523D02*
X115900450Y-51610713D01*
X115900450Y-51610713D02*
X115938545Y-51724999D01*
X115938545Y-51724999D02*
X115938545Y-51915475D01*
X155016726Y-46085390D02*
X154940536Y-46047295D01*
X154940536Y-46047295D02*
X154826250Y-46047295D01*
X154826250Y-46047295D02*
X154711964Y-46085390D01*
X154711964Y-46085390D02*
X154635774Y-46161580D01*
X154635774Y-46161580D02*
X154597679Y-46237771D01*
X154597679Y-46237771D02*
X154559583Y-46390152D01*
X154559583Y-46390152D02*
X154559583Y-46504438D01*
X154559583Y-46504438D02*
X154597679Y-46656819D01*
X154597679Y-46656819D02*
X154635774Y-46733009D01*
X154635774Y-46733009D02*
X154711964Y-46809200D01*
X154711964Y-46809200D02*
X154826250Y-46847295D01*
X154826250Y-46847295D02*
X154902441Y-46847295D01*
X154902441Y-46847295D02*
X155016726Y-46809200D01*
X155016726Y-46809200D02*
X155054822Y-46771104D01*
X155054822Y-46771104D02*
X155054822Y-46504438D01*
X155054822Y-46504438D02*
X154902441Y-46504438D01*
X155397679Y-46847295D02*
X155397679Y-46047295D01*
X155397679Y-46047295D02*
X155854822Y-46847295D01*
X155854822Y-46847295D02*
X155854822Y-46047295D01*
X156235774Y-46847295D02*
X156235774Y-46047295D01*
X156235774Y-46047295D02*
X156426250Y-46047295D01*
X156426250Y-46047295D02*
X156540536Y-46085390D01*
X156540536Y-46085390D02*
X156616726Y-46161580D01*
X156616726Y-46161580D02*
X156654821Y-46237771D01*
X156654821Y-46237771D02*
X156692917Y-46390152D01*
X156692917Y-46390152D02*
X156692917Y-46504438D01*
X156692917Y-46504438D02*
X156654821Y-46656819D01*
X156654821Y-46656819D02*
X156616726Y-46733009D01*
X156616726Y-46733009D02*
X156540536Y-46809200D01*
X156540536Y-46809200D02*
X156426250Y-46847295D01*
X156426250Y-46847295D02*
X156235774Y-46847295D01*
X153276640Y-41204523D02*
X153238545Y-41280713D01*
X153238545Y-41280713D02*
X153238545Y-41394999D01*
X153238545Y-41394999D02*
X153276640Y-41509285D01*
X153276640Y-41509285D02*
X153352830Y-41585475D01*
X153352830Y-41585475D02*
X153429021Y-41623570D01*
X153429021Y-41623570D02*
X153581402Y-41661666D01*
X153581402Y-41661666D02*
X153695688Y-41661666D01*
X153695688Y-41661666D02*
X153848069Y-41623570D01*
X153848069Y-41623570D02*
X153924259Y-41585475D01*
X153924259Y-41585475D02*
X154000450Y-41509285D01*
X154000450Y-41509285D02*
X154038545Y-41394999D01*
X154038545Y-41394999D02*
X154038545Y-41318808D01*
X154038545Y-41318808D02*
X154000450Y-41204523D01*
X154000450Y-41204523D02*
X153962354Y-41166427D01*
X153962354Y-41166427D02*
X153695688Y-41166427D01*
X153695688Y-41166427D02*
X153695688Y-41318808D01*
X154038545Y-40823570D02*
X153238545Y-40823570D01*
X153238545Y-40823570D02*
X154038545Y-40366427D01*
X154038545Y-40366427D02*
X153238545Y-40366427D01*
X154038545Y-39985475D02*
X153238545Y-39985475D01*
X153238545Y-39985475D02*
X153238545Y-39794999D01*
X153238545Y-39794999D02*
X153276640Y-39680713D01*
X153276640Y-39680713D02*
X153352830Y-39604523D01*
X153352830Y-39604523D02*
X153429021Y-39566428D01*
X153429021Y-39566428D02*
X153581402Y-39528332D01*
X153581402Y-39528332D02*
X153695688Y-39528332D01*
X153695688Y-39528332D02*
X153848069Y-39566428D01*
X153848069Y-39566428D02*
X153924259Y-39604523D01*
X153924259Y-39604523D02*
X154000450Y-39680713D01*
X154000450Y-39680713D02*
X154038545Y-39794999D01*
X154038545Y-39794999D02*
X154038545Y-39985475D01*
X112626640Y-53096428D02*
X112588545Y-53172618D01*
X112588545Y-53172618D02*
X112588545Y-53286904D01*
X112588545Y-53286904D02*
X112626640Y-53401190D01*
X112626640Y-53401190D02*
X112702830Y-53477380D01*
X112702830Y-53477380D02*
X112779021Y-53515475D01*
X112779021Y-53515475D02*
X112931402Y-53553571D01*
X112931402Y-53553571D02*
X113045688Y-53553571D01*
X113045688Y-53553571D02*
X113198069Y-53515475D01*
X113198069Y-53515475D02*
X113274259Y-53477380D01*
X113274259Y-53477380D02*
X113350450Y-53401190D01*
X113350450Y-53401190D02*
X113388545Y-53286904D01*
X113388545Y-53286904D02*
X113388545Y-53210713D01*
X113388545Y-53210713D02*
X113350450Y-53096428D01*
X113350450Y-53096428D02*
X113312354Y-53058332D01*
X113312354Y-53058332D02*
X113045688Y-53058332D01*
X113045688Y-53058332D02*
X113045688Y-53210713D01*
X113388545Y-52715475D02*
X112588545Y-52715475D01*
X112588545Y-52715475D02*
X112588545Y-52410713D01*
X112588545Y-52410713D02*
X112626640Y-52334523D01*
X112626640Y-52334523D02*
X112664735Y-52296428D01*
X112664735Y-52296428D02*
X112740926Y-52258332D01*
X112740926Y-52258332D02*
X112855211Y-52258332D01*
X112855211Y-52258332D02*
X112931402Y-52296428D01*
X112931402Y-52296428D02*
X112969497Y-52334523D01*
X112969497Y-52334523D02*
X113007592Y-52410713D01*
X113007592Y-52410713D02*
X113007592Y-52715475D01*
X113388545Y-51496428D02*
X113388545Y-51953571D01*
X113388545Y-51724999D02*
X112588545Y-51724999D01*
X112588545Y-51724999D02*
X112702830Y-51801190D01*
X112702830Y-51801190D02*
X112779021Y-51877380D01*
X112779021Y-51877380D02*
X112817116Y-51953571D01*
X125336640Y-41897381D02*
X125298545Y-41973571D01*
X125298545Y-41973571D02*
X125298545Y-42087857D01*
X125298545Y-42087857D02*
X125336640Y-42202143D01*
X125336640Y-42202143D02*
X125412830Y-42278333D01*
X125412830Y-42278333D02*
X125489021Y-42316428D01*
X125489021Y-42316428D02*
X125641402Y-42354524D01*
X125641402Y-42354524D02*
X125755688Y-42354524D01*
X125755688Y-42354524D02*
X125908069Y-42316428D01*
X125908069Y-42316428D02*
X125984259Y-42278333D01*
X125984259Y-42278333D02*
X126060450Y-42202143D01*
X126060450Y-42202143D02*
X126098545Y-42087857D01*
X126098545Y-42087857D02*
X126098545Y-42011666D01*
X126098545Y-42011666D02*
X126060450Y-41897381D01*
X126060450Y-41897381D02*
X126022354Y-41859285D01*
X126022354Y-41859285D02*
X125755688Y-41859285D01*
X125755688Y-41859285D02*
X125755688Y-42011666D01*
X126098545Y-41516428D02*
X125298545Y-41516428D01*
X125298545Y-41516428D02*
X125298545Y-41211666D01*
X125298545Y-41211666D02*
X125336640Y-41135476D01*
X125336640Y-41135476D02*
X125374735Y-41097381D01*
X125374735Y-41097381D02*
X125450926Y-41059285D01*
X125450926Y-41059285D02*
X125565211Y-41059285D01*
X125565211Y-41059285D02*
X125641402Y-41097381D01*
X125641402Y-41097381D02*
X125679497Y-41135476D01*
X125679497Y-41135476D02*
X125717592Y-41211666D01*
X125717592Y-41211666D02*
X125717592Y-41516428D01*
X125374735Y-40754524D02*
X125336640Y-40716428D01*
X125336640Y-40716428D02*
X125298545Y-40640238D01*
X125298545Y-40640238D02*
X125298545Y-40449762D01*
X125298545Y-40449762D02*
X125336640Y-40373571D01*
X125336640Y-40373571D02*
X125374735Y-40335476D01*
X125374735Y-40335476D02*
X125450926Y-40297381D01*
X125450926Y-40297381D02*
X125527116Y-40297381D01*
X125527116Y-40297381D02*
X125641402Y-40335476D01*
X125641402Y-40335476D02*
X126098545Y-40792619D01*
X126098545Y-40792619D02*
X126098545Y-40297381D01*
X125641402Y-39840238D02*
X125603307Y-39916428D01*
X125603307Y-39916428D02*
X125565211Y-39954523D01*
X125565211Y-39954523D02*
X125489021Y-39992619D01*
X125489021Y-39992619D02*
X125450926Y-39992619D01*
X125450926Y-39992619D02*
X125374735Y-39954523D01*
X125374735Y-39954523D02*
X125336640Y-39916428D01*
X125336640Y-39916428D02*
X125298545Y-39840238D01*
X125298545Y-39840238D02*
X125298545Y-39687857D01*
X125298545Y-39687857D02*
X125336640Y-39611666D01*
X125336640Y-39611666D02*
X125374735Y-39573571D01*
X125374735Y-39573571D02*
X125450926Y-39535476D01*
X125450926Y-39535476D02*
X125489021Y-39535476D01*
X125489021Y-39535476D02*
X125565211Y-39573571D01*
X125565211Y-39573571D02*
X125603307Y-39611666D01*
X125603307Y-39611666D02*
X125641402Y-39687857D01*
X125641402Y-39687857D02*
X125641402Y-39840238D01*
X125641402Y-39840238D02*
X125679497Y-39916428D01*
X125679497Y-39916428D02*
X125717592Y-39954523D01*
X125717592Y-39954523D02*
X125793783Y-39992619D01*
X125793783Y-39992619D02*
X125946164Y-39992619D01*
X125946164Y-39992619D02*
X126022354Y-39954523D01*
X126022354Y-39954523D02*
X126060450Y-39916428D01*
X126060450Y-39916428D02*
X126098545Y-39840238D01*
X126098545Y-39840238D02*
X126098545Y-39687857D01*
X126098545Y-39687857D02*
X126060450Y-39611666D01*
X126060450Y-39611666D02*
X126022354Y-39573571D01*
X126022354Y-39573571D02*
X125946164Y-39535476D01*
X125946164Y-39535476D02*
X125793783Y-39535476D01*
X125793783Y-39535476D02*
X125717592Y-39573571D01*
X125717592Y-39573571D02*
X125679497Y-39611666D01*
X125679497Y-39611666D02*
X125641402Y-39687857D01*
X158356640Y-53127381D02*
X158318545Y-53203571D01*
X158318545Y-53203571D02*
X158318545Y-53317857D01*
X158318545Y-53317857D02*
X158356640Y-53432143D01*
X158356640Y-53432143D02*
X158432830Y-53508333D01*
X158432830Y-53508333D02*
X158509021Y-53546428D01*
X158509021Y-53546428D02*
X158661402Y-53584524D01*
X158661402Y-53584524D02*
X158775688Y-53584524D01*
X158775688Y-53584524D02*
X158928069Y-53546428D01*
X158928069Y-53546428D02*
X159004259Y-53508333D01*
X159004259Y-53508333D02*
X159080450Y-53432143D01*
X159080450Y-53432143D02*
X159118545Y-53317857D01*
X159118545Y-53317857D02*
X159118545Y-53241666D01*
X159118545Y-53241666D02*
X159080450Y-53127381D01*
X159080450Y-53127381D02*
X159042354Y-53089285D01*
X159042354Y-53089285D02*
X158775688Y-53089285D01*
X158775688Y-53089285D02*
X158775688Y-53241666D01*
X159118545Y-52746428D02*
X158318545Y-52746428D01*
X158318545Y-52746428D02*
X158318545Y-52441666D01*
X158318545Y-52441666D02*
X158356640Y-52365476D01*
X158356640Y-52365476D02*
X158394735Y-52327381D01*
X158394735Y-52327381D02*
X158470926Y-52289285D01*
X158470926Y-52289285D02*
X158585211Y-52289285D01*
X158585211Y-52289285D02*
X158661402Y-52327381D01*
X158661402Y-52327381D02*
X158699497Y-52365476D01*
X158699497Y-52365476D02*
X158737592Y-52441666D01*
X158737592Y-52441666D02*
X158737592Y-52746428D01*
X159118545Y-51527381D02*
X159118545Y-51984524D01*
X159118545Y-51755952D02*
X158318545Y-51755952D01*
X158318545Y-51755952D02*
X158432830Y-51832143D01*
X158432830Y-51832143D02*
X158509021Y-51908333D01*
X158509021Y-51908333D02*
X158547116Y-51984524D01*
X158318545Y-50803571D02*
X158318545Y-51184523D01*
X158318545Y-51184523D02*
X158699497Y-51222619D01*
X158699497Y-51222619D02*
X158661402Y-51184523D01*
X158661402Y-51184523D02*
X158623307Y-51108333D01*
X158623307Y-51108333D02*
X158623307Y-50917857D01*
X158623307Y-50917857D02*
X158661402Y-50841666D01*
X158661402Y-50841666D02*
X158699497Y-50803571D01*
X158699497Y-50803571D02*
X158775688Y-50765476D01*
X158775688Y-50765476D02*
X158966164Y-50765476D01*
X158966164Y-50765476D02*
X159042354Y-50803571D01*
X159042354Y-50803571D02*
X159080450Y-50841666D01*
X159080450Y-50841666D02*
X159118545Y-50917857D01*
X159118545Y-50917857D02*
X159118545Y-51108333D01*
X159118545Y-51108333D02*
X159080450Y-51184523D01*
X159080450Y-51184523D02*
X159042354Y-51222619D01*
X158356640Y-41897381D02*
X158318545Y-41973571D01*
X158318545Y-41973571D02*
X158318545Y-42087857D01*
X158318545Y-42087857D02*
X158356640Y-42202143D01*
X158356640Y-42202143D02*
X158432830Y-42278333D01*
X158432830Y-42278333D02*
X158509021Y-42316428D01*
X158509021Y-42316428D02*
X158661402Y-42354524D01*
X158661402Y-42354524D02*
X158775688Y-42354524D01*
X158775688Y-42354524D02*
X158928069Y-42316428D01*
X158928069Y-42316428D02*
X159004259Y-42278333D01*
X159004259Y-42278333D02*
X159080450Y-42202143D01*
X159080450Y-42202143D02*
X159118545Y-42087857D01*
X159118545Y-42087857D02*
X159118545Y-42011666D01*
X159118545Y-42011666D02*
X159080450Y-41897381D01*
X159080450Y-41897381D02*
X159042354Y-41859285D01*
X159042354Y-41859285D02*
X158775688Y-41859285D01*
X158775688Y-41859285D02*
X158775688Y-42011666D01*
X159118545Y-41516428D02*
X158318545Y-41516428D01*
X158318545Y-41516428D02*
X158318545Y-41211666D01*
X158318545Y-41211666D02*
X158356640Y-41135476D01*
X158356640Y-41135476D02*
X158394735Y-41097381D01*
X158394735Y-41097381D02*
X158470926Y-41059285D01*
X158470926Y-41059285D02*
X158585211Y-41059285D01*
X158585211Y-41059285D02*
X158661402Y-41097381D01*
X158661402Y-41097381D02*
X158699497Y-41135476D01*
X158699497Y-41135476D02*
X158737592Y-41211666D01*
X158737592Y-41211666D02*
X158737592Y-41516428D01*
X159118545Y-40297381D02*
X159118545Y-40754524D01*
X159118545Y-40525952D02*
X158318545Y-40525952D01*
X158318545Y-40525952D02*
X158432830Y-40602143D01*
X158432830Y-40602143D02*
X158509021Y-40678333D01*
X158509021Y-40678333D02*
X158547116Y-40754524D01*
X158318545Y-39611666D02*
X158318545Y-39764047D01*
X158318545Y-39764047D02*
X158356640Y-39840238D01*
X158356640Y-39840238D02*
X158394735Y-39878333D01*
X158394735Y-39878333D02*
X158509021Y-39954523D01*
X158509021Y-39954523D02*
X158661402Y-39992619D01*
X158661402Y-39992619D02*
X158966164Y-39992619D01*
X158966164Y-39992619D02*
X159042354Y-39954523D01*
X159042354Y-39954523D02*
X159080450Y-39916428D01*
X159080450Y-39916428D02*
X159118545Y-39840238D01*
X159118545Y-39840238D02*
X159118545Y-39687857D01*
X159118545Y-39687857D02*
X159080450Y-39611666D01*
X159080450Y-39611666D02*
X159042354Y-39573571D01*
X159042354Y-39573571D02*
X158966164Y-39535476D01*
X158966164Y-39535476D02*
X158775688Y-39535476D01*
X158775688Y-39535476D02*
X158699497Y-39573571D01*
X158699497Y-39573571D02*
X158661402Y-39611666D01*
X158661402Y-39611666D02*
X158623307Y-39687857D01*
X158623307Y-39687857D02*
X158623307Y-39840238D01*
X158623307Y-39840238D02*
X158661402Y-39916428D01*
X158661402Y-39916428D02*
X158699497Y-39954523D01*
X158699497Y-39954523D02*
X158775688Y-39992619D01*
X155816640Y-53127381D02*
X155778545Y-53203571D01*
X155778545Y-53203571D02*
X155778545Y-53317857D01*
X155778545Y-53317857D02*
X155816640Y-53432143D01*
X155816640Y-53432143D02*
X155892830Y-53508333D01*
X155892830Y-53508333D02*
X155969021Y-53546428D01*
X155969021Y-53546428D02*
X156121402Y-53584524D01*
X156121402Y-53584524D02*
X156235688Y-53584524D01*
X156235688Y-53584524D02*
X156388069Y-53546428D01*
X156388069Y-53546428D02*
X156464259Y-53508333D01*
X156464259Y-53508333D02*
X156540450Y-53432143D01*
X156540450Y-53432143D02*
X156578545Y-53317857D01*
X156578545Y-53317857D02*
X156578545Y-53241666D01*
X156578545Y-53241666D02*
X156540450Y-53127381D01*
X156540450Y-53127381D02*
X156502354Y-53089285D01*
X156502354Y-53089285D02*
X156235688Y-53089285D01*
X156235688Y-53089285D02*
X156235688Y-53241666D01*
X156578545Y-52746428D02*
X155778545Y-52746428D01*
X155778545Y-52746428D02*
X155778545Y-52441666D01*
X155778545Y-52441666D02*
X155816640Y-52365476D01*
X155816640Y-52365476D02*
X155854735Y-52327381D01*
X155854735Y-52327381D02*
X155930926Y-52289285D01*
X155930926Y-52289285D02*
X156045211Y-52289285D01*
X156045211Y-52289285D02*
X156121402Y-52327381D01*
X156121402Y-52327381D02*
X156159497Y-52365476D01*
X156159497Y-52365476D02*
X156197592Y-52441666D01*
X156197592Y-52441666D02*
X156197592Y-52746428D01*
X156578545Y-51527381D02*
X156578545Y-51984524D01*
X156578545Y-51755952D02*
X155778545Y-51755952D01*
X155778545Y-51755952D02*
X155892830Y-51832143D01*
X155892830Y-51832143D02*
X155969021Y-51908333D01*
X155969021Y-51908333D02*
X156007116Y-51984524D01*
X156045211Y-50841666D02*
X156578545Y-50841666D01*
X155740450Y-51032142D02*
X156311878Y-51222619D01*
X156311878Y-51222619D02*
X156311878Y-50727380D01*
X138036640Y-41897381D02*
X137998545Y-41973571D01*
X137998545Y-41973571D02*
X137998545Y-42087857D01*
X137998545Y-42087857D02*
X138036640Y-42202143D01*
X138036640Y-42202143D02*
X138112830Y-42278333D01*
X138112830Y-42278333D02*
X138189021Y-42316428D01*
X138189021Y-42316428D02*
X138341402Y-42354524D01*
X138341402Y-42354524D02*
X138455688Y-42354524D01*
X138455688Y-42354524D02*
X138608069Y-42316428D01*
X138608069Y-42316428D02*
X138684259Y-42278333D01*
X138684259Y-42278333D02*
X138760450Y-42202143D01*
X138760450Y-42202143D02*
X138798545Y-42087857D01*
X138798545Y-42087857D02*
X138798545Y-42011666D01*
X138798545Y-42011666D02*
X138760450Y-41897381D01*
X138760450Y-41897381D02*
X138722354Y-41859285D01*
X138722354Y-41859285D02*
X138455688Y-41859285D01*
X138455688Y-41859285D02*
X138455688Y-42011666D01*
X138798545Y-41516428D02*
X137998545Y-41516428D01*
X137998545Y-41516428D02*
X137998545Y-41211666D01*
X137998545Y-41211666D02*
X138036640Y-41135476D01*
X138036640Y-41135476D02*
X138074735Y-41097381D01*
X138074735Y-41097381D02*
X138150926Y-41059285D01*
X138150926Y-41059285D02*
X138265211Y-41059285D01*
X138265211Y-41059285D02*
X138341402Y-41097381D01*
X138341402Y-41097381D02*
X138379497Y-41135476D01*
X138379497Y-41135476D02*
X138417592Y-41211666D01*
X138417592Y-41211666D02*
X138417592Y-41516428D01*
X138074735Y-40754524D02*
X138036640Y-40716428D01*
X138036640Y-40716428D02*
X137998545Y-40640238D01*
X137998545Y-40640238D02*
X137998545Y-40449762D01*
X137998545Y-40449762D02*
X138036640Y-40373571D01*
X138036640Y-40373571D02*
X138074735Y-40335476D01*
X138074735Y-40335476D02*
X138150926Y-40297381D01*
X138150926Y-40297381D02*
X138227116Y-40297381D01*
X138227116Y-40297381D02*
X138341402Y-40335476D01*
X138341402Y-40335476D02*
X138798545Y-40792619D01*
X138798545Y-40792619D02*
X138798545Y-40297381D01*
X138074735Y-39992619D02*
X138036640Y-39954523D01*
X138036640Y-39954523D02*
X137998545Y-39878333D01*
X137998545Y-39878333D02*
X137998545Y-39687857D01*
X137998545Y-39687857D02*
X138036640Y-39611666D01*
X138036640Y-39611666D02*
X138074735Y-39573571D01*
X138074735Y-39573571D02*
X138150926Y-39535476D01*
X138150926Y-39535476D02*
X138227116Y-39535476D01*
X138227116Y-39535476D02*
X138341402Y-39573571D01*
X138341402Y-39573571D02*
X138798545Y-40030714D01*
X138798545Y-40030714D02*
X138798545Y-39535476D01*
X140576640Y-53134523D02*
X140538545Y-53210713D01*
X140538545Y-53210713D02*
X140538545Y-53324999D01*
X140538545Y-53324999D02*
X140576640Y-53439285D01*
X140576640Y-53439285D02*
X140652830Y-53515475D01*
X140652830Y-53515475D02*
X140729021Y-53553570D01*
X140729021Y-53553570D02*
X140881402Y-53591666D01*
X140881402Y-53591666D02*
X140995688Y-53591666D01*
X140995688Y-53591666D02*
X141148069Y-53553570D01*
X141148069Y-53553570D02*
X141224259Y-53515475D01*
X141224259Y-53515475D02*
X141300450Y-53439285D01*
X141300450Y-53439285D02*
X141338545Y-53324999D01*
X141338545Y-53324999D02*
X141338545Y-53248808D01*
X141338545Y-53248808D02*
X141300450Y-53134523D01*
X141300450Y-53134523D02*
X141262354Y-53096427D01*
X141262354Y-53096427D02*
X140995688Y-53096427D01*
X140995688Y-53096427D02*
X140995688Y-53248808D01*
X141338545Y-52753570D02*
X140538545Y-52753570D01*
X140538545Y-52753570D02*
X141338545Y-52296427D01*
X141338545Y-52296427D02*
X140538545Y-52296427D01*
X141338545Y-51915475D02*
X140538545Y-51915475D01*
X140538545Y-51915475D02*
X140538545Y-51724999D01*
X140538545Y-51724999D02*
X140576640Y-51610713D01*
X140576640Y-51610713D02*
X140652830Y-51534523D01*
X140652830Y-51534523D02*
X140729021Y-51496428D01*
X140729021Y-51496428D02*
X140881402Y-51458332D01*
X140881402Y-51458332D02*
X140995688Y-51458332D01*
X140995688Y-51458332D02*
X141148069Y-51496428D01*
X141148069Y-51496428D02*
X141224259Y-51534523D01*
X141224259Y-51534523D02*
X141300450Y-51610713D01*
X141300450Y-51610713D02*
X141338545Y-51724999D01*
X141338545Y-51724999D02*
X141338545Y-51915475D01*
X120256640Y-53096428D02*
X120218545Y-53172618D01*
X120218545Y-53172618D02*
X120218545Y-53286904D01*
X120218545Y-53286904D02*
X120256640Y-53401190D01*
X120256640Y-53401190D02*
X120332830Y-53477380D01*
X120332830Y-53477380D02*
X120409021Y-53515475D01*
X120409021Y-53515475D02*
X120561402Y-53553571D01*
X120561402Y-53553571D02*
X120675688Y-53553571D01*
X120675688Y-53553571D02*
X120828069Y-53515475D01*
X120828069Y-53515475D02*
X120904259Y-53477380D01*
X120904259Y-53477380D02*
X120980450Y-53401190D01*
X120980450Y-53401190D02*
X121018545Y-53286904D01*
X121018545Y-53286904D02*
X121018545Y-53210713D01*
X121018545Y-53210713D02*
X120980450Y-53096428D01*
X120980450Y-53096428D02*
X120942354Y-53058332D01*
X120942354Y-53058332D02*
X120675688Y-53058332D01*
X120675688Y-53058332D02*
X120675688Y-53210713D01*
X121018545Y-52715475D02*
X120218545Y-52715475D01*
X120218545Y-52715475D02*
X120218545Y-52410713D01*
X120218545Y-52410713D02*
X120256640Y-52334523D01*
X120256640Y-52334523D02*
X120294735Y-52296428D01*
X120294735Y-52296428D02*
X120370926Y-52258332D01*
X120370926Y-52258332D02*
X120485211Y-52258332D01*
X120485211Y-52258332D02*
X120561402Y-52296428D01*
X120561402Y-52296428D02*
X120599497Y-52334523D01*
X120599497Y-52334523D02*
X120637592Y-52410713D01*
X120637592Y-52410713D02*
X120637592Y-52715475D01*
X120218545Y-51991666D02*
X120218545Y-51496428D01*
X120218545Y-51496428D02*
X120523307Y-51763094D01*
X120523307Y-51763094D02*
X120523307Y-51648809D01*
X120523307Y-51648809D02*
X120561402Y-51572618D01*
X120561402Y-51572618D02*
X120599497Y-51534523D01*
X120599497Y-51534523D02*
X120675688Y-51496428D01*
X120675688Y-51496428D02*
X120866164Y-51496428D01*
X120866164Y-51496428D02*
X120942354Y-51534523D01*
X120942354Y-51534523D02*
X120980450Y-51572618D01*
X120980450Y-51572618D02*
X121018545Y-51648809D01*
X121018545Y-51648809D02*
X121018545Y-51877380D01*
X121018545Y-51877380D02*
X120980450Y-51953571D01*
X120980450Y-51953571D02*
X120942354Y-51991666D01*
X153276640Y-53134523D02*
X153238545Y-53210713D01*
X153238545Y-53210713D02*
X153238545Y-53324999D01*
X153238545Y-53324999D02*
X153276640Y-53439285D01*
X153276640Y-53439285D02*
X153352830Y-53515475D01*
X153352830Y-53515475D02*
X153429021Y-53553570D01*
X153429021Y-53553570D02*
X153581402Y-53591666D01*
X153581402Y-53591666D02*
X153695688Y-53591666D01*
X153695688Y-53591666D02*
X153848069Y-53553570D01*
X153848069Y-53553570D02*
X153924259Y-53515475D01*
X153924259Y-53515475D02*
X154000450Y-53439285D01*
X154000450Y-53439285D02*
X154038545Y-53324999D01*
X154038545Y-53324999D02*
X154038545Y-53248808D01*
X154038545Y-53248808D02*
X154000450Y-53134523D01*
X154000450Y-53134523D02*
X153962354Y-53096427D01*
X153962354Y-53096427D02*
X153695688Y-53096427D01*
X153695688Y-53096427D02*
X153695688Y-53248808D01*
X154038545Y-52753570D02*
X153238545Y-52753570D01*
X153238545Y-52753570D02*
X154038545Y-52296427D01*
X154038545Y-52296427D02*
X153238545Y-52296427D01*
X154038545Y-51915475D02*
X153238545Y-51915475D01*
X153238545Y-51915475D02*
X153238545Y-51724999D01*
X153238545Y-51724999D02*
X153276640Y-51610713D01*
X153276640Y-51610713D02*
X153352830Y-51534523D01*
X153352830Y-51534523D02*
X153429021Y-51496428D01*
X153429021Y-51496428D02*
X153581402Y-51458332D01*
X153581402Y-51458332D02*
X153695688Y-51458332D01*
X153695688Y-51458332D02*
X153848069Y-51496428D01*
X153848069Y-51496428D02*
X153924259Y-51534523D01*
X153924259Y-51534523D02*
X154000450Y-51610713D01*
X154000450Y-51610713D02*
X154038545Y-51724999D01*
X154038545Y-51724999D02*
X154038545Y-51915475D01*
X150533095Y-66832200D02*
X150675952Y-66879819D01*
X150675952Y-66879819D02*
X150914047Y-66879819D01*
X150914047Y-66879819D02*
X151009285Y-66832200D01*
X151009285Y-66832200D02*
X151056904Y-66784580D01*
X151056904Y-66784580D02*
X151104523Y-66689342D01*
X151104523Y-66689342D02*
X151104523Y-66594104D01*
X151104523Y-66594104D02*
X151056904Y-66498866D01*
X151056904Y-66498866D02*
X151009285Y-66451247D01*
X151009285Y-66451247D02*
X150914047Y-66403628D01*
X150914047Y-66403628D02*
X150723571Y-66356009D01*
X150723571Y-66356009D02*
X150628333Y-66308390D01*
X150628333Y-66308390D02*
X150580714Y-66260771D01*
X150580714Y-66260771D02*
X150533095Y-66165533D01*
X150533095Y-66165533D02*
X150533095Y-66070295D01*
X150533095Y-66070295D02*
X150580714Y-65975057D01*
X150580714Y-65975057D02*
X150628333Y-65927438D01*
X150628333Y-65927438D02*
X150723571Y-65879819D01*
X150723571Y-65879819D02*
X150961666Y-65879819D01*
X150961666Y-65879819D02*
X151104523Y-65927438D01*
X151437857Y-65879819D02*
X152056904Y-65879819D01*
X152056904Y-65879819D02*
X151723571Y-66260771D01*
X151723571Y-66260771D02*
X151866428Y-66260771D01*
X151866428Y-66260771D02*
X151961666Y-66308390D01*
X151961666Y-66308390D02*
X152009285Y-66356009D01*
X152009285Y-66356009D02*
X152056904Y-66451247D01*
X152056904Y-66451247D02*
X152056904Y-66689342D01*
X152056904Y-66689342D02*
X152009285Y-66784580D01*
X152009285Y-66784580D02*
X151961666Y-66832200D01*
X151961666Y-66832200D02*
X151866428Y-66879819D01*
X151866428Y-66879819D02*
X151580714Y-66879819D01*
X151580714Y-66879819D02*
X151485476Y-66832200D01*
X151485476Y-66832200D02*
X151437857Y-66784580D01*
X131483095Y-104932200D02*
X131625952Y-104979819D01*
X131625952Y-104979819D02*
X131864047Y-104979819D01*
X131864047Y-104979819D02*
X131959285Y-104932200D01*
X131959285Y-104932200D02*
X132006904Y-104884580D01*
X132006904Y-104884580D02*
X132054523Y-104789342D01*
X132054523Y-104789342D02*
X132054523Y-104694104D01*
X132054523Y-104694104D02*
X132006904Y-104598866D01*
X132006904Y-104598866D02*
X131959285Y-104551247D01*
X131959285Y-104551247D02*
X131864047Y-104503628D01*
X131864047Y-104503628D02*
X131673571Y-104456009D01*
X131673571Y-104456009D02*
X131578333Y-104408390D01*
X131578333Y-104408390D02*
X131530714Y-104360771D01*
X131530714Y-104360771D02*
X131483095Y-104265533D01*
X131483095Y-104265533D02*
X131483095Y-104170295D01*
X131483095Y-104170295D02*
X131530714Y-104075057D01*
X131530714Y-104075057D02*
X131578333Y-104027438D01*
X131578333Y-104027438D02*
X131673571Y-103979819D01*
X131673571Y-103979819D02*
X131911666Y-103979819D01*
X131911666Y-103979819D02*
X132054523Y-104027438D01*
X132625952Y-104408390D02*
X132530714Y-104360771D01*
X132530714Y-104360771D02*
X132483095Y-104313152D01*
X132483095Y-104313152D02*
X132435476Y-104217914D01*
X132435476Y-104217914D02*
X132435476Y-104170295D01*
X132435476Y-104170295D02*
X132483095Y-104075057D01*
X132483095Y-104075057D02*
X132530714Y-104027438D01*
X132530714Y-104027438D02*
X132625952Y-103979819D01*
X132625952Y-103979819D02*
X132816428Y-103979819D01*
X132816428Y-103979819D02*
X132911666Y-104027438D01*
X132911666Y-104027438D02*
X132959285Y-104075057D01*
X132959285Y-104075057D02*
X133006904Y-104170295D01*
X133006904Y-104170295D02*
X133006904Y-104217914D01*
X133006904Y-104217914D02*
X132959285Y-104313152D01*
X132959285Y-104313152D02*
X132911666Y-104360771D01*
X132911666Y-104360771D02*
X132816428Y-104408390D01*
X132816428Y-104408390D02*
X132625952Y-104408390D01*
X132625952Y-104408390D02*
X132530714Y-104456009D01*
X132530714Y-104456009D02*
X132483095Y-104503628D01*
X132483095Y-104503628D02*
X132435476Y-104598866D01*
X132435476Y-104598866D02*
X132435476Y-104789342D01*
X132435476Y-104789342D02*
X132483095Y-104884580D01*
X132483095Y-104884580D02*
X132530714Y-104932200D01*
X132530714Y-104932200D02*
X132625952Y-104979819D01*
X132625952Y-104979819D02*
X132816428Y-104979819D01*
X132816428Y-104979819D02*
X132911666Y-104932200D01*
X132911666Y-104932200D02*
X132959285Y-104884580D01*
X132959285Y-104884580D02*
X133006904Y-104789342D01*
X133006904Y-104789342D02*
X133006904Y-104598866D01*
X133006904Y-104598866D02*
X132959285Y-104503628D01*
X132959285Y-104503628D02*
X132911666Y-104456009D01*
X132911666Y-104456009D02*
X132816428Y-104408390D01*
X164845417Y-38163450D02*
X164988274Y-38211069D01*
X164988274Y-38211069D02*
X165226369Y-38211069D01*
X165226369Y-38211069D02*
X165321607Y-38163450D01*
X165321607Y-38163450D02*
X165369226Y-38115830D01*
X165369226Y-38115830D02*
X165416845Y-38020592D01*
X165416845Y-38020592D02*
X165416845Y-37925354D01*
X165416845Y-37925354D02*
X165369226Y-37830116D01*
X165369226Y-37830116D02*
X165321607Y-37782497D01*
X165321607Y-37782497D02*
X165226369Y-37734878D01*
X165226369Y-37734878D02*
X165035893Y-37687259D01*
X165035893Y-37687259D02*
X164940655Y-37639640D01*
X164940655Y-37639640D02*
X164893036Y-37592021D01*
X164893036Y-37592021D02*
X164845417Y-37496783D01*
X164845417Y-37496783D02*
X164845417Y-37401545D01*
X164845417Y-37401545D02*
X164893036Y-37306307D01*
X164893036Y-37306307D02*
X164940655Y-37258688D01*
X164940655Y-37258688D02*
X165035893Y-37211069D01*
X165035893Y-37211069D02*
X165273988Y-37211069D01*
X165273988Y-37211069D02*
X165416845Y-37258688D01*
X165750179Y-37211069D02*
X165988274Y-38211069D01*
X165988274Y-38211069D02*
X166178750Y-37496783D01*
X166178750Y-37496783D02*
X166369226Y-38211069D01*
X166369226Y-38211069D02*
X166607322Y-37211069D01*
X167512083Y-38211069D02*
X166940655Y-38211069D01*
X167226369Y-38211069D02*
X167226369Y-37211069D01*
X167226369Y-37211069D02*
X167131131Y-37353926D01*
X167131131Y-37353926D02*
X167035893Y-37449164D01*
X167035893Y-37449164D02*
X166940655Y-37496783D01*
D11*
%TO.C,S7*%
X106095000Y-105425000D02*
X106095000Y-119625000D01*
X106095000Y-119625000D02*
X120295000Y-119625000D01*
X120295000Y-105425000D02*
X106095000Y-105425000D01*
X120295000Y-119625000D02*
X120295000Y-105425000D01*
%TO.C,S1*%
X106095000Y-67325000D02*
X106095000Y-81525000D01*
X106095000Y-81525000D02*
X120295000Y-81525000D01*
X120295000Y-67325000D02*
X106095000Y-67325000D01*
X120295000Y-81525000D02*
X120295000Y-67325000D01*
%TO.C,S6*%
X144195000Y-86375000D02*
X144195000Y-100575000D01*
X144195000Y-100575000D02*
X158395000Y-100575000D01*
X158395000Y-86375000D02*
X144195000Y-86375000D01*
X158395000Y-100575000D02*
X158395000Y-86375000D01*
%TO.C,S5*%
X125145000Y-86375000D02*
X125145000Y-100575000D01*
X125145000Y-100575000D02*
X139345000Y-100575000D01*
X139345000Y-86375000D02*
X125145000Y-86375000D01*
X139345000Y-100575000D02*
X139345000Y-86375000D01*
%TO.C,S2*%
X125145000Y-67325000D02*
X125145000Y-81525000D01*
X125145000Y-81525000D02*
X139345000Y-81525000D01*
X139345000Y-67325000D02*
X125145000Y-67325000D01*
X139345000Y-81525000D02*
X139345000Y-67325000D01*
%TO.C,SW2*%
X92291250Y-38846250D02*
X96901250Y-38846250D01*
X92291250Y-41556250D02*
X92291250Y-38846250D01*
X92291250Y-46556250D02*
X92291250Y-43756250D01*
X92291250Y-51456250D02*
X92291250Y-48756250D01*
X96901250Y-51456250D02*
X92291250Y-51456250D01*
X101301250Y-38846250D02*
X105911250Y-38846250D01*
X105911250Y-41806250D02*
X105911250Y-38846250D01*
X105911250Y-44306250D02*
X105911250Y-43506250D01*
X105911250Y-46606250D02*
X105911250Y-46006250D01*
X105911250Y-48706250D02*
X105911250Y-51466250D01*
X105911250Y-51466250D02*
X101301250Y-51466250D01*
%TO.C,S9*%
X144195000Y-105425000D02*
X144195000Y-119625000D01*
X144195000Y-119625000D02*
X158395000Y-119625000D01*
X158395000Y-105425000D02*
X144195000Y-105425000D01*
X158395000Y-119625000D02*
X158395000Y-105425000D01*
%TO.C,S4*%
X106095000Y-86375000D02*
X106095000Y-100575000D01*
X106095000Y-100575000D02*
X120295000Y-100575000D01*
X120295000Y-86375000D02*
X106095000Y-86375000D01*
X120295000Y-100575000D02*
X120295000Y-86375000D01*
D10*
%TO.C,U1*%
X109126250Y-35985000D02*
X160126250Y-35985000D01*
X109126250Y-56985000D02*
X109126250Y-35985000D01*
X109126250Y-56985000D02*
X160126250Y-56985000D01*
X111793250Y-53978000D02*
X109126250Y-53978000D01*
X111793250Y-56985000D02*
X111793250Y-53978000D01*
X160126250Y-35985000D02*
X160126250Y-56985000D01*
D11*
%TO.C,S3*%
X144195000Y-67325000D02*
X144195000Y-81525000D01*
X144195000Y-81525000D02*
X158395000Y-81525000D01*
X158395000Y-67325000D02*
X144195000Y-67325000D01*
X158395000Y-81525000D02*
X158395000Y-67325000D01*
%TO.C,S8*%
X125145000Y-105425000D02*
X125145000Y-119625000D01*
X125145000Y-119625000D02*
X139345000Y-119625000D01*
X139345000Y-105425000D02*
X125145000Y-105425000D01*
X139345000Y-119625000D02*
X139345000Y-105425000D01*
%TO.C,SW1*%
X163868750Y-38696250D02*
X168478750Y-38696250D01*
X163868750Y-41456250D02*
X163868750Y-38696250D01*
X163868750Y-43556250D02*
X163868750Y-44156250D01*
X163868750Y-45856250D02*
X163868750Y-46656250D01*
X163868750Y-48356250D02*
X163868750Y-51316250D01*
X168478750Y-51316250D02*
X163868750Y-51316250D01*
X172878750Y-38706250D02*
X177488750Y-38706250D01*
X177488750Y-38706250D02*
X177488750Y-41406250D01*
X177488750Y-43606250D02*
X177488750Y-46406250D01*
X177488750Y-48606250D02*
X177488750Y-51316250D01*
X177488750Y-51316250D02*
X172878750Y-51316250D01*
%TD*%
M02*
