%TF.GenerationSoftware,KiCad,Pcbnew,8.0.5*%
%TF.CreationDate,2024-11-06T13:26:22-05:00*%
%TF.ProjectId,MacroPad,4d616372-6f50-4616-942e-6b696361645f,rev?*%
%TF.SameCoordinates,Original*%
%TF.FileFunction,Legend,Bot*%
%TF.FilePolarity,Positive*%
%FSLAX46Y46*%
G04 Gerber Fmt 4.6, Leading zero omitted, Abs format (unit mm)*
G04 Created by KiCad (PCBNEW 8.0.5) date 2024-11-06 13:26:22*
%MOMM*%
%LPD*%
G01*
G04 APERTURE LIST*
%ADD10C,0.150000*%
%ADD11C,0.100000*%
G04 APERTURE END LIST*
D10*
X117678545Y-39368809D02*
X117678545Y-39864047D01*
X117678545Y-39864047D02*
X117983307Y-39597381D01*
X117983307Y-39597381D02*
X117983307Y-39711666D01*
X117983307Y-39711666D02*
X118021402Y-39787857D01*
X118021402Y-39787857D02*
X118059497Y-39825952D01*
X118059497Y-39825952D02*
X118135688Y-39864047D01*
X118135688Y-39864047D02*
X118326164Y-39864047D01*
X118326164Y-39864047D02*
X118402354Y-39825952D01*
X118402354Y-39825952D02*
X118440450Y-39787857D01*
X118440450Y-39787857D02*
X118478545Y-39711666D01*
X118478545Y-39711666D02*
X118478545Y-39483095D01*
X118478545Y-39483095D02*
X118440450Y-39406904D01*
X118440450Y-39406904D02*
X118402354Y-39368809D01*
X117678545Y-40092619D02*
X118478545Y-40359286D01*
X118478545Y-40359286D02*
X117678545Y-40625952D01*
X117678545Y-40816428D02*
X117678545Y-41311666D01*
X117678545Y-41311666D02*
X117983307Y-41045000D01*
X117983307Y-41045000D02*
X117983307Y-41159285D01*
X117983307Y-41159285D02*
X118021402Y-41235476D01*
X118021402Y-41235476D02*
X118059497Y-41273571D01*
X118059497Y-41273571D02*
X118135688Y-41311666D01*
X118135688Y-41311666D02*
X118326164Y-41311666D01*
X118326164Y-41311666D02*
X118402354Y-41273571D01*
X118402354Y-41273571D02*
X118440450Y-41235476D01*
X118440450Y-41235476D02*
X118478545Y-41159285D01*
X118478545Y-41159285D02*
X118478545Y-40930714D01*
X118478545Y-40930714D02*
X118440450Y-40854523D01*
X118440450Y-40854523D02*
X118402354Y-40816428D01*
X118554735Y-41464048D02*
X118554735Y-42073571D01*
X118059497Y-42264048D02*
X118059497Y-42530714D01*
X118478545Y-42645000D02*
X118478545Y-42264048D01*
X118478545Y-42264048D02*
X117678545Y-42264048D01*
X117678545Y-42264048D02*
X117678545Y-42645000D01*
X118478545Y-42987858D02*
X117678545Y-42987858D01*
X117678545Y-42987858D02*
X118478545Y-43445001D01*
X118478545Y-43445001D02*
X117678545Y-43445001D01*
X143116640Y-51222618D02*
X143078545Y-51146428D01*
X143078545Y-51146428D02*
X143078545Y-51032142D01*
X143078545Y-51032142D02*
X143116640Y-50917856D01*
X143116640Y-50917856D02*
X143192830Y-50841666D01*
X143192830Y-50841666D02*
X143269021Y-50803571D01*
X143269021Y-50803571D02*
X143421402Y-50765475D01*
X143421402Y-50765475D02*
X143535688Y-50765475D01*
X143535688Y-50765475D02*
X143688069Y-50803571D01*
X143688069Y-50803571D02*
X143764259Y-50841666D01*
X143764259Y-50841666D02*
X143840450Y-50917856D01*
X143840450Y-50917856D02*
X143878545Y-51032142D01*
X143878545Y-51032142D02*
X143878545Y-51108333D01*
X143878545Y-51108333D02*
X143840450Y-51222618D01*
X143840450Y-51222618D02*
X143802354Y-51260714D01*
X143802354Y-51260714D02*
X143535688Y-51260714D01*
X143535688Y-51260714D02*
X143535688Y-51108333D01*
X143878545Y-51603571D02*
X143078545Y-51603571D01*
X143078545Y-51603571D02*
X143078545Y-51908333D01*
X143078545Y-51908333D02*
X143116640Y-51984523D01*
X143116640Y-51984523D02*
X143154735Y-52022618D01*
X143154735Y-52022618D02*
X143230926Y-52060714D01*
X143230926Y-52060714D02*
X143345211Y-52060714D01*
X143345211Y-52060714D02*
X143421402Y-52022618D01*
X143421402Y-52022618D02*
X143459497Y-51984523D01*
X143459497Y-51984523D02*
X143497592Y-51908333D01*
X143497592Y-51908333D02*
X143497592Y-51603571D01*
X143878545Y-52822618D02*
X143878545Y-52365475D01*
X143878545Y-52594047D02*
X143078545Y-52594047D01*
X143078545Y-52594047D02*
X143192830Y-52517856D01*
X143192830Y-52517856D02*
X143269021Y-52441666D01*
X143269021Y-52441666D02*
X143307116Y-52365475D01*
X143078545Y-53317857D02*
X143078545Y-53394047D01*
X143078545Y-53394047D02*
X143116640Y-53470238D01*
X143116640Y-53470238D02*
X143154735Y-53508333D01*
X143154735Y-53508333D02*
X143230926Y-53546428D01*
X143230926Y-53546428D02*
X143383307Y-53584523D01*
X143383307Y-53584523D02*
X143573783Y-53584523D01*
X143573783Y-53584523D02*
X143726164Y-53546428D01*
X143726164Y-53546428D02*
X143802354Y-53508333D01*
X143802354Y-53508333D02*
X143840450Y-53470238D01*
X143840450Y-53470238D02*
X143878545Y-53394047D01*
X143878545Y-53394047D02*
X143878545Y-53317857D01*
X143878545Y-53317857D02*
X143840450Y-53241666D01*
X143840450Y-53241666D02*
X143802354Y-53203571D01*
X143802354Y-53203571D02*
X143726164Y-53165476D01*
X143726164Y-53165476D02*
X143573783Y-53127380D01*
X143573783Y-53127380D02*
X143383307Y-53127380D01*
X143383307Y-53127380D02*
X143230926Y-53165476D01*
X143230926Y-53165476D02*
X143154735Y-53203571D01*
X143154735Y-53203571D02*
X143116640Y-53241666D01*
X143116640Y-53241666D02*
X143078545Y-53317857D01*
X140576640Y-39985476D02*
X140538545Y-39909286D01*
X140538545Y-39909286D02*
X140538545Y-39795000D01*
X140538545Y-39795000D02*
X140576640Y-39680714D01*
X140576640Y-39680714D02*
X140652830Y-39604524D01*
X140652830Y-39604524D02*
X140729021Y-39566429D01*
X140729021Y-39566429D02*
X140881402Y-39528333D01*
X140881402Y-39528333D02*
X140995688Y-39528333D01*
X140995688Y-39528333D02*
X141148069Y-39566429D01*
X141148069Y-39566429D02*
X141224259Y-39604524D01*
X141224259Y-39604524D02*
X141300450Y-39680714D01*
X141300450Y-39680714D02*
X141338545Y-39795000D01*
X141338545Y-39795000D02*
X141338545Y-39871191D01*
X141338545Y-39871191D02*
X141300450Y-39985476D01*
X141300450Y-39985476D02*
X141262354Y-40023572D01*
X141262354Y-40023572D02*
X140995688Y-40023572D01*
X140995688Y-40023572D02*
X140995688Y-39871191D01*
X141338545Y-40366429D02*
X140538545Y-40366429D01*
X140538545Y-40366429D02*
X141338545Y-40823572D01*
X141338545Y-40823572D02*
X140538545Y-40823572D01*
X141338545Y-41204524D02*
X140538545Y-41204524D01*
X140538545Y-41204524D02*
X140538545Y-41395000D01*
X140538545Y-41395000D02*
X140576640Y-41509286D01*
X140576640Y-41509286D02*
X140652830Y-41585476D01*
X140652830Y-41585476D02*
X140729021Y-41623571D01*
X140729021Y-41623571D02*
X140881402Y-41661667D01*
X140881402Y-41661667D02*
X140995688Y-41661667D01*
X140995688Y-41661667D02*
X141148069Y-41623571D01*
X141148069Y-41623571D02*
X141224259Y-41585476D01*
X141224259Y-41585476D02*
X141300450Y-41509286D01*
X141300450Y-41509286D02*
X141338545Y-41395000D01*
X141338545Y-41395000D02*
X141338545Y-41204524D01*
X138036640Y-51953571D02*
X137998545Y-51877381D01*
X137998545Y-51877381D02*
X137998545Y-51763095D01*
X137998545Y-51763095D02*
X138036640Y-51648809D01*
X138036640Y-51648809D02*
X138112830Y-51572619D01*
X138112830Y-51572619D02*
X138189021Y-51534524D01*
X138189021Y-51534524D02*
X138341402Y-51496428D01*
X138341402Y-51496428D02*
X138455688Y-51496428D01*
X138455688Y-51496428D02*
X138608069Y-51534524D01*
X138608069Y-51534524D02*
X138684259Y-51572619D01*
X138684259Y-51572619D02*
X138760450Y-51648809D01*
X138760450Y-51648809D02*
X138798545Y-51763095D01*
X138798545Y-51763095D02*
X138798545Y-51839286D01*
X138798545Y-51839286D02*
X138760450Y-51953571D01*
X138760450Y-51953571D02*
X138722354Y-51991667D01*
X138722354Y-51991667D02*
X138455688Y-51991667D01*
X138455688Y-51991667D02*
X138455688Y-51839286D01*
X138798545Y-52334524D02*
X137998545Y-52334524D01*
X137998545Y-52334524D02*
X137998545Y-52639286D01*
X137998545Y-52639286D02*
X138036640Y-52715476D01*
X138036640Y-52715476D02*
X138074735Y-52753571D01*
X138074735Y-52753571D02*
X138150926Y-52791667D01*
X138150926Y-52791667D02*
X138265211Y-52791667D01*
X138265211Y-52791667D02*
X138341402Y-52753571D01*
X138341402Y-52753571D02*
X138379497Y-52715476D01*
X138379497Y-52715476D02*
X138417592Y-52639286D01*
X138417592Y-52639286D02*
X138417592Y-52334524D01*
X138798545Y-53172619D02*
X138798545Y-53325000D01*
X138798545Y-53325000D02*
X138760450Y-53401190D01*
X138760450Y-53401190D02*
X138722354Y-53439286D01*
X138722354Y-53439286D02*
X138608069Y-53515476D01*
X138608069Y-53515476D02*
X138455688Y-53553571D01*
X138455688Y-53553571D02*
X138150926Y-53553571D01*
X138150926Y-53553571D02*
X138074735Y-53515476D01*
X138074735Y-53515476D02*
X138036640Y-53477381D01*
X138036640Y-53477381D02*
X137998545Y-53401190D01*
X137998545Y-53401190D02*
X137998545Y-53248809D01*
X137998545Y-53248809D02*
X138036640Y-53172619D01*
X138036640Y-53172619D02*
X138074735Y-53134524D01*
X138074735Y-53134524D02*
X138150926Y-53096428D01*
X138150926Y-53096428D02*
X138341402Y-53096428D01*
X138341402Y-53096428D02*
X138417592Y-53134524D01*
X138417592Y-53134524D02*
X138455688Y-53172619D01*
X138455688Y-53172619D02*
X138493783Y-53248809D01*
X138493783Y-53248809D02*
X138493783Y-53401190D01*
X138493783Y-53401190D02*
X138455688Y-53477381D01*
X138455688Y-53477381D02*
X138417592Y-53515476D01*
X138417592Y-53515476D02*
X138341402Y-53553571D01*
X145656640Y-51222618D02*
X145618545Y-51146428D01*
X145618545Y-51146428D02*
X145618545Y-51032142D01*
X145618545Y-51032142D02*
X145656640Y-50917856D01*
X145656640Y-50917856D02*
X145732830Y-50841666D01*
X145732830Y-50841666D02*
X145809021Y-50803571D01*
X145809021Y-50803571D02*
X145961402Y-50765475D01*
X145961402Y-50765475D02*
X146075688Y-50765475D01*
X146075688Y-50765475D02*
X146228069Y-50803571D01*
X146228069Y-50803571D02*
X146304259Y-50841666D01*
X146304259Y-50841666D02*
X146380450Y-50917856D01*
X146380450Y-50917856D02*
X146418545Y-51032142D01*
X146418545Y-51032142D02*
X146418545Y-51108333D01*
X146418545Y-51108333D02*
X146380450Y-51222618D01*
X146380450Y-51222618D02*
X146342354Y-51260714D01*
X146342354Y-51260714D02*
X146075688Y-51260714D01*
X146075688Y-51260714D02*
X146075688Y-51108333D01*
X146418545Y-51603571D02*
X145618545Y-51603571D01*
X145618545Y-51603571D02*
X145618545Y-51908333D01*
X145618545Y-51908333D02*
X145656640Y-51984523D01*
X145656640Y-51984523D02*
X145694735Y-52022618D01*
X145694735Y-52022618D02*
X145770926Y-52060714D01*
X145770926Y-52060714D02*
X145885211Y-52060714D01*
X145885211Y-52060714D02*
X145961402Y-52022618D01*
X145961402Y-52022618D02*
X145999497Y-51984523D01*
X145999497Y-51984523D02*
X146037592Y-51908333D01*
X146037592Y-51908333D02*
X146037592Y-51603571D01*
X146418545Y-52822618D02*
X146418545Y-52365475D01*
X146418545Y-52594047D02*
X145618545Y-52594047D01*
X145618545Y-52594047D02*
X145732830Y-52517856D01*
X145732830Y-52517856D02*
X145809021Y-52441666D01*
X145809021Y-52441666D02*
X145847116Y-52365475D01*
X146418545Y-53584523D02*
X146418545Y-53127380D01*
X146418545Y-53355952D02*
X145618545Y-53355952D01*
X145618545Y-53355952D02*
X145732830Y-53279761D01*
X145732830Y-53279761D02*
X145809021Y-53203571D01*
X145809021Y-53203571D02*
X145847116Y-53127380D01*
X123329973Y-39452142D02*
X123329973Y-39833095D01*
X123558545Y-39375952D02*
X122758545Y-39642619D01*
X122758545Y-39642619D02*
X123558545Y-39909285D01*
X123558545Y-40175952D02*
X122758545Y-40175952D01*
X122758545Y-40175952D02*
X122758545Y-40366428D01*
X122758545Y-40366428D02*
X122796640Y-40480714D01*
X122796640Y-40480714D02*
X122872830Y-40556904D01*
X122872830Y-40556904D02*
X122949021Y-40594999D01*
X122949021Y-40594999D02*
X123101402Y-40633095D01*
X123101402Y-40633095D02*
X123215688Y-40633095D01*
X123215688Y-40633095D02*
X123368069Y-40594999D01*
X123368069Y-40594999D02*
X123444259Y-40556904D01*
X123444259Y-40556904D02*
X123520450Y-40480714D01*
X123520450Y-40480714D02*
X123558545Y-40366428D01*
X123558545Y-40366428D02*
X123558545Y-40175952D01*
X123482354Y-41433095D02*
X123520450Y-41394999D01*
X123520450Y-41394999D02*
X123558545Y-41280714D01*
X123558545Y-41280714D02*
X123558545Y-41204523D01*
X123558545Y-41204523D02*
X123520450Y-41090237D01*
X123520450Y-41090237D02*
X123444259Y-41014047D01*
X123444259Y-41014047D02*
X123368069Y-40975952D01*
X123368069Y-40975952D02*
X123215688Y-40937856D01*
X123215688Y-40937856D02*
X123101402Y-40937856D01*
X123101402Y-40937856D02*
X122949021Y-40975952D01*
X122949021Y-40975952D02*
X122872830Y-41014047D01*
X122872830Y-41014047D02*
X122796640Y-41090237D01*
X122796640Y-41090237D02*
X122758545Y-41204523D01*
X122758545Y-41204523D02*
X122758545Y-41280714D01*
X122758545Y-41280714D02*
X122796640Y-41394999D01*
X122796640Y-41394999D02*
X122834735Y-41433095D01*
X123634735Y-41585476D02*
X123634735Y-42194999D01*
X122758545Y-42271190D02*
X123558545Y-42537857D01*
X123558545Y-42537857D02*
X122758545Y-42804523D01*
X123558545Y-43528333D02*
X123177592Y-43261666D01*
X123558545Y-43071190D02*
X122758545Y-43071190D01*
X122758545Y-43071190D02*
X122758545Y-43375952D01*
X122758545Y-43375952D02*
X122796640Y-43452142D01*
X122796640Y-43452142D02*
X122834735Y-43490237D01*
X122834735Y-43490237D02*
X122910926Y-43528333D01*
X122910926Y-43528333D02*
X123025211Y-43528333D01*
X123025211Y-43528333D02*
X123101402Y-43490237D01*
X123101402Y-43490237D02*
X123139497Y-43452142D01*
X123139497Y-43452142D02*
X123177592Y-43375952D01*
X123177592Y-43375952D02*
X123177592Y-43071190D01*
X123139497Y-43871190D02*
X123139497Y-44137856D01*
X123558545Y-44252142D02*
X123558545Y-43871190D01*
X123558545Y-43871190D02*
X122758545Y-43871190D01*
X122758545Y-43871190D02*
X122758545Y-44252142D01*
X123139497Y-44861666D02*
X123139497Y-44595000D01*
X123558545Y-44595000D02*
X122758545Y-44595000D01*
X122758545Y-44595000D02*
X122758545Y-44975952D01*
X125336640Y-51953571D02*
X125298545Y-51877381D01*
X125298545Y-51877381D02*
X125298545Y-51763095D01*
X125298545Y-51763095D02*
X125336640Y-51648809D01*
X125336640Y-51648809D02*
X125412830Y-51572619D01*
X125412830Y-51572619D02*
X125489021Y-51534524D01*
X125489021Y-51534524D02*
X125641402Y-51496428D01*
X125641402Y-51496428D02*
X125755688Y-51496428D01*
X125755688Y-51496428D02*
X125908069Y-51534524D01*
X125908069Y-51534524D02*
X125984259Y-51572619D01*
X125984259Y-51572619D02*
X126060450Y-51648809D01*
X126060450Y-51648809D02*
X126098545Y-51763095D01*
X126098545Y-51763095D02*
X126098545Y-51839286D01*
X126098545Y-51839286D02*
X126060450Y-51953571D01*
X126060450Y-51953571D02*
X126022354Y-51991667D01*
X126022354Y-51991667D02*
X125755688Y-51991667D01*
X125755688Y-51991667D02*
X125755688Y-51839286D01*
X126098545Y-52334524D02*
X125298545Y-52334524D01*
X125298545Y-52334524D02*
X125298545Y-52639286D01*
X125298545Y-52639286D02*
X125336640Y-52715476D01*
X125336640Y-52715476D02*
X125374735Y-52753571D01*
X125374735Y-52753571D02*
X125450926Y-52791667D01*
X125450926Y-52791667D02*
X125565211Y-52791667D01*
X125565211Y-52791667D02*
X125641402Y-52753571D01*
X125641402Y-52753571D02*
X125679497Y-52715476D01*
X125679497Y-52715476D02*
X125717592Y-52639286D01*
X125717592Y-52639286D02*
X125717592Y-52334524D01*
X125298545Y-53515476D02*
X125298545Y-53134524D01*
X125298545Y-53134524D02*
X125679497Y-53096428D01*
X125679497Y-53096428D02*
X125641402Y-53134524D01*
X125641402Y-53134524D02*
X125603307Y-53210714D01*
X125603307Y-53210714D02*
X125603307Y-53401190D01*
X125603307Y-53401190D02*
X125641402Y-53477381D01*
X125641402Y-53477381D02*
X125679497Y-53515476D01*
X125679497Y-53515476D02*
X125755688Y-53553571D01*
X125755688Y-53553571D02*
X125946164Y-53553571D01*
X125946164Y-53553571D02*
X126022354Y-53515476D01*
X126022354Y-53515476D02*
X126060450Y-53477381D01*
X126060450Y-53477381D02*
X126098545Y-53401190D01*
X126098545Y-53401190D02*
X126098545Y-53210714D01*
X126098545Y-53210714D02*
X126060450Y-53134524D01*
X126060450Y-53134524D02*
X126022354Y-53096428D01*
X112626640Y-51953571D02*
X112588545Y-51877381D01*
X112588545Y-51877381D02*
X112588545Y-51763095D01*
X112588545Y-51763095D02*
X112626640Y-51648809D01*
X112626640Y-51648809D02*
X112702830Y-51572619D01*
X112702830Y-51572619D02*
X112779021Y-51534524D01*
X112779021Y-51534524D02*
X112931402Y-51496428D01*
X112931402Y-51496428D02*
X113045688Y-51496428D01*
X113045688Y-51496428D02*
X113198069Y-51534524D01*
X113198069Y-51534524D02*
X113274259Y-51572619D01*
X113274259Y-51572619D02*
X113350450Y-51648809D01*
X113350450Y-51648809D02*
X113388545Y-51763095D01*
X113388545Y-51763095D02*
X113388545Y-51839286D01*
X113388545Y-51839286D02*
X113350450Y-51953571D01*
X113350450Y-51953571D02*
X113312354Y-51991667D01*
X113312354Y-51991667D02*
X113045688Y-51991667D01*
X113045688Y-51991667D02*
X113045688Y-51839286D01*
X113388545Y-52334524D02*
X112588545Y-52334524D01*
X112588545Y-52334524D02*
X112588545Y-52639286D01*
X112588545Y-52639286D02*
X112626640Y-52715476D01*
X112626640Y-52715476D02*
X112664735Y-52753571D01*
X112664735Y-52753571D02*
X112740926Y-52791667D01*
X112740926Y-52791667D02*
X112855211Y-52791667D01*
X112855211Y-52791667D02*
X112931402Y-52753571D01*
X112931402Y-52753571D02*
X112969497Y-52715476D01*
X112969497Y-52715476D02*
X113007592Y-52639286D01*
X113007592Y-52639286D02*
X113007592Y-52334524D01*
X113388545Y-53553571D02*
X113388545Y-53096428D01*
X113388545Y-53325000D02*
X112588545Y-53325000D01*
X112588545Y-53325000D02*
X112702830Y-53248809D01*
X112702830Y-53248809D02*
X112779021Y-53172619D01*
X112779021Y-53172619D02*
X112817116Y-53096428D01*
X112598545Y-39323571D02*
X113398545Y-39590238D01*
X113398545Y-39590238D02*
X112598545Y-39856904D01*
X113360450Y-40085475D02*
X113398545Y-40199761D01*
X113398545Y-40199761D02*
X113398545Y-40390237D01*
X113398545Y-40390237D02*
X113360450Y-40466428D01*
X113360450Y-40466428D02*
X113322354Y-40504523D01*
X113322354Y-40504523D02*
X113246164Y-40542618D01*
X113246164Y-40542618D02*
X113169973Y-40542618D01*
X113169973Y-40542618D02*
X113093783Y-40504523D01*
X113093783Y-40504523D02*
X113055688Y-40466428D01*
X113055688Y-40466428D02*
X113017592Y-40390237D01*
X113017592Y-40390237D02*
X112979497Y-40237856D01*
X112979497Y-40237856D02*
X112941402Y-40161666D01*
X112941402Y-40161666D02*
X112903307Y-40123571D01*
X112903307Y-40123571D02*
X112827116Y-40085475D01*
X112827116Y-40085475D02*
X112750926Y-40085475D01*
X112750926Y-40085475D02*
X112674735Y-40123571D01*
X112674735Y-40123571D02*
X112636640Y-40161666D01*
X112636640Y-40161666D02*
X112598545Y-40237856D01*
X112598545Y-40237856D02*
X112598545Y-40428333D01*
X112598545Y-40428333D02*
X112636640Y-40542618D01*
X113017592Y-41037857D02*
X113398545Y-41037857D01*
X112598545Y-40771190D02*
X113017592Y-41037857D01*
X113017592Y-41037857D02*
X112598545Y-41304523D01*
X113360450Y-41533094D02*
X113398545Y-41647380D01*
X113398545Y-41647380D02*
X113398545Y-41837856D01*
X113398545Y-41837856D02*
X113360450Y-41914047D01*
X113360450Y-41914047D02*
X113322354Y-41952142D01*
X113322354Y-41952142D02*
X113246164Y-41990237D01*
X113246164Y-41990237D02*
X113169973Y-41990237D01*
X113169973Y-41990237D02*
X113093783Y-41952142D01*
X113093783Y-41952142D02*
X113055688Y-41914047D01*
X113055688Y-41914047D02*
X113017592Y-41837856D01*
X113017592Y-41837856D02*
X112979497Y-41685475D01*
X112979497Y-41685475D02*
X112941402Y-41609285D01*
X112941402Y-41609285D02*
X112903307Y-41571190D01*
X112903307Y-41571190D02*
X112827116Y-41533094D01*
X112827116Y-41533094D02*
X112750926Y-41533094D01*
X112750926Y-41533094D02*
X112674735Y-41571190D01*
X112674735Y-41571190D02*
X112636640Y-41609285D01*
X112636640Y-41609285D02*
X112598545Y-41685475D01*
X112598545Y-41685475D02*
X112598545Y-41875952D01*
X112598545Y-41875952D02*
X112636640Y-41990237D01*
X115176640Y-51915476D02*
X115138545Y-51839286D01*
X115138545Y-51839286D02*
X115138545Y-51725000D01*
X115138545Y-51725000D02*
X115176640Y-51610714D01*
X115176640Y-51610714D02*
X115252830Y-51534524D01*
X115252830Y-51534524D02*
X115329021Y-51496429D01*
X115329021Y-51496429D02*
X115481402Y-51458333D01*
X115481402Y-51458333D02*
X115595688Y-51458333D01*
X115595688Y-51458333D02*
X115748069Y-51496429D01*
X115748069Y-51496429D02*
X115824259Y-51534524D01*
X115824259Y-51534524D02*
X115900450Y-51610714D01*
X115900450Y-51610714D02*
X115938545Y-51725000D01*
X115938545Y-51725000D02*
X115938545Y-51801191D01*
X115938545Y-51801191D02*
X115900450Y-51915476D01*
X115900450Y-51915476D02*
X115862354Y-51953572D01*
X115862354Y-51953572D02*
X115595688Y-51953572D01*
X115595688Y-51953572D02*
X115595688Y-51801191D01*
X115938545Y-52296429D02*
X115138545Y-52296429D01*
X115138545Y-52296429D02*
X115938545Y-52753572D01*
X115938545Y-52753572D02*
X115138545Y-52753572D01*
X115938545Y-53134524D02*
X115138545Y-53134524D01*
X115138545Y-53134524D02*
X115138545Y-53325000D01*
X115138545Y-53325000D02*
X115176640Y-53439286D01*
X115176640Y-53439286D02*
X115252830Y-53515476D01*
X115252830Y-53515476D02*
X115329021Y-53553571D01*
X115329021Y-53553571D02*
X115481402Y-53591667D01*
X115481402Y-53591667D02*
X115595688Y-53591667D01*
X115595688Y-53591667D02*
X115748069Y-53553571D01*
X115748069Y-53553571D02*
X115824259Y-53515476D01*
X115824259Y-53515476D02*
X115900450Y-53439286D01*
X115900450Y-53439286D02*
X115938545Y-53325000D01*
X115938545Y-53325000D02*
X115938545Y-53134524D01*
X117716640Y-51953571D02*
X117678545Y-51877381D01*
X117678545Y-51877381D02*
X117678545Y-51763095D01*
X117678545Y-51763095D02*
X117716640Y-51648809D01*
X117716640Y-51648809D02*
X117792830Y-51572619D01*
X117792830Y-51572619D02*
X117869021Y-51534524D01*
X117869021Y-51534524D02*
X118021402Y-51496428D01*
X118021402Y-51496428D02*
X118135688Y-51496428D01*
X118135688Y-51496428D02*
X118288069Y-51534524D01*
X118288069Y-51534524D02*
X118364259Y-51572619D01*
X118364259Y-51572619D02*
X118440450Y-51648809D01*
X118440450Y-51648809D02*
X118478545Y-51763095D01*
X118478545Y-51763095D02*
X118478545Y-51839286D01*
X118478545Y-51839286D02*
X118440450Y-51953571D01*
X118440450Y-51953571D02*
X118402354Y-51991667D01*
X118402354Y-51991667D02*
X118135688Y-51991667D01*
X118135688Y-51991667D02*
X118135688Y-51839286D01*
X118478545Y-52334524D02*
X117678545Y-52334524D01*
X117678545Y-52334524D02*
X117678545Y-52639286D01*
X117678545Y-52639286D02*
X117716640Y-52715476D01*
X117716640Y-52715476D02*
X117754735Y-52753571D01*
X117754735Y-52753571D02*
X117830926Y-52791667D01*
X117830926Y-52791667D02*
X117945211Y-52791667D01*
X117945211Y-52791667D02*
X118021402Y-52753571D01*
X118021402Y-52753571D02*
X118059497Y-52715476D01*
X118059497Y-52715476D02*
X118097592Y-52639286D01*
X118097592Y-52639286D02*
X118097592Y-52334524D01*
X117754735Y-53096428D02*
X117716640Y-53134524D01*
X117716640Y-53134524D02*
X117678545Y-53210714D01*
X117678545Y-53210714D02*
X117678545Y-53401190D01*
X117678545Y-53401190D02*
X117716640Y-53477381D01*
X117716640Y-53477381D02*
X117754735Y-53515476D01*
X117754735Y-53515476D02*
X117830926Y-53553571D01*
X117830926Y-53553571D02*
X117907116Y-53553571D01*
X117907116Y-53553571D02*
X118021402Y-53515476D01*
X118021402Y-53515476D02*
X118478545Y-53058333D01*
X118478545Y-53058333D02*
X118478545Y-53553571D01*
X120256640Y-51953571D02*
X120218545Y-51877381D01*
X120218545Y-51877381D02*
X120218545Y-51763095D01*
X120218545Y-51763095D02*
X120256640Y-51648809D01*
X120256640Y-51648809D02*
X120332830Y-51572619D01*
X120332830Y-51572619D02*
X120409021Y-51534524D01*
X120409021Y-51534524D02*
X120561402Y-51496428D01*
X120561402Y-51496428D02*
X120675688Y-51496428D01*
X120675688Y-51496428D02*
X120828069Y-51534524D01*
X120828069Y-51534524D02*
X120904259Y-51572619D01*
X120904259Y-51572619D02*
X120980450Y-51648809D01*
X120980450Y-51648809D02*
X121018545Y-51763095D01*
X121018545Y-51763095D02*
X121018545Y-51839286D01*
X121018545Y-51839286D02*
X120980450Y-51953571D01*
X120980450Y-51953571D02*
X120942354Y-51991667D01*
X120942354Y-51991667D02*
X120675688Y-51991667D01*
X120675688Y-51991667D02*
X120675688Y-51839286D01*
X121018545Y-52334524D02*
X120218545Y-52334524D01*
X120218545Y-52334524D02*
X120218545Y-52639286D01*
X120218545Y-52639286D02*
X120256640Y-52715476D01*
X120256640Y-52715476D02*
X120294735Y-52753571D01*
X120294735Y-52753571D02*
X120370926Y-52791667D01*
X120370926Y-52791667D02*
X120485211Y-52791667D01*
X120485211Y-52791667D02*
X120561402Y-52753571D01*
X120561402Y-52753571D02*
X120599497Y-52715476D01*
X120599497Y-52715476D02*
X120637592Y-52639286D01*
X120637592Y-52639286D02*
X120637592Y-52334524D01*
X120218545Y-53058333D02*
X120218545Y-53553571D01*
X120218545Y-53553571D02*
X120523307Y-53286905D01*
X120523307Y-53286905D02*
X120523307Y-53401190D01*
X120523307Y-53401190D02*
X120561402Y-53477381D01*
X120561402Y-53477381D02*
X120599497Y-53515476D01*
X120599497Y-53515476D02*
X120675688Y-53553571D01*
X120675688Y-53553571D02*
X120866164Y-53553571D01*
X120866164Y-53553571D02*
X120942354Y-53515476D01*
X120942354Y-53515476D02*
X120980450Y-53477381D01*
X120980450Y-53477381D02*
X121018545Y-53401190D01*
X121018545Y-53401190D02*
X121018545Y-53172619D01*
X121018545Y-53172619D02*
X120980450Y-53096428D01*
X120980450Y-53096428D02*
X120942354Y-53058333D01*
X132956640Y-39992618D02*
X132918545Y-39916428D01*
X132918545Y-39916428D02*
X132918545Y-39802142D01*
X132918545Y-39802142D02*
X132956640Y-39687856D01*
X132956640Y-39687856D02*
X133032830Y-39611666D01*
X133032830Y-39611666D02*
X133109021Y-39573571D01*
X133109021Y-39573571D02*
X133261402Y-39535475D01*
X133261402Y-39535475D02*
X133375688Y-39535475D01*
X133375688Y-39535475D02*
X133528069Y-39573571D01*
X133528069Y-39573571D02*
X133604259Y-39611666D01*
X133604259Y-39611666D02*
X133680450Y-39687856D01*
X133680450Y-39687856D02*
X133718545Y-39802142D01*
X133718545Y-39802142D02*
X133718545Y-39878333D01*
X133718545Y-39878333D02*
X133680450Y-39992618D01*
X133680450Y-39992618D02*
X133642354Y-40030714D01*
X133642354Y-40030714D02*
X133375688Y-40030714D01*
X133375688Y-40030714D02*
X133375688Y-39878333D01*
X133718545Y-40373571D02*
X132918545Y-40373571D01*
X132918545Y-40373571D02*
X132918545Y-40678333D01*
X132918545Y-40678333D02*
X132956640Y-40754523D01*
X132956640Y-40754523D02*
X132994735Y-40792618D01*
X132994735Y-40792618D02*
X133070926Y-40830714D01*
X133070926Y-40830714D02*
X133185211Y-40830714D01*
X133185211Y-40830714D02*
X133261402Y-40792618D01*
X133261402Y-40792618D02*
X133299497Y-40754523D01*
X133299497Y-40754523D02*
X133337592Y-40678333D01*
X133337592Y-40678333D02*
X133337592Y-40373571D01*
X132994735Y-41135475D02*
X132956640Y-41173571D01*
X132956640Y-41173571D02*
X132918545Y-41249761D01*
X132918545Y-41249761D02*
X132918545Y-41440237D01*
X132918545Y-41440237D02*
X132956640Y-41516428D01*
X132956640Y-41516428D02*
X132994735Y-41554523D01*
X132994735Y-41554523D02*
X133070926Y-41592618D01*
X133070926Y-41592618D02*
X133147116Y-41592618D01*
X133147116Y-41592618D02*
X133261402Y-41554523D01*
X133261402Y-41554523D02*
X133718545Y-41097380D01*
X133718545Y-41097380D02*
X133718545Y-41592618D01*
X132918545Y-42278333D02*
X132918545Y-42125952D01*
X132918545Y-42125952D02*
X132956640Y-42049761D01*
X132956640Y-42049761D02*
X132994735Y-42011666D01*
X132994735Y-42011666D02*
X133109021Y-41935476D01*
X133109021Y-41935476D02*
X133261402Y-41897380D01*
X133261402Y-41897380D02*
X133566164Y-41897380D01*
X133566164Y-41897380D02*
X133642354Y-41935476D01*
X133642354Y-41935476D02*
X133680450Y-41973571D01*
X133680450Y-41973571D02*
X133718545Y-42049761D01*
X133718545Y-42049761D02*
X133718545Y-42202142D01*
X133718545Y-42202142D02*
X133680450Y-42278333D01*
X133680450Y-42278333D02*
X133642354Y-42316428D01*
X133642354Y-42316428D02*
X133566164Y-42354523D01*
X133566164Y-42354523D02*
X133375688Y-42354523D01*
X133375688Y-42354523D02*
X133299497Y-42316428D01*
X133299497Y-42316428D02*
X133261402Y-42278333D01*
X133261402Y-42278333D02*
X133223307Y-42202142D01*
X133223307Y-42202142D02*
X133223307Y-42049761D01*
X133223307Y-42049761D02*
X133261402Y-41973571D01*
X133261402Y-41973571D02*
X133299497Y-41935476D01*
X133299497Y-41935476D02*
X133375688Y-41897380D01*
X122796640Y-51953571D02*
X122758545Y-51877381D01*
X122758545Y-51877381D02*
X122758545Y-51763095D01*
X122758545Y-51763095D02*
X122796640Y-51648809D01*
X122796640Y-51648809D02*
X122872830Y-51572619D01*
X122872830Y-51572619D02*
X122949021Y-51534524D01*
X122949021Y-51534524D02*
X123101402Y-51496428D01*
X123101402Y-51496428D02*
X123215688Y-51496428D01*
X123215688Y-51496428D02*
X123368069Y-51534524D01*
X123368069Y-51534524D02*
X123444259Y-51572619D01*
X123444259Y-51572619D02*
X123520450Y-51648809D01*
X123520450Y-51648809D02*
X123558545Y-51763095D01*
X123558545Y-51763095D02*
X123558545Y-51839286D01*
X123558545Y-51839286D02*
X123520450Y-51953571D01*
X123520450Y-51953571D02*
X123482354Y-51991667D01*
X123482354Y-51991667D02*
X123215688Y-51991667D01*
X123215688Y-51991667D02*
X123215688Y-51839286D01*
X123558545Y-52334524D02*
X122758545Y-52334524D01*
X122758545Y-52334524D02*
X122758545Y-52639286D01*
X122758545Y-52639286D02*
X122796640Y-52715476D01*
X122796640Y-52715476D02*
X122834735Y-52753571D01*
X122834735Y-52753571D02*
X122910926Y-52791667D01*
X122910926Y-52791667D02*
X123025211Y-52791667D01*
X123025211Y-52791667D02*
X123101402Y-52753571D01*
X123101402Y-52753571D02*
X123139497Y-52715476D01*
X123139497Y-52715476D02*
X123177592Y-52639286D01*
X123177592Y-52639286D02*
X123177592Y-52334524D01*
X123025211Y-53477381D02*
X123558545Y-53477381D01*
X122720450Y-53286905D02*
X123291878Y-53096428D01*
X123291878Y-53096428D02*
X123291878Y-53591667D01*
X140576640Y-51915476D02*
X140538545Y-51839286D01*
X140538545Y-51839286D02*
X140538545Y-51725000D01*
X140538545Y-51725000D02*
X140576640Y-51610714D01*
X140576640Y-51610714D02*
X140652830Y-51534524D01*
X140652830Y-51534524D02*
X140729021Y-51496429D01*
X140729021Y-51496429D02*
X140881402Y-51458333D01*
X140881402Y-51458333D02*
X140995688Y-51458333D01*
X140995688Y-51458333D02*
X141148069Y-51496429D01*
X141148069Y-51496429D02*
X141224259Y-51534524D01*
X141224259Y-51534524D02*
X141300450Y-51610714D01*
X141300450Y-51610714D02*
X141338545Y-51725000D01*
X141338545Y-51725000D02*
X141338545Y-51801191D01*
X141338545Y-51801191D02*
X141300450Y-51915476D01*
X141300450Y-51915476D02*
X141262354Y-51953572D01*
X141262354Y-51953572D02*
X140995688Y-51953572D01*
X140995688Y-51953572D02*
X140995688Y-51801191D01*
X141338545Y-52296429D02*
X140538545Y-52296429D01*
X140538545Y-52296429D02*
X141338545Y-52753572D01*
X141338545Y-52753572D02*
X140538545Y-52753572D01*
X141338545Y-53134524D02*
X140538545Y-53134524D01*
X140538545Y-53134524D02*
X140538545Y-53325000D01*
X140538545Y-53325000D02*
X140576640Y-53439286D01*
X140576640Y-53439286D02*
X140652830Y-53515476D01*
X140652830Y-53515476D02*
X140729021Y-53553571D01*
X140729021Y-53553571D02*
X140881402Y-53591667D01*
X140881402Y-53591667D02*
X140995688Y-53591667D01*
X140995688Y-53591667D02*
X141148069Y-53553571D01*
X141148069Y-53553571D02*
X141224259Y-53515476D01*
X141224259Y-53515476D02*
X141300450Y-53439286D01*
X141300450Y-53439286D02*
X141338545Y-53325000D01*
X141338545Y-53325000D02*
X141338545Y-53134524D01*
X153276640Y-51915476D02*
X153238545Y-51839286D01*
X153238545Y-51839286D02*
X153238545Y-51725000D01*
X153238545Y-51725000D02*
X153276640Y-51610714D01*
X153276640Y-51610714D02*
X153352830Y-51534524D01*
X153352830Y-51534524D02*
X153429021Y-51496429D01*
X153429021Y-51496429D02*
X153581402Y-51458333D01*
X153581402Y-51458333D02*
X153695688Y-51458333D01*
X153695688Y-51458333D02*
X153848069Y-51496429D01*
X153848069Y-51496429D02*
X153924259Y-51534524D01*
X153924259Y-51534524D02*
X154000450Y-51610714D01*
X154000450Y-51610714D02*
X154038545Y-51725000D01*
X154038545Y-51725000D02*
X154038545Y-51801191D01*
X154038545Y-51801191D02*
X154000450Y-51915476D01*
X154000450Y-51915476D02*
X153962354Y-51953572D01*
X153962354Y-51953572D02*
X153695688Y-51953572D01*
X153695688Y-51953572D02*
X153695688Y-51801191D01*
X154038545Y-52296429D02*
X153238545Y-52296429D01*
X153238545Y-52296429D02*
X154038545Y-52753572D01*
X154038545Y-52753572D02*
X153238545Y-52753572D01*
X154038545Y-53134524D02*
X153238545Y-53134524D01*
X153238545Y-53134524D02*
X153238545Y-53325000D01*
X153238545Y-53325000D02*
X153276640Y-53439286D01*
X153276640Y-53439286D02*
X153352830Y-53515476D01*
X153352830Y-53515476D02*
X153429021Y-53553571D01*
X153429021Y-53553571D02*
X153581402Y-53591667D01*
X153581402Y-53591667D02*
X153695688Y-53591667D01*
X153695688Y-53591667D02*
X153848069Y-53553571D01*
X153848069Y-53553571D02*
X153924259Y-53515476D01*
X153924259Y-53515476D02*
X154000450Y-53439286D01*
X154000450Y-53439286D02*
X154038545Y-53325000D01*
X154038545Y-53325000D02*
X154038545Y-53134524D01*
X125336640Y-39992618D02*
X125298545Y-39916428D01*
X125298545Y-39916428D02*
X125298545Y-39802142D01*
X125298545Y-39802142D02*
X125336640Y-39687856D01*
X125336640Y-39687856D02*
X125412830Y-39611666D01*
X125412830Y-39611666D02*
X125489021Y-39573571D01*
X125489021Y-39573571D02*
X125641402Y-39535475D01*
X125641402Y-39535475D02*
X125755688Y-39535475D01*
X125755688Y-39535475D02*
X125908069Y-39573571D01*
X125908069Y-39573571D02*
X125984259Y-39611666D01*
X125984259Y-39611666D02*
X126060450Y-39687856D01*
X126060450Y-39687856D02*
X126098545Y-39802142D01*
X126098545Y-39802142D02*
X126098545Y-39878333D01*
X126098545Y-39878333D02*
X126060450Y-39992618D01*
X126060450Y-39992618D02*
X126022354Y-40030714D01*
X126022354Y-40030714D02*
X125755688Y-40030714D01*
X125755688Y-40030714D02*
X125755688Y-39878333D01*
X126098545Y-40373571D02*
X125298545Y-40373571D01*
X125298545Y-40373571D02*
X125298545Y-40678333D01*
X125298545Y-40678333D02*
X125336640Y-40754523D01*
X125336640Y-40754523D02*
X125374735Y-40792618D01*
X125374735Y-40792618D02*
X125450926Y-40830714D01*
X125450926Y-40830714D02*
X125565211Y-40830714D01*
X125565211Y-40830714D02*
X125641402Y-40792618D01*
X125641402Y-40792618D02*
X125679497Y-40754523D01*
X125679497Y-40754523D02*
X125717592Y-40678333D01*
X125717592Y-40678333D02*
X125717592Y-40373571D01*
X125374735Y-41135475D02*
X125336640Y-41173571D01*
X125336640Y-41173571D02*
X125298545Y-41249761D01*
X125298545Y-41249761D02*
X125298545Y-41440237D01*
X125298545Y-41440237D02*
X125336640Y-41516428D01*
X125336640Y-41516428D02*
X125374735Y-41554523D01*
X125374735Y-41554523D02*
X125450926Y-41592618D01*
X125450926Y-41592618D02*
X125527116Y-41592618D01*
X125527116Y-41592618D02*
X125641402Y-41554523D01*
X125641402Y-41554523D02*
X126098545Y-41097380D01*
X126098545Y-41097380D02*
X126098545Y-41592618D01*
X125641402Y-42049761D02*
X125603307Y-41973571D01*
X125603307Y-41973571D02*
X125565211Y-41935476D01*
X125565211Y-41935476D02*
X125489021Y-41897380D01*
X125489021Y-41897380D02*
X125450926Y-41897380D01*
X125450926Y-41897380D02*
X125374735Y-41935476D01*
X125374735Y-41935476D02*
X125336640Y-41973571D01*
X125336640Y-41973571D02*
X125298545Y-42049761D01*
X125298545Y-42049761D02*
X125298545Y-42202142D01*
X125298545Y-42202142D02*
X125336640Y-42278333D01*
X125336640Y-42278333D02*
X125374735Y-42316428D01*
X125374735Y-42316428D02*
X125450926Y-42354523D01*
X125450926Y-42354523D02*
X125489021Y-42354523D01*
X125489021Y-42354523D02*
X125565211Y-42316428D01*
X125565211Y-42316428D02*
X125603307Y-42278333D01*
X125603307Y-42278333D02*
X125641402Y-42202142D01*
X125641402Y-42202142D02*
X125641402Y-42049761D01*
X125641402Y-42049761D02*
X125679497Y-41973571D01*
X125679497Y-41973571D02*
X125717592Y-41935476D01*
X125717592Y-41935476D02*
X125793783Y-41897380D01*
X125793783Y-41897380D02*
X125946164Y-41897380D01*
X125946164Y-41897380D02*
X126022354Y-41935476D01*
X126022354Y-41935476D02*
X126060450Y-41973571D01*
X126060450Y-41973571D02*
X126098545Y-42049761D01*
X126098545Y-42049761D02*
X126098545Y-42202142D01*
X126098545Y-42202142D02*
X126060450Y-42278333D01*
X126060450Y-42278333D02*
X126022354Y-42316428D01*
X126022354Y-42316428D02*
X125946164Y-42354523D01*
X125946164Y-42354523D02*
X125793783Y-42354523D01*
X125793783Y-42354523D02*
X125717592Y-42316428D01*
X125717592Y-42316428D02*
X125679497Y-42278333D01*
X125679497Y-42278333D02*
X125641402Y-42202142D01*
X158356640Y-39992618D02*
X158318545Y-39916428D01*
X158318545Y-39916428D02*
X158318545Y-39802142D01*
X158318545Y-39802142D02*
X158356640Y-39687856D01*
X158356640Y-39687856D02*
X158432830Y-39611666D01*
X158432830Y-39611666D02*
X158509021Y-39573571D01*
X158509021Y-39573571D02*
X158661402Y-39535475D01*
X158661402Y-39535475D02*
X158775688Y-39535475D01*
X158775688Y-39535475D02*
X158928069Y-39573571D01*
X158928069Y-39573571D02*
X159004259Y-39611666D01*
X159004259Y-39611666D02*
X159080450Y-39687856D01*
X159080450Y-39687856D02*
X159118545Y-39802142D01*
X159118545Y-39802142D02*
X159118545Y-39878333D01*
X159118545Y-39878333D02*
X159080450Y-39992618D01*
X159080450Y-39992618D02*
X159042354Y-40030714D01*
X159042354Y-40030714D02*
X158775688Y-40030714D01*
X158775688Y-40030714D02*
X158775688Y-39878333D01*
X159118545Y-40373571D02*
X158318545Y-40373571D01*
X158318545Y-40373571D02*
X158318545Y-40678333D01*
X158318545Y-40678333D02*
X158356640Y-40754523D01*
X158356640Y-40754523D02*
X158394735Y-40792618D01*
X158394735Y-40792618D02*
X158470926Y-40830714D01*
X158470926Y-40830714D02*
X158585211Y-40830714D01*
X158585211Y-40830714D02*
X158661402Y-40792618D01*
X158661402Y-40792618D02*
X158699497Y-40754523D01*
X158699497Y-40754523D02*
X158737592Y-40678333D01*
X158737592Y-40678333D02*
X158737592Y-40373571D01*
X159118545Y-41592618D02*
X159118545Y-41135475D01*
X159118545Y-41364047D02*
X158318545Y-41364047D01*
X158318545Y-41364047D02*
X158432830Y-41287856D01*
X158432830Y-41287856D02*
X158509021Y-41211666D01*
X158509021Y-41211666D02*
X158547116Y-41135475D01*
X158318545Y-42278333D02*
X158318545Y-42125952D01*
X158318545Y-42125952D02*
X158356640Y-42049761D01*
X158356640Y-42049761D02*
X158394735Y-42011666D01*
X158394735Y-42011666D02*
X158509021Y-41935476D01*
X158509021Y-41935476D02*
X158661402Y-41897380D01*
X158661402Y-41897380D02*
X158966164Y-41897380D01*
X158966164Y-41897380D02*
X159042354Y-41935476D01*
X159042354Y-41935476D02*
X159080450Y-41973571D01*
X159080450Y-41973571D02*
X159118545Y-42049761D01*
X159118545Y-42049761D02*
X159118545Y-42202142D01*
X159118545Y-42202142D02*
X159080450Y-42278333D01*
X159080450Y-42278333D02*
X159042354Y-42316428D01*
X159042354Y-42316428D02*
X158966164Y-42354523D01*
X158966164Y-42354523D02*
X158775688Y-42354523D01*
X158775688Y-42354523D02*
X158699497Y-42316428D01*
X158699497Y-42316428D02*
X158661402Y-42278333D01*
X158661402Y-42278333D02*
X158623307Y-42202142D01*
X158623307Y-42202142D02*
X158623307Y-42049761D01*
X158623307Y-42049761D02*
X158661402Y-41973571D01*
X158661402Y-41973571D02*
X158699497Y-41935476D01*
X158699497Y-41935476D02*
X158775688Y-41897380D01*
X156571488Y-44269200D02*
X156457202Y-44307295D01*
X156457202Y-44307295D02*
X156266726Y-44307295D01*
X156266726Y-44307295D02*
X156190535Y-44269200D01*
X156190535Y-44269200D02*
X156152440Y-44231104D01*
X156152440Y-44231104D02*
X156114345Y-44154914D01*
X156114345Y-44154914D02*
X156114345Y-44078723D01*
X156114345Y-44078723D02*
X156152440Y-44002533D01*
X156152440Y-44002533D02*
X156190535Y-43964438D01*
X156190535Y-43964438D02*
X156266726Y-43926342D01*
X156266726Y-43926342D02*
X156419107Y-43888247D01*
X156419107Y-43888247D02*
X156495297Y-43850152D01*
X156495297Y-43850152D02*
X156533392Y-43812057D01*
X156533392Y-43812057D02*
X156571488Y-43735866D01*
X156571488Y-43735866D02*
X156571488Y-43659676D01*
X156571488Y-43659676D02*
X156533392Y-43583485D01*
X156533392Y-43583485D02*
X156495297Y-43545390D01*
X156495297Y-43545390D02*
X156419107Y-43507295D01*
X156419107Y-43507295D02*
X156228630Y-43507295D01*
X156228630Y-43507295D02*
X156114345Y-43545390D01*
X155847678Y-43507295D02*
X155657202Y-44307295D01*
X155657202Y-44307295D02*
X155504821Y-43735866D01*
X155504821Y-43735866D02*
X155352440Y-44307295D01*
X155352440Y-44307295D02*
X155161964Y-43507295D01*
X154857201Y-44307295D02*
X154857201Y-43507295D01*
X154857201Y-43507295D02*
X154666725Y-43507295D01*
X154666725Y-43507295D02*
X154552439Y-43545390D01*
X154552439Y-43545390D02*
X154476249Y-43621580D01*
X154476249Y-43621580D02*
X154438154Y-43697771D01*
X154438154Y-43697771D02*
X154400058Y-43850152D01*
X154400058Y-43850152D02*
X154400058Y-43964438D01*
X154400058Y-43964438D02*
X154438154Y-44116819D01*
X154438154Y-44116819D02*
X154476249Y-44193009D01*
X154476249Y-44193009D02*
X154552439Y-44269200D01*
X154552439Y-44269200D02*
X154666725Y-44307295D01*
X154666725Y-44307295D02*
X154857201Y-44307295D01*
X154057201Y-44307295D02*
X154057201Y-43507295D01*
X153523868Y-43507295D02*
X153371487Y-43507295D01*
X153371487Y-43507295D02*
X153295297Y-43545390D01*
X153295297Y-43545390D02*
X153219106Y-43621580D01*
X153219106Y-43621580D02*
X153181011Y-43773961D01*
X153181011Y-43773961D02*
X153181011Y-44040628D01*
X153181011Y-44040628D02*
X153219106Y-44193009D01*
X153219106Y-44193009D02*
X153295297Y-44269200D01*
X153295297Y-44269200D02*
X153371487Y-44307295D01*
X153371487Y-44307295D02*
X153523868Y-44307295D01*
X153523868Y-44307295D02*
X153600059Y-44269200D01*
X153600059Y-44269200D02*
X153676249Y-44193009D01*
X153676249Y-44193009D02*
X153714345Y-44040628D01*
X153714345Y-44040628D02*
X153714345Y-43773961D01*
X153714345Y-43773961D02*
X153676249Y-43621580D01*
X153676249Y-43621580D02*
X153600059Y-43545390D01*
X153600059Y-43545390D02*
X153523868Y-43507295D01*
X127876640Y-51915476D02*
X127838545Y-51839286D01*
X127838545Y-51839286D02*
X127838545Y-51725000D01*
X127838545Y-51725000D02*
X127876640Y-51610714D01*
X127876640Y-51610714D02*
X127952830Y-51534524D01*
X127952830Y-51534524D02*
X128029021Y-51496429D01*
X128029021Y-51496429D02*
X128181402Y-51458333D01*
X128181402Y-51458333D02*
X128295688Y-51458333D01*
X128295688Y-51458333D02*
X128448069Y-51496429D01*
X128448069Y-51496429D02*
X128524259Y-51534524D01*
X128524259Y-51534524D02*
X128600450Y-51610714D01*
X128600450Y-51610714D02*
X128638545Y-51725000D01*
X128638545Y-51725000D02*
X128638545Y-51801191D01*
X128638545Y-51801191D02*
X128600450Y-51915476D01*
X128600450Y-51915476D02*
X128562354Y-51953572D01*
X128562354Y-51953572D02*
X128295688Y-51953572D01*
X128295688Y-51953572D02*
X128295688Y-51801191D01*
X128638545Y-52296429D02*
X127838545Y-52296429D01*
X127838545Y-52296429D02*
X128638545Y-52753572D01*
X128638545Y-52753572D02*
X127838545Y-52753572D01*
X128638545Y-53134524D02*
X127838545Y-53134524D01*
X127838545Y-53134524D02*
X127838545Y-53325000D01*
X127838545Y-53325000D02*
X127876640Y-53439286D01*
X127876640Y-53439286D02*
X127952830Y-53515476D01*
X127952830Y-53515476D02*
X128029021Y-53553571D01*
X128029021Y-53553571D02*
X128181402Y-53591667D01*
X128181402Y-53591667D02*
X128295688Y-53591667D01*
X128295688Y-53591667D02*
X128448069Y-53553571D01*
X128448069Y-53553571D02*
X128524259Y-53515476D01*
X128524259Y-53515476D02*
X128600450Y-53439286D01*
X128600450Y-53439286D02*
X128638545Y-53325000D01*
X128638545Y-53325000D02*
X128638545Y-53134524D01*
X158356640Y-51222618D02*
X158318545Y-51146428D01*
X158318545Y-51146428D02*
X158318545Y-51032142D01*
X158318545Y-51032142D02*
X158356640Y-50917856D01*
X158356640Y-50917856D02*
X158432830Y-50841666D01*
X158432830Y-50841666D02*
X158509021Y-50803571D01*
X158509021Y-50803571D02*
X158661402Y-50765475D01*
X158661402Y-50765475D02*
X158775688Y-50765475D01*
X158775688Y-50765475D02*
X158928069Y-50803571D01*
X158928069Y-50803571D02*
X159004259Y-50841666D01*
X159004259Y-50841666D02*
X159080450Y-50917856D01*
X159080450Y-50917856D02*
X159118545Y-51032142D01*
X159118545Y-51032142D02*
X159118545Y-51108333D01*
X159118545Y-51108333D02*
X159080450Y-51222618D01*
X159080450Y-51222618D02*
X159042354Y-51260714D01*
X159042354Y-51260714D02*
X158775688Y-51260714D01*
X158775688Y-51260714D02*
X158775688Y-51108333D01*
X159118545Y-51603571D02*
X158318545Y-51603571D01*
X158318545Y-51603571D02*
X158318545Y-51908333D01*
X158318545Y-51908333D02*
X158356640Y-51984523D01*
X158356640Y-51984523D02*
X158394735Y-52022618D01*
X158394735Y-52022618D02*
X158470926Y-52060714D01*
X158470926Y-52060714D02*
X158585211Y-52060714D01*
X158585211Y-52060714D02*
X158661402Y-52022618D01*
X158661402Y-52022618D02*
X158699497Y-51984523D01*
X158699497Y-51984523D02*
X158737592Y-51908333D01*
X158737592Y-51908333D02*
X158737592Y-51603571D01*
X159118545Y-52822618D02*
X159118545Y-52365475D01*
X159118545Y-52594047D02*
X158318545Y-52594047D01*
X158318545Y-52594047D02*
X158432830Y-52517856D01*
X158432830Y-52517856D02*
X158509021Y-52441666D01*
X158509021Y-52441666D02*
X158547116Y-52365475D01*
X158318545Y-53546428D02*
X158318545Y-53165476D01*
X158318545Y-53165476D02*
X158699497Y-53127380D01*
X158699497Y-53127380D02*
X158661402Y-53165476D01*
X158661402Y-53165476D02*
X158623307Y-53241666D01*
X158623307Y-53241666D02*
X158623307Y-53432142D01*
X158623307Y-53432142D02*
X158661402Y-53508333D01*
X158661402Y-53508333D02*
X158699497Y-53546428D01*
X158699497Y-53546428D02*
X158775688Y-53584523D01*
X158775688Y-53584523D02*
X158966164Y-53584523D01*
X158966164Y-53584523D02*
X159042354Y-53546428D01*
X159042354Y-53546428D02*
X159080450Y-53508333D01*
X159080450Y-53508333D02*
X159118545Y-53432142D01*
X159118545Y-53432142D02*
X159118545Y-53241666D01*
X159118545Y-53241666D02*
X159080450Y-53165476D01*
X159080450Y-53165476D02*
X159042354Y-53127380D01*
X136258545Y-40004524D02*
X135877592Y-39737857D01*
X136258545Y-39547381D02*
X135458545Y-39547381D01*
X135458545Y-39547381D02*
X135458545Y-39852143D01*
X135458545Y-39852143D02*
X135496640Y-39928333D01*
X135496640Y-39928333D02*
X135534735Y-39966428D01*
X135534735Y-39966428D02*
X135610926Y-40004524D01*
X135610926Y-40004524D02*
X135725211Y-40004524D01*
X135725211Y-40004524D02*
X135801402Y-39966428D01*
X135801402Y-39966428D02*
X135839497Y-39928333D01*
X135839497Y-39928333D02*
X135877592Y-39852143D01*
X135877592Y-39852143D02*
X135877592Y-39547381D01*
X135458545Y-40347381D02*
X136106164Y-40347381D01*
X136106164Y-40347381D02*
X136182354Y-40385476D01*
X136182354Y-40385476D02*
X136220450Y-40423571D01*
X136220450Y-40423571D02*
X136258545Y-40499762D01*
X136258545Y-40499762D02*
X136258545Y-40652143D01*
X136258545Y-40652143D02*
X136220450Y-40728333D01*
X136220450Y-40728333D02*
X136182354Y-40766428D01*
X136182354Y-40766428D02*
X136106164Y-40804524D01*
X136106164Y-40804524D02*
X135458545Y-40804524D01*
X136258545Y-41185476D02*
X135458545Y-41185476D01*
X135458545Y-41185476D02*
X136258545Y-41642619D01*
X136258545Y-41642619D02*
X135458545Y-41642619D01*
X138036640Y-39992618D02*
X137998545Y-39916428D01*
X137998545Y-39916428D02*
X137998545Y-39802142D01*
X137998545Y-39802142D02*
X138036640Y-39687856D01*
X138036640Y-39687856D02*
X138112830Y-39611666D01*
X138112830Y-39611666D02*
X138189021Y-39573571D01*
X138189021Y-39573571D02*
X138341402Y-39535475D01*
X138341402Y-39535475D02*
X138455688Y-39535475D01*
X138455688Y-39535475D02*
X138608069Y-39573571D01*
X138608069Y-39573571D02*
X138684259Y-39611666D01*
X138684259Y-39611666D02*
X138760450Y-39687856D01*
X138760450Y-39687856D02*
X138798545Y-39802142D01*
X138798545Y-39802142D02*
X138798545Y-39878333D01*
X138798545Y-39878333D02*
X138760450Y-39992618D01*
X138760450Y-39992618D02*
X138722354Y-40030714D01*
X138722354Y-40030714D02*
X138455688Y-40030714D01*
X138455688Y-40030714D02*
X138455688Y-39878333D01*
X138798545Y-40373571D02*
X137998545Y-40373571D01*
X137998545Y-40373571D02*
X137998545Y-40678333D01*
X137998545Y-40678333D02*
X138036640Y-40754523D01*
X138036640Y-40754523D02*
X138074735Y-40792618D01*
X138074735Y-40792618D02*
X138150926Y-40830714D01*
X138150926Y-40830714D02*
X138265211Y-40830714D01*
X138265211Y-40830714D02*
X138341402Y-40792618D01*
X138341402Y-40792618D02*
X138379497Y-40754523D01*
X138379497Y-40754523D02*
X138417592Y-40678333D01*
X138417592Y-40678333D02*
X138417592Y-40373571D01*
X138074735Y-41135475D02*
X138036640Y-41173571D01*
X138036640Y-41173571D02*
X137998545Y-41249761D01*
X137998545Y-41249761D02*
X137998545Y-41440237D01*
X137998545Y-41440237D02*
X138036640Y-41516428D01*
X138036640Y-41516428D02*
X138074735Y-41554523D01*
X138074735Y-41554523D02*
X138150926Y-41592618D01*
X138150926Y-41592618D02*
X138227116Y-41592618D01*
X138227116Y-41592618D02*
X138341402Y-41554523D01*
X138341402Y-41554523D02*
X138798545Y-41097380D01*
X138798545Y-41097380D02*
X138798545Y-41592618D01*
X138074735Y-41897380D02*
X138036640Y-41935476D01*
X138036640Y-41935476D02*
X137998545Y-42011666D01*
X137998545Y-42011666D02*
X137998545Y-42202142D01*
X137998545Y-42202142D02*
X138036640Y-42278333D01*
X138036640Y-42278333D02*
X138074735Y-42316428D01*
X138074735Y-42316428D02*
X138150926Y-42354523D01*
X138150926Y-42354523D02*
X138227116Y-42354523D01*
X138227116Y-42354523D02*
X138341402Y-42316428D01*
X138341402Y-42316428D02*
X138798545Y-41859285D01*
X138798545Y-41859285D02*
X138798545Y-42354523D01*
X115176640Y-39835476D02*
X115138545Y-39759286D01*
X115138545Y-39759286D02*
X115138545Y-39645000D01*
X115138545Y-39645000D02*
X115176640Y-39530714D01*
X115176640Y-39530714D02*
X115252830Y-39454524D01*
X115252830Y-39454524D02*
X115329021Y-39416429D01*
X115329021Y-39416429D02*
X115481402Y-39378333D01*
X115481402Y-39378333D02*
X115595688Y-39378333D01*
X115595688Y-39378333D02*
X115748069Y-39416429D01*
X115748069Y-39416429D02*
X115824259Y-39454524D01*
X115824259Y-39454524D02*
X115900450Y-39530714D01*
X115900450Y-39530714D02*
X115938545Y-39645000D01*
X115938545Y-39645000D02*
X115938545Y-39721191D01*
X115938545Y-39721191D02*
X115900450Y-39835476D01*
X115900450Y-39835476D02*
X115862354Y-39873572D01*
X115862354Y-39873572D02*
X115595688Y-39873572D01*
X115595688Y-39873572D02*
X115595688Y-39721191D01*
X115938545Y-40216429D02*
X115138545Y-40216429D01*
X115138545Y-40216429D02*
X115938545Y-40673572D01*
X115938545Y-40673572D02*
X115138545Y-40673572D01*
X115938545Y-41054524D02*
X115138545Y-41054524D01*
X115138545Y-41054524D02*
X115138545Y-41245000D01*
X115138545Y-41245000D02*
X115176640Y-41359286D01*
X115176640Y-41359286D02*
X115252830Y-41435476D01*
X115252830Y-41435476D02*
X115329021Y-41473571D01*
X115329021Y-41473571D02*
X115481402Y-41511667D01*
X115481402Y-41511667D02*
X115595688Y-41511667D01*
X115595688Y-41511667D02*
X115748069Y-41473571D01*
X115748069Y-41473571D02*
X115824259Y-41435476D01*
X115824259Y-41435476D02*
X115900450Y-41359286D01*
X115900450Y-41359286D02*
X115938545Y-41245000D01*
X115938545Y-41245000D02*
X115938545Y-41054524D01*
X153276640Y-39985476D02*
X153238545Y-39909286D01*
X153238545Y-39909286D02*
X153238545Y-39795000D01*
X153238545Y-39795000D02*
X153276640Y-39680714D01*
X153276640Y-39680714D02*
X153352830Y-39604524D01*
X153352830Y-39604524D02*
X153429021Y-39566429D01*
X153429021Y-39566429D02*
X153581402Y-39528333D01*
X153581402Y-39528333D02*
X153695688Y-39528333D01*
X153695688Y-39528333D02*
X153848069Y-39566429D01*
X153848069Y-39566429D02*
X153924259Y-39604524D01*
X153924259Y-39604524D02*
X154000450Y-39680714D01*
X154000450Y-39680714D02*
X154038545Y-39795000D01*
X154038545Y-39795000D02*
X154038545Y-39871191D01*
X154038545Y-39871191D02*
X154000450Y-39985476D01*
X154000450Y-39985476D02*
X153962354Y-40023572D01*
X153962354Y-40023572D02*
X153695688Y-40023572D01*
X153695688Y-40023572D02*
X153695688Y-39871191D01*
X154038545Y-40366429D02*
X153238545Y-40366429D01*
X153238545Y-40366429D02*
X154038545Y-40823572D01*
X154038545Y-40823572D02*
X153238545Y-40823572D01*
X154038545Y-41204524D02*
X153238545Y-41204524D01*
X153238545Y-41204524D02*
X153238545Y-41395000D01*
X153238545Y-41395000D02*
X153276640Y-41509286D01*
X153276640Y-41509286D02*
X153352830Y-41585476D01*
X153352830Y-41585476D02*
X153429021Y-41623571D01*
X153429021Y-41623571D02*
X153581402Y-41661667D01*
X153581402Y-41661667D02*
X153695688Y-41661667D01*
X153695688Y-41661667D02*
X153848069Y-41623571D01*
X153848069Y-41623571D02*
X153924259Y-41585476D01*
X153924259Y-41585476D02*
X154000450Y-41509286D01*
X154000450Y-41509286D02*
X154038545Y-41395000D01*
X154038545Y-41395000D02*
X154038545Y-41204524D01*
X130416640Y-51953571D02*
X130378545Y-51877381D01*
X130378545Y-51877381D02*
X130378545Y-51763095D01*
X130378545Y-51763095D02*
X130416640Y-51648809D01*
X130416640Y-51648809D02*
X130492830Y-51572619D01*
X130492830Y-51572619D02*
X130569021Y-51534524D01*
X130569021Y-51534524D02*
X130721402Y-51496428D01*
X130721402Y-51496428D02*
X130835688Y-51496428D01*
X130835688Y-51496428D02*
X130988069Y-51534524D01*
X130988069Y-51534524D02*
X131064259Y-51572619D01*
X131064259Y-51572619D02*
X131140450Y-51648809D01*
X131140450Y-51648809D02*
X131178545Y-51763095D01*
X131178545Y-51763095D02*
X131178545Y-51839286D01*
X131178545Y-51839286D02*
X131140450Y-51953571D01*
X131140450Y-51953571D02*
X131102354Y-51991667D01*
X131102354Y-51991667D02*
X130835688Y-51991667D01*
X130835688Y-51991667D02*
X130835688Y-51839286D01*
X131178545Y-52334524D02*
X130378545Y-52334524D01*
X130378545Y-52334524D02*
X130378545Y-52639286D01*
X130378545Y-52639286D02*
X130416640Y-52715476D01*
X130416640Y-52715476D02*
X130454735Y-52753571D01*
X130454735Y-52753571D02*
X130530926Y-52791667D01*
X130530926Y-52791667D02*
X130645211Y-52791667D01*
X130645211Y-52791667D02*
X130721402Y-52753571D01*
X130721402Y-52753571D02*
X130759497Y-52715476D01*
X130759497Y-52715476D02*
X130797592Y-52639286D01*
X130797592Y-52639286D02*
X130797592Y-52334524D01*
X130378545Y-53477381D02*
X130378545Y-53325000D01*
X130378545Y-53325000D02*
X130416640Y-53248809D01*
X130416640Y-53248809D02*
X130454735Y-53210714D01*
X130454735Y-53210714D02*
X130569021Y-53134524D01*
X130569021Y-53134524D02*
X130721402Y-53096428D01*
X130721402Y-53096428D02*
X131026164Y-53096428D01*
X131026164Y-53096428D02*
X131102354Y-53134524D01*
X131102354Y-53134524D02*
X131140450Y-53172619D01*
X131140450Y-53172619D02*
X131178545Y-53248809D01*
X131178545Y-53248809D02*
X131178545Y-53401190D01*
X131178545Y-53401190D02*
X131140450Y-53477381D01*
X131140450Y-53477381D02*
X131102354Y-53515476D01*
X131102354Y-53515476D02*
X131026164Y-53553571D01*
X131026164Y-53553571D02*
X130835688Y-53553571D01*
X130835688Y-53553571D02*
X130759497Y-53515476D01*
X130759497Y-53515476D02*
X130721402Y-53477381D01*
X130721402Y-53477381D02*
X130683307Y-53401190D01*
X130683307Y-53401190D02*
X130683307Y-53248809D01*
X130683307Y-53248809D02*
X130721402Y-53172619D01*
X130721402Y-53172619D02*
X130759497Y-53134524D01*
X130759497Y-53134524D02*
X130835688Y-53096428D01*
X120218545Y-39454523D02*
X120218545Y-39949761D01*
X120218545Y-39949761D02*
X120523307Y-39683095D01*
X120523307Y-39683095D02*
X120523307Y-39797380D01*
X120523307Y-39797380D02*
X120561402Y-39873571D01*
X120561402Y-39873571D02*
X120599497Y-39911666D01*
X120599497Y-39911666D02*
X120675688Y-39949761D01*
X120675688Y-39949761D02*
X120866164Y-39949761D01*
X120866164Y-39949761D02*
X120942354Y-39911666D01*
X120942354Y-39911666D02*
X120980450Y-39873571D01*
X120980450Y-39873571D02*
X121018545Y-39797380D01*
X121018545Y-39797380D02*
X121018545Y-39568809D01*
X121018545Y-39568809D02*
X120980450Y-39492618D01*
X120980450Y-39492618D02*
X120942354Y-39454523D01*
X120218545Y-40178333D02*
X121018545Y-40445000D01*
X121018545Y-40445000D02*
X120218545Y-40711666D01*
X120218545Y-40902142D02*
X120218545Y-41397380D01*
X120218545Y-41397380D02*
X120523307Y-41130714D01*
X120523307Y-41130714D02*
X120523307Y-41244999D01*
X120523307Y-41244999D02*
X120561402Y-41321190D01*
X120561402Y-41321190D02*
X120599497Y-41359285D01*
X120599497Y-41359285D02*
X120675688Y-41397380D01*
X120675688Y-41397380D02*
X120866164Y-41397380D01*
X120866164Y-41397380D02*
X120942354Y-41359285D01*
X120942354Y-41359285D02*
X120980450Y-41321190D01*
X120980450Y-41321190D02*
X121018545Y-41244999D01*
X121018545Y-41244999D02*
X121018545Y-41016428D01*
X121018545Y-41016428D02*
X120980450Y-40940237D01*
X120980450Y-40940237D02*
X120942354Y-40902142D01*
X156685774Y-49349200D02*
X156571488Y-49387295D01*
X156571488Y-49387295D02*
X156381012Y-49387295D01*
X156381012Y-49387295D02*
X156304821Y-49349200D01*
X156304821Y-49349200D02*
X156266726Y-49311104D01*
X156266726Y-49311104D02*
X156228631Y-49234914D01*
X156228631Y-49234914D02*
X156228631Y-49158723D01*
X156228631Y-49158723D02*
X156266726Y-49082533D01*
X156266726Y-49082533D02*
X156304821Y-49044438D01*
X156304821Y-49044438D02*
X156381012Y-49006342D01*
X156381012Y-49006342D02*
X156533393Y-48968247D01*
X156533393Y-48968247D02*
X156609583Y-48930152D01*
X156609583Y-48930152D02*
X156647678Y-48892057D01*
X156647678Y-48892057D02*
X156685774Y-48815866D01*
X156685774Y-48815866D02*
X156685774Y-48739676D01*
X156685774Y-48739676D02*
X156647678Y-48663485D01*
X156647678Y-48663485D02*
X156609583Y-48625390D01*
X156609583Y-48625390D02*
X156533393Y-48587295D01*
X156533393Y-48587295D02*
X156342916Y-48587295D01*
X156342916Y-48587295D02*
X156228631Y-48625390D01*
X155961964Y-48587295D02*
X155771488Y-49387295D01*
X155771488Y-49387295D02*
X155619107Y-48815866D01*
X155619107Y-48815866D02*
X155466726Y-49387295D01*
X155466726Y-49387295D02*
X155276250Y-48587295D01*
X154514344Y-49311104D02*
X154552440Y-49349200D01*
X154552440Y-49349200D02*
X154666725Y-49387295D01*
X154666725Y-49387295D02*
X154742916Y-49387295D01*
X154742916Y-49387295D02*
X154857202Y-49349200D01*
X154857202Y-49349200D02*
X154933392Y-49273009D01*
X154933392Y-49273009D02*
X154971487Y-49196819D01*
X154971487Y-49196819D02*
X155009583Y-49044438D01*
X155009583Y-49044438D02*
X155009583Y-48930152D01*
X155009583Y-48930152D02*
X154971487Y-48777771D01*
X154971487Y-48777771D02*
X154933392Y-48701580D01*
X154933392Y-48701580D02*
X154857202Y-48625390D01*
X154857202Y-48625390D02*
X154742916Y-48587295D01*
X154742916Y-48587295D02*
X154666725Y-48587295D01*
X154666725Y-48587295D02*
X154552440Y-48625390D01*
X154552440Y-48625390D02*
X154514344Y-48663485D01*
X153790535Y-49387295D02*
X154171487Y-49387295D01*
X154171487Y-49387295D02*
X154171487Y-48587295D01*
X153523868Y-49387295D02*
X153523868Y-48587295D01*
X153066725Y-49387295D02*
X153409583Y-48930152D01*
X153066725Y-48587295D02*
X153523868Y-49044438D01*
X132926640Y-51953571D02*
X132888545Y-51877381D01*
X132888545Y-51877381D02*
X132888545Y-51763095D01*
X132888545Y-51763095D02*
X132926640Y-51648809D01*
X132926640Y-51648809D02*
X133002830Y-51572619D01*
X133002830Y-51572619D02*
X133079021Y-51534524D01*
X133079021Y-51534524D02*
X133231402Y-51496428D01*
X133231402Y-51496428D02*
X133345688Y-51496428D01*
X133345688Y-51496428D02*
X133498069Y-51534524D01*
X133498069Y-51534524D02*
X133574259Y-51572619D01*
X133574259Y-51572619D02*
X133650450Y-51648809D01*
X133650450Y-51648809D02*
X133688545Y-51763095D01*
X133688545Y-51763095D02*
X133688545Y-51839286D01*
X133688545Y-51839286D02*
X133650450Y-51953571D01*
X133650450Y-51953571D02*
X133612354Y-51991667D01*
X133612354Y-51991667D02*
X133345688Y-51991667D01*
X133345688Y-51991667D02*
X133345688Y-51839286D01*
X133688545Y-52334524D02*
X132888545Y-52334524D01*
X132888545Y-52334524D02*
X132888545Y-52639286D01*
X132888545Y-52639286D02*
X132926640Y-52715476D01*
X132926640Y-52715476D02*
X132964735Y-52753571D01*
X132964735Y-52753571D02*
X133040926Y-52791667D01*
X133040926Y-52791667D02*
X133155211Y-52791667D01*
X133155211Y-52791667D02*
X133231402Y-52753571D01*
X133231402Y-52753571D02*
X133269497Y-52715476D01*
X133269497Y-52715476D02*
X133307592Y-52639286D01*
X133307592Y-52639286D02*
X133307592Y-52334524D01*
X132888545Y-53058333D02*
X132888545Y-53591667D01*
X132888545Y-53591667D02*
X133688545Y-53248809D01*
X135496640Y-51953571D02*
X135458545Y-51877381D01*
X135458545Y-51877381D02*
X135458545Y-51763095D01*
X135458545Y-51763095D02*
X135496640Y-51648809D01*
X135496640Y-51648809D02*
X135572830Y-51572619D01*
X135572830Y-51572619D02*
X135649021Y-51534524D01*
X135649021Y-51534524D02*
X135801402Y-51496428D01*
X135801402Y-51496428D02*
X135915688Y-51496428D01*
X135915688Y-51496428D02*
X136068069Y-51534524D01*
X136068069Y-51534524D02*
X136144259Y-51572619D01*
X136144259Y-51572619D02*
X136220450Y-51648809D01*
X136220450Y-51648809D02*
X136258545Y-51763095D01*
X136258545Y-51763095D02*
X136258545Y-51839286D01*
X136258545Y-51839286D02*
X136220450Y-51953571D01*
X136220450Y-51953571D02*
X136182354Y-51991667D01*
X136182354Y-51991667D02*
X135915688Y-51991667D01*
X135915688Y-51991667D02*
X135915688Y-51839286D01*
X136258545Y-52334524D02*
X135458545Y-52334524D01*
X135458545Y-52334524D02*
X135458545Y-52639286D01*
X135458545Y-52639286D02*
X135496640Y-52715476D01*
X135496640Y-52715476D02*
X135534735Y-52753571D01*
X135534735Y-52753571D02*
X135610926Y-52791667D01*
X135610926Y-52791667D02*
X135725211Y-52791667D01*
X135725211Y-52791667D02*
X135801402Y-52753571D01*
X135801402Y-52753571D02*
X135839497Y-52715476D01*
X135839497Y-52715476D02*
X135877592Y-52639286D01*
X135877592Y-52639286D02*
X135877592Y-52334524D01*
X135801402Y-53248809D02*
X135763307Y-53172619D01*
X135763307Y-53172619D02*
X135725211Y-53134524D01*
X135725211Y-53134524D02*
X135649021Y-53096428D01*
X135649021Y-53096428D02*
X135610926Y-53096428D01*
X135610926Y-53096428D02*
X135534735Y-53134524D01*
X135534735Y-53134524D02*
X135496640Y-53172619D01*
X135496640Y-53172619D02*
X135458545Y-53248809D01*
X135458545Y-53248809D02*
X135458545Y-53401190D01*
X135458545Y-53401190D02*
X135496640Y-53477381D01*
X135496640Y-53477381D02*
X135534735Y-53515476D01*
X135534735Y-53515476D02*
X135610926Y-53553571D01*
X135610926Y-53553571D02*
X135649021Y-53553571D01*
X135649021Y-53553571D02*
X135725211Y-53515476D01*
X135725211Y-53515476D02*
X135763307Y-53477381D01*
X135763307Y-53477381D02*
X135801402Y-53401190D01*
X135801402Y-53401190D02*
X135801402Y-53248809D01*
X135801402Y-53248809D02*
X135839497Y-53172619D01*
X135839497Y-53172619D02*
X135877592Y-53134524D01*
X135877592Y-53134524D02*
X135953783Y-53096428D01*
X135953783Y-53096428D02*
X136106164Y-53096428D01*
X136106164Y-53096428D02*
X136182354Y-53134524D01*
X136182354Y-53134524D02*
X136220450Y-53172619D01*
X136220450Y-53172619D02*
X136258545Y-53248809D01*
X136258545Y-53248809D02*
X136258545Y-53401190D01*
X136258545Y-53401190D02*
X136220450Y-53477381D01*
X136220450Y-53477381D02*
X136182354Y-53515476D01*
X136182354Y-53515476D02*
X136106164Y-53553571D01*
X136106164Y-53553571D02*
X135953783Y-53553571D01*
X135953783Y-53553571D02*
X135877592Y-53515476D01*
X135877592Y-53515476D02*
X135839497Y-53477381D01*
X135839497Y-53477381D02*
X135801402Y-53401190D01*
X148196640Y-51222618D02*
X148158545Y-51146428D01*
X148158545Y-51146428D02*
X148158545Y-51032142D01*
X148158545Y-51032142D02*
X148196640Y-50917856D01*
X148196640Y-50917856D02*
X148272830Y-50841666D01*
X148272830Y-50841666D02*
X148349021Y-50803571D01*
X148349021Y-50803571D02*
X148501402Y-50765475D01*
X148501402Y-50765475D02*
X148615688Y-50765475D01*
X148615688Y-50765475D02*
X148768069Y-50803571D01*
X148768069Y-50803571D02*
X148844259Y-50841666D01*
X148844259Y-50841666D02*
X148920450Y-50917856D01*
X148920450Y-50917856D02*
X148958545Y-51032142D01*
X148958545Y-51032142D02*
X148958545Y-51108333D01*
X148958545Y-51108333D02*
X148920450Y-51222618D01*
X148920450Y-51222618D02*
X148882354Y-51260714D01*
X148882354Y-51260714D02*
X148615688Y-51260714D01*
X148615688Y-51260714D02*
X148615688Y-51108333D01*
X148958545Y-51603571D02*
X148158545Y-51603571D01*
X148158545Y-51603571D02*
X148158545Y-51908333D01*
X148158545Y-51908333D02*
X148196640Y-51984523D01*
X148196640Y-51984523D02*
X148234735Y-52022618D01*
X148234735Y-52022618D02*
X148310926Y-52060714D01*
X148310926Y-52060714D02*
X148425211Y-52060714D01*
X148425211Y-52060714D02*
X148501402Y-52022618D01*
X148501402Y-52022618D02*
X148539497Y-51984523D01*
X148539497Y-51984523D02*
X148577592Y-51908333D01*
X148577592Y-51908333D02*
X148577592Y-51603571D01*
X148958545Y-52822618D02*
X148958545Y-52365475D01*
X148958545Y-52594047D02*
X148158545Y-52594047D01*
X148158545Y-52594047D02*
X148272830Y-52517856D01*
X148272830Y-52517856D02*
X148349021Y-52441666D01*
X148349021Y-52441666D02*
X148387116Y-52365475D01*
X148234735Y-53127380D02*
X148196640Y-53165476D01*
X148196640Y-53165476D02*
X148158545Y-53241666D01*
X148158545Y-53241666D02*
X148158545Y-53432142D01*
X148158545Y-53432142D02*
X148196640Y-53508333D01*
X148196640Y-53508333D02*
X148234735Y-53546428D01*
X148234735Y-53546428D02*
X148310926Y-53584523D01*
X148310926Y-53584523D02*
X148387116Y-53584523D01*
X148387116Y-53584523D02*
X148501402Y-53546428D01*
X148501402Y-53546428D02*
X148958545Y-53089285D01*
X148958545Y-53089285D02*
X148958545Y-53584523D01*
X145656640Y-39992618D02*
X145618545Y-39916428D01*
X145618545Y-39916428D02*
X145618545Y-39802142D01*
X145618545Y-39802142D02*
X145656640Y-39687856D01*
X145656640Y-39687856D02*
X145732830Y-39611666D01*
X145732830Y-39611666D02*
X145809021Y-39573571D01*
X145809021Y-39573571D02*
X145961402Y-39535475D01*
X145961402Y-39535475D02*
X146075688Y-39535475D01*
X146075688Y-39535475D02*
X146228069Y-39573571D01*
X146228069Y-39573571D02*
X146304259Y-39611666D01*
X146304259Y-39611666D02*
X146380450Y-39687856D01*
X146380450Y-39687856D02*
X146418545Y-39802142D01*
X146418545Y-39802142D02*
X146418545Y-39878333D01*
X146418545Y-39878333D02*
X146380450Y-39992618D01*
X146380450Y-39992618D02*
X146342354Y-40030714D01*
X146342354Y-40030714D02*
X146075688Y-40030714D01*
X146075688Y-40030714D02*
X146075688Y-39878333D01*
X146418545Y-40373571D02*
X145618545Y-40373571D01*
X145618545Y-40373571D02*
X145618545Y-40678333D01*
X145618545Y-40678333D02*
X145656640Y-40754523D01*
X145656640Y-40754523D02*
X145694735Y-40792618D01*
X145694735Y-40792618D02*
X145770926Y-40830714D01*
X145770926Y-40830714D02*
X145885211Y-40830714D01*
X145885211Y-40830714D02*
X145961402Y-40792618D01*
X145961402Y-40792618D02*
X145999497Y-40754523D01*
X145999497Y-40754523D02*
X146037592Y-40678333D01*
X146037592Y-40678333D02*
X146037592Y-40373571D01*
X145694735Y-41135475D02*
X145656640Y-41173571D01*
X145656640Y-41173571D02*
X145618545Y-41249761D01*
X145618545Y-41249761D02*
X145618545Y-41440237D01*
X145618545Y-41440237D02*
X145656640Y-41516428D01*
X145656640Y-41516428D02*
X145694735Y-41554523D01*
X145694735Y-41554523D02*
X145770926Y-41592618D01*
X145770926Y-41592618D02*
X145847116Y-41592618D01*
X145847116Y-41592618D02*
X145961402Y-41554523D01*
X145961402Y-41554523D02*
X146418545Y-41097380D01*
X146418545Y-41097380D02*
X146418545Y-41592618D01*
X145618545Y-42087857D02*
X145618545Y-42164047D01*
X145618545Y-42164047D02*
X145656640Y-42240238D01*
X145656640Y-42240238D02*
X145694735Y-42278333D01*
X145694735Y-42278333D02*
X145770926Y-42316428D01*
X145770926Y-42316428D02*
X145923307Y-42354523D01*
X145923307Y-42354523D02*
X146113783Y-42354523D01*
X146113783Y-42354523D02*
X146266164Y-42316428D01*
X146266164Y-42316428D02*
X146342354Y-42278333D01*
X146342354Y-42278333D02*
X146380450Y-42240238D01*
X146380450Y-42240238D02*
X146418545Y-42164047D01*
X146418545Y-42164047D02*
X146418545Y-42087857D01*
X146418545Y-42087857D02*
X146380450Y-42011666D01*
X146380450Y-42011666D02*
X146342354Y-41973571D01*
X146342354Y-41973571D02*
X146266164Y-41935476D01*
X146266164Y-41935476D02*
X146113783Y-41897380D01*
X146113783Y-41897380D02*
X145923307Y-41897380D01*
X145923307Y-41897380D02*
X145770926Y-41935476D01*
X145770926Y-41935476D02*
X145694735Y-41973571D01*
X145694735Y-41973571D02*
X145656640Y-42011666D01*
X145656640Y-42011666D02*
X145618545Y-42087857D01*
X150736640Y-39992618D02*
X150698545Y-39916428D01*
X150698545Y-39916428D02*
X150698545Y-39802142D01*
X150698545Y-39802142D02*
X150736640Y-39687856D01*
X150736640Y-39687856D02*
X150812830Y-39611666D01*
X150812830Y-39611666D02*
X150889021Y-39573571D01*
X150889021Y-39573571D02*
X151041402Y-39535475D01*
X151041402Y-39535475D02*
X151155688Y-39535475D01*
X151155688Y-39535475D02*
X151308069Y-39573571D01*
X151308069Y-39573571D02*
X151384259Y-39611666D01*
X151384259Y-39611666D02*
X151460450Y-39687856D01*
X151460450Y-39687856D02*
X151498545Y-39802142D01*
X151498545Y-39802142D02*
X151498545Y-39878333D01*
X151498545Y-39878333D02*
X151460450Y-39992618D01*
X151460450Y-39992618D02*
X151422354Y-40030714D01*
X151422354Y-40030714D02*
X151155688Y-40030714D01*
X151155688Y-40030714D02*
X151155688Y-39878333D01*
X151498545Y-40373571D02*
X150698545Y-40373571D01*
X150698545Y-40373571D02*
X150698545Y-40678333D01*
X150698545Y-40678333D02*
X150736640Y-40754523D01*
X150736640Y-40754523D02*
X150774735Y-40792618D01*
X150774735Y-40792618D02*
X150850926Y-40830714D01*
X150850926Y-40830714D02*
X150965211Y-40830714D01*
X150965211Y-40830714D02*
X151041402Y-40792618D01*
X151041402Y-40792618D02*
X151079497Y-40754523D01*
X151079497Y-40754523D02*
X151117592Y-40678333D01*
X151117592Y-40678333D02*
X151117592Y-40373571D01*
X151498545Y-41592618D02*
X151498545Y-41135475D01*
X151498545Y-41364047D02*
X150698545Y-41364047D01*
X150698545Y-41364047D02*
X150812830Y-41287856D01*
X150812830Y-41287856D02*
X150889021Y-41211666D01*
X150889021Y-41211666D02*
X150927116Y-41135475D01*
X151041402Y-42049761D02*
X151003307Y-41973571D01*
X151003307Y-41973571D02*
X150965211Y-41935476D01*
X150965211Y-41935476D02*
X150889021Y-41897380D01*
X150889021Y-41897380D02*
X150850926Y-41897380D01*
X150850926Y-41897380D02*
X150774735Y-41935476D01*
X150774735Y-41935476D02*
X150736640Y-41973571D01*
X150736640Y-41973571D02*
X150698545Y-42049761D01*
X150698545Y-42049761D02*
X150698545Y-42202142D01*
X150698545Y-42202142D02*
X150736640Y-42278333D01*
X150736640Y-42278333D02*
X150774735Y-42316428D01*
X150774735Y-42316428D02*
X150850926Y-42354523D01*
X150850926Y-42354523D02*
X150889021Y-42354523D01*
X150889021Y-42354523D02*
X150965211Y-42316428D01*
X150965211Y-42316428D02*
X151003307Y-42278333D01*
X151003307Y-42278333D02*
X151041402Y-42202142D01*
X151041402Y-42202142D02*
X151041402Y-42049761D01*
X151041402Y-42049761D02*
X151079497Y-41973571D01*
X151079497Y-41973571D02*
X151117592Y-41935476D01*
X151117592Y-41935476D02*
X151193783Y-41897380D01*
X151193783Y-41897380D02*
X151346164Y-41897380D01*
X151346164Y-41897380D02*
X151422354Y-41935476D01*
X151422354Y-41935476D02*
X151460450Y-41973571D01*
X151460450Y-41973571D02*
X151498545Y-42049761D01*
X151498545Y-42049761D02*
X151498545Y-42202142D01*
X151498545Y-42202142D02*
X151460450Y-42278333D01*
X151460450Y-42278333D02*
X151422354Y-42316428D01*
X151422354Y-42316428D02*
X151346164Y-42354523D01*
X151346164Y-42354523D02*
X151193783Y-42354523D01*
X151193783Y-42354523D02*
X151117592Y-42316428D01*
X151117592Y-42316428D02*
X151079497Y-42278333D01*
X151079497Y-42278333D02*
X151041402Y-42202142D01*
X110058545Y-39228333D02*
X110858545Y-39495000D01*
X110858545Y-39495000D02*
X110058545Y-39761666D01*
X110439497Y-40294999D02*
X110477592Y-40409285D01*
X110477592Y-40409285D02*
X110515688Y-40447380D01*
X110515688Y-40447380D02*
X110591878Y-40485476D01*
X110591878Y-40485476D02*
X110706164Y-40485476D01*
X110706164Y-40485476D02*
X110782354Y-40447380D01*
X110782354Y-40447380D02*
X110820450Y-40409285D01*
X110820450Y-40409285D02*
X110858545Y-40333095D01*
X110858545Y-40333095D02*
X110858545Y-40028333D01*
X110858545Y-40028333D02*
X110058545Y-40028333D01*
X110058545Y-40028333D02*
X110058545Y-40294999D01*
X110058545Y-40294999D02*
X110096640Y-40371190D01*
X110096640Y-40371190D02*
X110134735Y-40409285D01*
X110134735Y-40409285D02*
X110210926Y-40447380D01*
X110210926Y-40447380D02*
X110287116Y-40447380D01*
X110287116Y-40447380D02*
X110363307Y-40409285D01*
X110363307Y-40409285D02*
X110401402Y-40371190D01*
X110401402Y-40371190D02*
X110439497Y-40294999D01*
X110439497Y-40294999D02*
X110439497Y-40028333D01*
X110058545Y-40828333D02*
X110706164Y-40828333D01*
X110706164Y-40828333D02*
X110782354Y-40866428D01*
X110782354Y-40866428D02*
X110820450Y-40904523D01*
X110820450Y-40904523D02*
X110858545Y-40980714D01*
X110858545Y-40980714D02*
X110858545Y-41133095D01*
X110858545Y-41133095D02*
X110820450Y-41209285D01*
X110820450Y-41209285D02*
X110782354Y-41247380D01*
X110782354Y-41247380D02*
X110706164Y-41285476D01*
X110706164Y-41285476D02*
X110058545Y-41285476D01*
X110820450Y-41628332D02*
X110858545Y-41742618D01*
X110858545Y-41742618D02*
X110858545Y-41933094D01*
X110858545Y-41933094D02*
X110820450Y-42009285D01*
X110820450Y-42009285D02*
X110782354Y-42047380D01*
X110782354Y-42047380D02*
X110706164Y-42085475D01*
X110706164Y-42085475D02*
X110629973Y-42085475D01*
X110629973Y-42085475D02*
X110553783Y-42047380D01*
X110553783Y-42047380D02*
X110515688Y-42009285D01*
X110515688Y-42009285D02*
X110477592Y-41933094D01*
X110477592Y-41933094D02*
X110439497Y-41780713D01*
X110439497Y-41780713D02*
X110401402Y-41704523D01*
X110401402Y-41704523D02*
X110363307Y-41666428D01*
X110363307Y-41666428D02*
X110287116Y-41628332D01*
X110287116Y-41628332D02*
X110210926Y-41628332D01*
X110210926Y-41628332D02*
X110134735Y-41666428D01*
X110134735Y-41666428D02*
X110096640Y-41704523D01*
X110096640Y-41704523D02*
X110058545Y-41780713D01*
X110058545Y-41780713D02*
X110058545Y-41971190D01*
X110058545Y-41971190D02*
X110096640Y-42085475D01*
X130426640Y-39992618D02*
X130388545Y-39916428D01*
X130388545Y-39916428D02*
X130388545Y-39802142D01*
X130388545Y-39802142D02*
X130426640Y-39687856D01*
X130426640Y-39687856D02*
X130502830Y-39611666D01*
X130502830Y-39611666D02*
X130579021Y-39573571D01*
X130579021Y-39573571D02*
X130731402Y-39535475D01*
X130731402Y-39535475D02*
X130845688Y-39535475D01*
X130845688Y-39535475D02*
X130998069Y-39573571D01*
X130998069Y-39573571D02*
X131074259Y-39611666D01*
X131074259Y-39611666D02*
X131150450Y-39687856D01*
X131150450Y-39687856D02*
X131188545Y-39802142D01*
X131188545Y-39802142D02*
X131188545Y-39878333D01*
X131188545Y-39878333D02*
X131150450Y-39992618D01*
X131150450Y-39992618D02*
X131112354Y-40030714D01*
X131112354Y-40030714D02*
X130845688Y-40030714D01*
X130845688Y-40030714D02*
X130845688Y-39878333D01*
X131188545Y-40373571D02*
X130388545Y-40373571D01*
X130388545Y-40373571D02*
X130388545Y-40678333D01*
X130388545Y-40678333D02*
X130426640Y-40754523D01*
X130426640Y-40754523D02*
X130464735Y-40792618D01*
X130464735Y-40792618D02*
X130540926Y-40830714D01*
X130540926Y-40830714D02*
X130655211Y-40830714D01*
X130655211Y-40830714D02*
X130731402Y-40792618D01*
X130731402Y-40792618D02*
X130769497Y-40754523D01*
X130769497Y-40754523D02*
X130807592Y-40678333D01*
X130807592Y-40678333D02*
X130807592Y-40373571D01*
X130464735Y-41135475D02*
X130426640Y-41173571D01*
X130426640Y-41173571D02*
X130388545Y-41249761D01*
X130388545Y-41249761D02*
X130388545Y-41440237D01*
X130388545Y-41440237D02*
X130426640Y-41516428D01*
X130426640Y-41516428D02*
X130464735Y-41554523D01*
X130464735Y-41554523D02*
X130540926Y-41592618D01*
X130540926Y-41592618D02*
X130617116Y-41592618D01*
X130617116Y-41592618D02*
X130731402Y-41554523D01*
X130731402Y-41554523D02*
X131188545Y-41097380D01*
X131188545Y-41097380D02*
X131188545Y-41592618D01*
X130388545Y-41859285D02*
X130388545Y-42392619D01*
X130388545Y-42392619D02*
X131188545Y-42049761D01*
X148196640Y-39992618D02*
X148158545Y-39916428D01*
X148158545Y-39916428D02*
X148158545Y-39802142D01*
X148158545Y-39802142D02*
X148196640Y-39687856D01*
X148196640Y-39687856D02*
X148272830Y-39611666D01*
X148272830Y-39611666D02*
X148349021Y-39573571D01*
X148349021Y-39573571D02*
X148501402Y-39535475D01*
X148501402Y-39535475D02*
X148615688Y-39535475D01*
X148615688Y-39535475D02*
X148768069Y-39573571D01*
X148768069Y-39573571D02*
X148844259Y-39611666D01*
X148844259Y-39611666D02*
X148920450Y-39687856D01*
X148920450Y-39687856D02*
X148958545Y-39802142D01*
X148958545Y-39802142D02*
X148958545Y-39878333D01*
X148958545Y-39878333D02*
X148920450Y-39992618D01*
X148920450Y-39992618D02*
X148882354Y-40030714D01*
X148882354Y-40030714D02*
X148615688Y-40030714D01*
X148615688Y-40030714D02*
X148615688Y-39878333D01*
X148958545Y-40373571D02*
X148158545Y-40373571D01*
X148158545Y-40373571D02*
X148158545Y-40678333D01*
X148158545Y-40678333D02*
X148196640Y-40754523D01*
X148196640Y-40754523D02*
X148234735Y-40792618D01*
X148234735Y-40792618D02*
X148310926Y-40830714D01*
X148310926Y-40830714D02*
X148425211Y-40830714D01*
X148425211Y-40830714D02*
X148501402Y-40792618D01*
X148501402Y-40792618D02*
X148539497Y-40754523D01*
X148539497Y-40754523D02*
X148577592Y-40678333D01*
X148577592Y-40678333D02*
X148577592Y-40373571D01*
X148958545Y-41592618D02*
X148958545Y-41135475D01*
X148958545Y-41364047D02*
X148158545Y-41364047D01*
X148158545Y-41364047D02*
X148272830Y-41287856D01*
X148272830Y-41287856D02*
X148349021Y-41211666D01*
X148349021Y-41211666D02*
X148387116Y-41135475D01*
X148958545Y-41973571D02*
X148958545Y-42125952D01*
X148958545Y-42125952D02*
X148920450Y-42202142D01*
X148920450Y-42202142D02*
X148882354Y-42240238D01*
X148882354Y-42240238D02*
X148768069Y-42316428D01*
X148768069Y-42316428D02*
X148615688Y-42354523D01*
X148615688Y-42354523D02*
X148310926Y-42354523D01*
X148310926Y-42354523D02*
X148234735Y-42316428D01*
X148234735Y-42316428D02*
X148196640Y-42278333D01*
X148196640Y-42278333D02*
X148158545Y-42202142D01*
X148158545Y-42202142D02*
X148158545Y-42049761D01*
X148158545Y-42049761D02*
X148196640Y-41973571D01*
X148196640Y-41973571D02*
X148234735Y-41935476D01*
X148234735Y-41935476D02*
X148310926Y-41897380D01*
X148310926Y-41897380D02*
X148501402Y-41897380D01*
X148501402Y-41897380D02*
X148577592Y-41935476D01*
X148577592Y-41935476D02*
X148615688Y-41973571D01*
X148615688Y-41973571D02*
X148653783Y-42049761D01*
X148653783Y-42049761D02*
X148653783Y-42202142D01*
X148653783Y-42202142D02*
X148615688Y-42278333D01*
X148615688Y-42278333D02*
X148577592Y-42316428D01*
X148577592Y-42316428D02*
X148501402Y-42354523D01*
X155816640Y-51222618D02*
X155778545Y-51146428D01*
X155778545Y-51146428D02*
X155778545Y-51032142D01*
X155778545Y-51032142D02*
X155816640Y-50917856D01*
X155816640Y-50917856D02*
X155892830Y-50841666D01*
X155892830Y-50841666D02*
X155969021Y-50803571D01*
X155969021Y-50803571D02*
X156121402Y-50765475D01*
X156121402Y-50765475D02*
X156235688Y-50765475D01*
X156235688Y-50765475D02*
X156388069Y-50803571D01*
X156388069Y-50803571D02*
X156464259Y-50841666D01*
X156464259Y-50841666D02*
X156540450Y-50917856D01*
X156540450Y-50917856D02*
X156578545Y-51032142D01*
X156578545Y-51032142D02*
X156578545Y-51108333D01*
X156578545Y-51108333D02*
X156540450Y-51222618D01*
X156540450Y-51222618D02*
X156502354Y-51260714D01*
X156502354Y-51260714D02*
X156235688Y-51260714D01*
X156235688Y-51260714D02*
X156235688Y-51108333D01*
X156578545Y-51603571D02*
X155778545Y-51603571D01*
X155778545Y-51603571D02*
X155778545Y-51908333D01*
X155778545Y-51908333D02*
X155816640Y-51984523D01*
X155816640Y-51984523D02*
X155854735Y-52022618D01*
X155854735Y-52022618D02*
X155930926Y-52060714D01*
X155930926Y-52060714D02*
X156045211Y-52060714D01*
X156045211Y-52060714D02*
X156121402Y-52022618D01*
X156121402Y-52022618D02*
X156159497Y-51984523D01*
X156159497Y-51984523D02*
X156197592Y-51908333D01*
X156197592Y-51908333D02*
X156197592Y-51603571D01*
X156578545Y-52822618D02*
X156578545Y-52365475D01*
X156578545Y-52594047D02*
X155778545Y-52594047D01*
X155778545Y-52594047D02*
X155892830Y-52517856D01*
X155892830Y-52517856D02*
X155969021Y-52441666D01*
X155969021Y-52441666D02*
X156007116Y-52365475D01*
X156045211Y-53508333D02*
X156578545Y-53508333D01*
X155740450Y-53317857D02*
X156311878Y-53127380D01*
X156311878Y-53127380D02*
X156311878Y-53622619D01*
X150736640Y-51222618D02*
X150698545Y-51146428D01*
X150698545Y-51146428D02*
X150698545Y-51032142D01*
X150698545Y-51032142D02*
X150736640Y-50917856D01*
X150736640Y-50917856D02*
X150812830Y-50841666D01*
X150812830Y-50841666D02*
X150889021Y-50803571D01*
X150889021Y-50803571D02*
X151041402Y-50765475D01*
X151041402Y-50765475D02*
X151155688Y-50765475D01*
X151155688Y-50765475D02*
X151308069Y-50803571D01*
X151308069Y-50803571D02*
X151384259Y-50841666D01*
X151384259Y-50841666D02*
X151460450Y-50917856D01*
X151460450Y-50917856D02*
X151498545Y-51032142D01*
X151498545Y-51032142D02*
X151498545Y-51108333D01*
X151498545Y-51108333D02*
X151460450Y-51222618D01*
X151460450Y-51222618D02*
X151422354Y-51260714D01*
X151422354Y-51260714D02*
X151155688Y-51260714D01*
X151155688Y-51260714D02*
X151155688Y-51108333D01*
X151498545Y-51603571D02*
X150698545Y-51603571D01*
X150698545Y-51603571D02*
X150698545Y-51908333D01*
X150698545Y-51908333D02*
X150736640Y-51984523D01*
X150736640Y-51984523D02*
X150774735Y-52022618D01*
X150774735Y-52022618D02*
X150850926Y-52060714D01*
X150850926Y-52060714D02*
X150965211Y-52060714D01*
X150965211Y-52060714D02*
X151041402Y-52022618D01*
X151041402Y-52022618D02*
X151079497Y-51984523D01*
X151079497Y-51984523D02*
X151117592Y-51908333D01*
X151117592Y-51908333D02*
X151117592Y-51603571D01*
X151498545Y-52822618D02*
X151498545Y-52365475D01*
X151498545Y-52594047D02*
X150698545Y-52594047D01*
X150698545Y-52594047D02*
X150812830Y-52517856D01*
X150812830Y-52517856D02*
X150889021Y-52441666D01*
X150889021Y-52441666D02*
X150927116Y-52365475D01*
X150698545Y-53089285D02*
X150698545Y-53584523D01*
X150698545Y-53584523D02*
X151003307Y-53317857D01*
X151003307Y-53317857D02*
X151003307Y-53432142D01*
X151003307Y-53432142D02*
X151041402Y-53508333D01*
X151041402Y-53508333D02*
X151079497Y-53546428D01*
X151079497Y-53546428D02*
X151155688Y-53584523D01*
X151155688Y-53584523D02*
X151346164Y-53584523D01*
X151346164Y-53584523D02*
X151422354Y-53546428D01*
X151422354Y-53546428D02*
X151460450Y-53508333D01*
X151460450Y-53508333D02*
X151498545Y-53432142D01*
X151498545Y-53432142D02*
X151498545Y-53203571D01*
X151498545Y-53203571D02*
X151460450Y-53127380D01*
X151460450Y-53127380D02*
X151422354Y-53089285D01*
X155816640Y-39992618D02*
X155778545Y-39916428D01*
X155778545Y-39916428D02*
X155778545Y-39802142D01*
X155778545Y-39802142D02*
X155816640Y-39687856D01*
X155816640Y-39687856D02*
X155892830Y-39611666D01*
X155892830Y-39611666D02*
X155969021Y-39573571D01*
X155969021Y-39573571D02*
X156121402Y-39535475D01*
X156121402Y-39535475D02*
X156235688Y-39535475D01*
X156235688Y-39535475D02*
X156388069Y-39573571D01*
X156388069Y-39573571D02*
X156464259Y-39611666D01*
X156464259Y-39611666D02*
X156540450Y-39687856D01*
X156540450Y-39687856D02*
X156578545Y-39802142D01*
X156578545Y-39802142D02*
X156578545Y-39878333D01*
X156578545Y-39878333D02*
X156540450Y-39992618D01*
X156540450Y-39992618D02*
X156502354Y-40030714D01*
X156502354Y-40030714D02*
X156235688Y-40030714D01*
X156235688Y-40030714D02*
X156235688Y-39878333D01*
X156578545Y-40373571D02*
X155778545Y-40373571D01*
X155778545Y-40373571D02*
X155778545Y-40678333D01*
X155778545Y-40678333D02*
X155816640Y-40754523D01*
X155816640Y-40754523D02*
X155854735Y-40792618D01*
X155854735Y-40792618D02*
X155930926Y-40830714D01*
X155930926Y-40830714D02*
X156045211Y-40830714D01*
X156045211Y-40830714D02*
X156121402Y-40792618D01*
X156121402Y-40792618D02*
X156159497Y-40754523D01*
X156159497Y-40754523D02*
X156197592Y-40678333D01*
X156197592Y-40678333D02*
X156197592Y-40373571D01*
X156578545Y-41592618D02*
X156578545Y-41135475D01*
X156578545Y-41364047D02*
X155778545Y-41364047D01*
X155778545Y-41364047D02*
X155892830Y-41287856D01*
X155892830Y-41287856D02*
X155969021Y-41211666D01*
X155969021Y-41211666D02*
X156007116Y-41135475D01*
X155778545Y-41859285D02*
X155778545Y-42392619D01*
X155778545Y-42392619D02*
X156578545Y-42049761D01*
X110096640Y-51953571D02*
X110058545Y-51877381D01*
X110058545Y-51877381D02*
X110058545Y-51763095D01*
X110058545Y-51763095D02*
X110096640Y-51648809D01*
X110096640Y-51648809D02*
X110172830Y-51572619D01*
X110172830Y-51572619D02*
X110249021Y-51534524D01*
X110249021Y-51534524D02*
X110401402Y-51496428D01*
X110401402Y-51496428D02*
X110515688Y-51496428D01*
X110515688Y-51496428D02*
X110668069Y-51534524D01*
X110668069Y-51534524D02*
X110744259Y-51572619D01*
X110744259Y-51572619D02*
X110820450Y-51648809D01*
X110820450Y-51648809D02*
X110858545Y-51763095D01*
X110858545Y-51763095D02*
X110858545Y-51839286D01*
X110858545Y-51839286D02*
X110820450Y-51953571D01*
X110820450Y-51953571D02*
X110782354Y-51991667D01*
X110782354Y-51991667D02*
X110515688Y-51991667D01*
X110515688Y-51991667D02*
X110515688Y-51839286D01*
X110858545Y-52334524D02*
X110058545Y-52334524D01*
X110058545Y-52334524D02*
X110058545Y-52639286D01*
X110058545Y-52639286D02*
X110096640Y-52715476D01*
X110096640Y-52715476D02*
X110134735Y-52753571D01*
X110134735Y-52753571D02*
X110210926Y-52791667D01*
X110210926Y-52791667D02*
X110325211Y-52791667D01*
X110325211Y-52791667D02*
X110401402Y-52753571D01*
X110401402Y-52753571D02*
X110439497Y-52715476D01*
X110439497Y-52715476D02*
X110477592Y-52639286D01*
X110477592Y-52639286D02*
X110477592Y-52334524D01*
X110058545Y-53286905D02*
X110058545Y-53363095D01*
X110058545Y-53363095D02*
X110096640Y-53439286D01*
X110096640Y-53439286D02*
X110134735Y-53477381D01*
X110134735Y-53477381D02*
X110210926Y-53515476D01*
X110210926Y-53515476D02*
X110363307Y-53553571D01*
X110363307Y-53553571D02*
X110553783Y-53553571D01*
X110553783Y-53553571D02*
X110706164Y-53515476D01*
X110706164Y-53515476D02*
X110782354Y-53477381D01*
X110782354Y-53477381D02*
X110820450Y-53439286D01*
X110820450Y-53439286D02*
X110858545Y-53363095D01*
X110858545Y-53363095D02*
X110858545Y-53286905D01*
X110858545Y-53286905D02*
X110820450Y-53210714D01*
X110820450Y-53210714D02*
X110782354Y-53172619D01*
X110782354Y-53172619D02*
X110706164Y-53134524D01*
X110706164Y-53134524D02*
X110553783Y-53096428D01*
X110553783Y-53096428D02*
X110363307Y-53096428D01*
X110363307Y-53096428D02*
X110210926Y-53134524D01*
X110210926Y-53134524D02*
X110134735Y-53172619D01*
X110134735Y-53172619D02*
X110096640Y-53210714D01*
X110096640Y-53210714D02*
X110058545Y-53286905D01*
X156235773Y-46085390D02*
X156311963Y-46047295D01*
X156311963Y-46047295D02*
X156426249Y-46047295D01*
X156426249Y-46047295D02*
X156540535Y-46085390D01*
X156540535Y-46085390D02*
X156616725Y-46161580D01*
X156616725Y-46161580D02*
X156654820Y-46237771D01*
X156654820Y-46237771D02*
X156692916Y-46390152D01*
X156692916Y-46390152D02*
X156692916Y-46504438D01*
X156692916Y-46504438D02*
X156654820Y-46656819D01*
X156654820Y-46656819D02*
X156616725Y-46733009D01*
X156616725Y-46733009D02*
X156540535Y-46809200D01*
X156540535Y-46809200D02*
X156426249Y-46847295D01*
X156426249Y-46847295D02*
X156350058Y-46847295D01*
X156350058Y-46847295D02*
X156235773Y-46809200D01*
X156235773Y-46809200D02*
X156197677Y-46771104D01*
X156197677Y-46771104D02*
X156197677Y-46504438D01*
X156197677Y-46504438D02*
X156350058Y-46504438D01*
X155854820Y-46847295D02*
X155854820Y-46047295D01*
X155854820Y-46047295D02*
X155397677Y-46847295D01*
X155397677Y-46847295D02*
X155397677Y-46047295D01*
X155016725Y-46847295D02*
X155016725Y-46047295D01*
X155016725Y-46047295D02*
X154826249Y-46047295D01*
X154826249Y-46047295D02*
X154711963Y-46085390D01*
X154711963Y-46085390D02*
X154635773Y-46161580D01*
X154635773Y-46161580D02*
X154597678Y-46237771D01*
X154597678Y-46237771D02*
X154559582Y-46390152D01*
X154559582Y-46390152D02*
X154559582Y-46504438D01*
X154559582Y-46504438D02*
X154597678Y-46656819D01*
X154597678Y-46656819D02*
X154635773Y-46733009D01*
X154635773Y-46733009D02*
X154711963Y-46809200D01*
X154711963Y-46809200D02*
X154826249Y-46847295D01*
X154826249Y-46847295D02*
X155016725Y-46847295D01*
X143126640Y-39992618D02*
X143088545Y-39916428D01*
X143088545Y-39916428D02*
X143088545Y-39802142D01*
X143088545Y-39802142D02*
X143126640Y-39687856D01*
X143126640Y-39687856D02*
X143202830Y-39611666D01*
X143202830Y-39611666D02*
X143279021Y-39573571D01*
X143279021Y-39573571D02*
X143431402Y-39535475D01*
X143431402Y-39535475D02*
X143545688Y-39535475D01*
X143545688Y-39535475D02*
X143698069Y-39573571D01*
X143698069Y-39573571D02*
X143774259Y-39611666D01*
X143774259Y-39611666D02*
X143850450Y-39687856D01*
X143850450Y-39687856D02*
X143888545Y-39802142D01*
X143888545Y-39802142D02*
X143888545Y-39878333D01*
X143888545Y-39878333D02*
X143850450Y-39992618D01*
X143850450Y-39992618D02*
X143812354Y-40030714D01*
X143812354Y-40030714D02*
X143545688Y-40030714D01*
X143545688Y-40030714D02*
X143545688Y-39878333D01*
X143888545Y-40373571D02*
X143088545Y-40373571D01*
X143088545Y-40373571D02*
X143088545Y-40678333D01*
X143088545Y-40678333D02*
X143126640Y-40754523D01*
X143126640Y-40754523D02*
X143164735Y-40792618D01*
X143164735Y-40792618D02*
X143240926Y-40830714D01*
X143240926Y-40830714D02*
X143355211Y-40830714D01*
X143355211Y-40830714D02*
X143431402Y-40792618D01*
X143431402Y-40792618D02*
X143469497Y-40754523D01*
X143469497Y-40754523D02*
X143507592Y-40678333D01*
X143507592Y-40678333D02*
X143507592Y-40373571D01*
X143164735Y-41135475D02*
X143126640Y-41173571D01*
X143126640Y-41173571D02*
X143088545Y-41249761D01*
X143088545Y-41249761D02*
X143088545Y-41440237D01*
X143088545Y-41440237D02*
X143126640Y-41516428D01*
X143126640Y-41516428D02*
X143164735Y-41554523D01*
X143164735Y-41554523D02*
X143240926Y-41592618D01*
X143240926Y-41592618D02*
X143317116Y-41592618D01*
X143317116Y-41592618D02*
X143431402Y-41554523D01*
X143431402Y-41554523D02*
X143888545Y-41097380D01*
X143888545Y-41097380D02*
X143888545Y-41592618D01*
X143888545Y-42354523D02*
X143888545Y-41897380D01*
X143888545Y-42125952D02*
X143088545Y-42125952D01*
X143088545Y-42125952D02*
X143202830Y-42049761D01*
X143202830Y-42049761D02*
X143279021Y-41973571D01*
X143279021Y-41973571D02*
X143317116Y-41897380D01*
X128409973Y-39535476D02*
X128409973Y-39916429D01*
X128638545Y-39459286D02*
X127838545Y-39725953D01*
X127838545Y-39725953D02*
X128638545Y-39992619D01*
X127876640Y-40678333D02*
X127838545Y-40602143D01*
X127838545Y-40602143D02*
X127838545Y-40487857D01*
X127838545Y-40487857D02*
X127876640Y-40373571D01*
X127876640Y-40373571D02*
X127952830Y-40297381D01*
X127952830Y-40297381D02*
X128029021Y-40259286D01*
X128029021Y-40259286D02*
X128181402Y-40221190D01*
X128181402Y-40221190D02*
X128295688Y-40221190D01*
X128295688Y-40221190D02*
X128448069Y-40259286D01*
X128448069Y-40259286D02*
X128524259Y-40297381D01*
X128524259Y-40297381D02*
X128600450Y-40373571D01*
X128600450Y-40373571D02*
X128638545Y-40487857D01*
X128638545Y-40487857D02*
X128638545Y-40564048D01*
X128638545Y-40564048D02*
X128600450Y-40678333D01*
X128600450Y-40678333D02*
X128562354Y-40716429D01*
X128562354Y-40716429D02*
X128295688Y-40716429D01*
X128295688Y-40716429D02*
X128295688Y-40564048D01*
X128638545Y-41059286D02*
X127838545Y-41059286D01*
X127838545Y-41059286D02*
X128638545Y-41516429D01*
X128638545Y-41516429D02*
X127838545Y-41516429D01*
X128638545Y-41897381D02*
X127838545Y-41897381D01*
X127838545Y-41897381D02*
X127838545Y-42087857D01*
X127838545Y-42087857D02*
X127876640Y-42202143D01*
X127876640Y-42202143D02*
X127952830Y-42278333D01*
X127952830Y-42278333D02*
X128029021Y-42316428D01*
X128029021Y-42316428D02*
X128181402Y-42354524D01*
X128181402Y-42354524D02*
X128295688Y-42354524D01*
X128295688Y-42354524D02*
X128448069Y-42316428D01*
X128448069Y-42316428D02*
X128524259Y-42278333D01*
X128524259Y-42278333D02*
X128600450Y-42202143D01*
X128600450Y-42202143D02*
X128638545Y-42087857D01*
X128638545Y-42087857D02*
X128638545Y-41897381D01*
%TO.C,U1*%
X109126250Y-35985000D02*
X109126250Y-56985000D01*
X109126250Y-35985000D02*
X160126250Y-35985000D01*
X109126250Y-56985000D02*
X160126250Y-56985000D01*
X111793250Y-35985000D02*
X111793250Y-38992000D01*
X111793250Y-38992000D02*
X109126250Y-38992000D01*
X160126250Y-56985000D02*
X160126250Y-35985000D01*
D11*
%TO.C,D1*%
X122170000Y-74872500D02*
X123270000Y-74872500D01*
X122320000Y-74272500D02*
X123120000Y-74272500D01*
X122720000Y-73772500D02*
X122720000Y-74272500D01*
X122720000Y-74872500D02*
X122320000Y-74272500D01*
X122720000Y-74872500D02*
X122720000Y-75272500D01*
X123120000Y-74272500D02*
X122720000Y-74872500D01*
%TO.C,D4*%
X122170000Y-93922500D02*
X123270000Y-93922500D01*
X122320000Y-93322500D02*
X123120000Y-93322500D01*
X122720000Y-92822500D02*
X122720000Y-93322500D01*
X122720000Y-93922500D02*
X122320000Y-93322500D01*
X122720000Y-93922500D02*
X122720000Y-94322500D01*
X123120000Y-93322500D02*
X122720000Y-93922500D01*
%TO.C,D3*%
X160270000Y-74872500D02*
X161370000Y-74872500D01*
X160420000Y-74272500D02*
X161220000Y-74272500D01*
X160820000Y-73772500D02*
X160820000Y-74272500D01*
X160820000Y-74872500D02*
X160420000Y-74272500D01*
X160820000Y-74872500D02*
X160820000Y-75272500D01*
X161220000Y-74272500D02*
X160820000Y-74872500D01*
%TO.C,D2*%
X141220000Y-74872500D02*
X142320000Y-74872500D01*
X141370000Y-74272500D02*
X142170000Y-74272500D01*
X141770000Y-73772500D02*
X141770000Y-74272500D01*
X141770000Y-74872500D02*
X141370000Y-74272500D01*
X141770000Y-74872500D02*
X141770000Y-75272500D01*
X142170000Y-74272500D02*
X141770000Y-74872500D01*
%TO.C,D6*%
X160270000Y-93922500D02*
X161370000Y-93922500D01*
X160420000Y-93322500D02*
X161220000Y-93322500D01*
X160820000Y-92822500D02*
X160820000Y-93322500D01*
X160820000Y-93922500D02*
X160420000Y-93322500D01*
X160820000Y-93922500D02*
X160820000Y-94322500D01*
X161220000Y-93322500D02*
X160820000Y-93922500D01*
%TO.C,D9*%
X160270000Y-112972500D02*
X161370000Y-112972500D01*
X160420000Y-112372500D02*
X161220000Y-112372500D01*
X160820000Y-111872500D02*
X160820000Y-112372500D01*
X160820000Y-112972500D02*
X160420000Y-112372500D01*
X160820000Y-112972500D02*
X160820000Y-113372500D01*
X161220000Y-112372500D02*
X160820000Y-112972500D01*
%TO.C,D8*%
X141220000Y-112972500D02*
X142320000Y-112972500D01*
X141370000Y-112372500D02*
X142170000Y-112372500D01*
X141770000Y-111872500D02*
X141770000Y-112372500D01*
X141770000Y-112972500D02*
X141370000Y-112372500D01*
X141770000Y-112972500D02*
X141770000Y-113372500D01*
X142170000Y-112372500D02*
X141770000Y-112972500D01*
%TO.C,D5*%
X141220000Y-93922500D02*
X142320000Y-93922500D01*
X141370000Y-93322500D02*
X142170000Y-93322500D01*
X141770000Y-92822500D02*
X141770000Y-93322500D01*
X141770000Y-93922500D02*
X141370000Y-93322500D01*
X141770000Y-93922500D02*
X141770000Y-94322500D01*
X142170000Y-93322500D02*
X141770000Y-93922500D01*
%TO.C,D7*%
X122170000Y-112972500D02*
X123270000Y-112972500D01*
X122320000Y-112372500D02*
X123120000Y-112372500D01*
X122720000Y-111872500D02*
X122720000Y-112372500D01*
X122720000Y-112972500D02*
X122320000Y-112372500D01*
X122720000Y-112972500D02*
X122720000Y-113372500D01*
X123120000Y-112372500D02*
X122720000Y-112972500D01*
%TD*%
M02*
