%TF.GenerationSoftware,KiCad,Pcbnew,8.0.5*%
%TF.CreationDate,2024-11-06T13:26:22-05:00*%
%TF.ProjectId,MacroPad,4d616372-6f50-4616-942e-6b696361645f,rev?*%
%TF.SameCoordinates,Original*%
%TF.FileFunction,Copper,L1,Top*%
%TF.FilePolarity,Positive*%
%FSLAX46Y46*%
G04 Gerber Fmt 4.6, Leading zero omitted, Abs format (unit mm)*
G04 Created by KiCad (PCBNEW 8.0.5) date 2024-11-06 13:26:22*
%MOMM*%
%LPD*%
G01*
G04 APERTURE LIST*
G04 Aperture macros list*
%AMRoundRect*
0 Rectangle with rounded corners*
0 $1 Rounding radius*
0 $2 $3 $4 $5 $6 $7 $8 $9 X,Y pos of 4 corners*
0 Add a 4 corners polygon primitive as box body*
4,1,4,$2,$3,$4,$5,$6,$7,$8,$9,$2,$3,0*
0 Add four circle primitives for the rounded corners*
1,1,$1+$1,$2,$3*
1,1,$1+$1,$4,$5*
1,1,$1+$1,$6,$7*
1,1,$1+$1,$8,$9*
0 Add four rect primitives between the rounded corners*
20,1,$1+$1,$2,$3,$4,$5,0*
20,1,$1+$1,$4,$5,$6,$7,0*
20,1,$1+$1,$6,$7,$8,$9,0*
20,1,$1+$1,$8,$9,$2,$3,0*%
G04 Aperture macros list end*
%TA.AperFunction,ComponentPad*%
%ADD10C,2.500000*%
%TD*%
%TA.AperFunction,ComponentPad*%
%ADD11RoundRect,0.250000X0.550000X0.550000X-0.550000X0.550000X-0.550000X-0.550000X0.550000X-0.550000X0*%
%TD*%
%TA.AperFunction,ComponentPad*%
%ADD12C,1.600000*%
%TD*%
%TA.AperFunction,ComponentPad*%
%ADD13O,4.100000X3.000000*%
%TD*%
%TA.AperFunction,ComponentPad*%
%ADD14O,1.700000X1.700000*%
%TD*%
%TA.AperFunction,SMDPad,CuDef*%
%ADD15R,1.700000X3.500000*%
%TD*%
%TA.AperFunction,ComponentPad*%
%ADD16R,1.700000X1.700000*%
%TD*%
%TA.AperFunction,SMDPad,CuDef*%
%ADD17R,3.500000X1.700000*%
%TD*%
%TA.AperFunction,ComponentPad*%
%ADD18RoundRect,0.250000X-0.550000X-0.550000X0.550000X-0.550000X0.550000X0.550000X-0.550000X0.550000X0*%
%TD*%
%TA.AperFunction,ComponentPad*%
%ADD19R,1.600000X1.600000*%
%TD*%
%TA.AperFunction,ComponentPad*%
%ADD20O,1.600000X1.600000*%
%TD*%
%TA.AperFunction,Conductor*%
%ADD21C,0.200000*%
%TD*%
G04 APERTURE END LIST*
D10*
%TO.P,S7,1,1*%
%TO.N,Column 0*%
X109385000Y-109985000D03*
%TO.P,S7,2,2*%
%TO.N,Net-(D7-A)*%
X115735000Y-107445000D03*
%TD*%
%TO.P,S1,1,1*%
%TO.N,Column 0*%
X109385000Y-71885000D03*
%TO.P,S1,2,2*%
%TO.N,Net-(D1-A)*%
X115735000Y-69345000D03*
%TD*%
%TO.P,S6,1,1*%
%TO.N,Column 2*%
X147485000Y-90935000D03*
%TO.P,S6,2,2*%
%TO.N,Net-(D6-A)*%
X153835000Y-88395000D03*
%TD*%
%TO.P,S5,1,1*%
%TO.N,Column 1*%
X128435000Y-90935000D03*
%TO.P,S5,2,2*%
%TO.N,Net-(D5-A)*%
X134785000Y-88395000D03*
%TD*%
%TO.P,S2,1,1*%
%TO.N,Column 1*%
X128435000Y-71885000D03*
%TO.P,S2,2,2*%
%TO.N,Net-(D2-A)*%
X134785000Y-69345000D03*
%TD*%
D11*
%TO.P,SW2,A,A*%
%TO.N,Encoder_Left_1*%
X106601250Y-47656250D03*
D12*
%TO.P,SW2,B,B*%
%TO.N,Encoder_Left_2*%
X106601250Y-42656250D03*
%TO.P,SW2,C,C*%
%TO.N,GND*%
X106601250Y-45156250D03*
%TO.P,SW2,S1,S1*%
%TO.N,Encoder_Left_3*%
X92101250Y-47656250D03*
%TO.P,SW2,S2,S2*%
%TO.N,GND*%
X92101250Y-42656250D03*
D13*
%TO.P,SW2,SH*%
%TO.N,N/C*%
X99101250Y-50756250D03*
X99101250Y-39556250D03*
%TD*%
D10*
%TO.P,S9,1,1*%
%TO.N,Column 2*%
X147485000Y-109985000D03*
%TO.P,S9,2,2*%
%TO.N,Net-(D9-A)*%
X153835000Y-107445000D03*
%TD*%
%TO.P,S4,1,1*%
%TO.N,Column 0*%
X109385000Y-90935000D03*
%TO.P,S4,2,2*%
%TO.N,Net-(D4-A)*%
X115735000Y-88395000D03*
%TD*%
D14*
%TO.P,U1,1,GPIO0*%
%TO.N,Column 0*%
X110496250Y-55375000D03*
D15*
X110496250Y-56275000D03*
D14*
%TO.P,U1,2,GPIO1*%
%TO.N,Column 1*%
X113036250Y-55375000D03*
D15*
X113036250Y-56275000D03*
D16*
%TO.P,U1,3,GND*%
%TO.N,Column 2*%
X115576250Y-55375000D03*
D15*
X115576250Y-56275000D03*
D14*
%TO.P,U1,4,GPIO2*%
%TO.N,Row 0*%
X118116250Y-55375000D03*
D15*
X118116250Y-56275000D03*
D14*
%TO.P,U1,5,GPIO3*%
%TO.N,Row 1*%
X120656250Y-55375000D03*
D15*
X120656250Y-56275000D03*
D14*
%TO.P,U1,6,GPIO4*%
%TO.N,Row 2*%
X123196250Y-55375000D03*
D15*
X123196250Y-56275000D03*
D14*
%TO.P,U1,7,GPIO5*%
%TO.N,Encoder_Left_1*%
X125736250Y-55375000D03*
D15*
X125736250Y-56275000D03*
D16*
%TO.P,U1,8,GND*%
%TO.N,GND*%
X128276250Y-55375000D03*
D15*
X128276250Y-56275000D03*
D14*
%TO.P,U1,9,GPIO6*%
%TO.N,Encoder_Left_2*%
X130816250Y-55375000D03*
D15*
X130816250Y-56275000D03*
D14*
%TO.P,U1,10,GPIO7*%
%TO.N,Encoder_Left_3*%
X133356250Y-55375000D03*
D15*
X133356250Y-56275000D03*
D14*
%TO.P,U1,11,GPIO8*%
%TO.N,unconnected-(U1-GPIO8-Pad11)*%
X135896250Y-55375000D03*
D15*
X135896250Y-56275000D03*
D14*
%TO.P,U1,12,GPIO9*%
%TO.N,unconnected-(U1-GPIO9-Pad12)*%
X138436250Y-55375000D03*
D15*
X138436250Y-56275000D03*
D16*
%TO.P,U1,13,GND*%
%TO.N,unconnected-(U1-GND-Pad13)*%
X140976250Y-55375000D03*
D15*
X140976250Y-56275000D03*
D14*
%TO.P,U1,14,GPIO10*%
%TO.N,unconnected-(U1-GPIO10-Pad14)*%
X143516250Y-55375000D03*
D15*
X143516250Y-56275000D03*
D14*
%TO.P,U1,15,GPIO11*%
%TO.N,unconnected-(U1-GPIO11-Pad15)*%
X146056250Y-55375000D03*
D15*
X146056250Y-56275000D03*
D14*
%TO.P,U1,16,GPIO12*%
%TO.N,unconnected-(U1-GPIO12-Pad16)*%
X148596250Y-55375000D03*
D15*
X148596250Y-56275000D03*
D14*
%TO.P,U1,17,GPIO13*%
%TO.N,unconnected-(U1-GPIO13-Pad17)*%
X151136250Y-55375000D03*
D15*
X151136250Y-56275000D03*
D16*
%TO.P,U1,18,GND*%
%TO.N,unconnected-(U1-GND-Pad18)*%
X153676250Y-55375000D03*
D15*
X153676250Y-56275000D03*
D14*
%TO.P,U1,19,GPIO14*%
%TO.N,unconnected-(U1-GPIO14-Pad19)*%
X156216250Y-55375000D03*
D15*
X156216250Y-56275000D03*
D14*
%TO.P,U1,20,GPIO15*%
%TO.N,unconnected-(U1-GPIO15-Pad20)*%
X158756250Y-55375000D03*
D15*
X158756250Y-56275000D03*
D14*
%TO.P,U1,21,GPIO16*%
%TO.N,unconnected-(U1-GPIO16-Pad21)*%
X158756250Y-37595000D03*
D15*
X158756250Y-36695000D03*
D14*
%TO.P,U1,22,GPIO17*%
%TO.N,unconnected-(U1-GPIO17-Pad22)*%
X156216250Y-37595000D03*
D15*
X156216250Y-36695000D03*
D16*
%TO.P,U1,23,GND*%
%TO.N,GND*%
X153676250Y-37595000D03*
D15*
X153676250Y-36695000D03*
D14*
%TO.P,U1,24,GPIO18*%
%TO.N,Encoder_Right_3*%
X151136250Y-37595000D03*
D15*
X151136250Y-36695000D03*
D14*
%TO.P,U1,25,GPIO19*%
%TO.N,Encoder_Right_2*%
X148596250Y-37595000D03*
D15*
X148596250Y-36695000D03*
D14*
%TO.P,U1,26,GPIO20*%
%TO.N,Encoder_Right_1*%
X146056250Y-37595000D03*
D15*
X146056250Y-36695000D03*
D14*
%TO.P,U1,27,GPIO21*%
%TO.N,unconnected-(U1-GPIO21-Pad27)*%
X143516250Y-37595000D03*
D15*
X143516250Y-36695000D03*
D16*
%TO.P,U1,28,GND*%
%TO.N,unconnected-(U1-GND-Pad28)*%
X140976250Y-37595000D03*
D15*
X140976250Y-36695000D03*
D14*
%TO.P,U1,29,GPIO22*%
%TO.N,unconnected-(U1-GPIO22-Pad29)*%
X138436250Y-37595000D03*
D15*
X138436250Y-36695000D03*
D14*
%TO.P,U1,30,RUN*%
%TO.N,unconnected-(U1-RUN-Pad30)*%
X135896250Y-37595000D03*
D15*
X135896250Y-36695000D03*
D14*
%TO.P,U1,31,GPIO26_ADC0*%
%TO.N,unconnected-(U1-GPIO26_ADC0-Pad31)*%
X133356250Y-37595000D03*
D15*
X133356250Y-36695000D03*
D14*
%TO.P,U1,32,GPIO27_ADC1*%
%TO.N,unconnected-(U1-GPIO27_ADC1-Pad32)*%
X130816250Y-37595000D03*
D15*
X130816250Y-36695000D03*
D16*
%TO.P,U1,33,AGND*%
%TO.N,unconnected-(U1-AGND-Pad33)*%
X128276250Y-37595000D03*
D15*
X128276250Y-36695000D03*
D14*
%TO.P,U1,34,GPIO28_ADC2*%
%TO.N,unconnected-(U1-GPIO28_ADC2-Pad34)*%
X125736250Y-37595000D03*
D15*
X125736250Y-36695000D03*
D14*
%TO.P,U1,35,ADC_VREF*%
%TO.N,unconnected-(U1-ADC_VREF-Pad35)*%
X123196250Y-37595000D03*
D15*
X123196250Y-36695000D03*
D14*
%TO.P,U1,36,3V3*%
%TO.N,unconnected-(U1-3V3-Pad36)*%
X120656250Y-37595000D03*
D15*
X120656250Y-36695000D03*
D14*
%TO.P,U1,37,3V3_EN*%
%TO.N,unconnected-(U1-3V3_EN-Pad37)*%
X118116250Y-37595000D03*
D15*
X118116250Y-36695000D03*
D16*
%TO.P,U1,38,GND*%
%TO.N,unconnected-(U1-GND-Pad38)*%
X115576250Y-37595000D03*
D15*
X115576250Y-36695000D03*
D14*
%TO.P,U1,39,VSYS*%
%TO.N,unconnected-(U1-VSYS-Pad39)*%
X113036250Y-37595000D03*
D15*
X113036250Y-36695000D03*
D14*
%TO.P,U1,40,VBUS*%
%TO.N,unconnected-(U1-VBUS-Pad40)*%
X110496250Y-37595000D03*
D15*
X110496250Y-36695000D03*
D14*
%TO.P,U1,41,SWCLK*%
%TO.N,unconnected-(U1-SWCLK-Pad41)*%
X158526250Y-49025000D03*
D17*
X159426250Y-49025000D03*
D16*
%TO.P,U1,42,GND*%
%TO.N,unconnected-(U1-GND-Pad42)*%
X158526250Y-46485000D03*
D17*
X159426250Y-46485000D03*
D14*
%TO.P,U1,43,SWDIO*%
%TO.N,unconnected-(U1-SWDIO-Pad43)*%
X158526250Y-43945000D03*
D17*
X159426250Y-43945000D03*
%TD*%
D10*
%TO.P,S3,1,1*%
%TO.N,Column 2*%
X147485000Y-71885000D03*
%TO.P,S3,2,2*%
%TO.N,Net-(D3-A)*%
X153835000Y-69345000D03*
%TD*%
%TO.P,S8,1,1*%
%TO.N,Column 1*%
X128435000Y-109985000D03*
%TO.P,S8,2,2*%
%TO.N,Net-(D8-A)*%
X134785000Y-107445000D03*
%TD*%
D18*
%TO.P,SW1,A,A*%
%TO.N,Encoder_Right_1*%
X163178750Y-42506250D03*
D12*
%TO.P,SW1,B,B*%
%TO.N,Encoder_Right_2*%
X163178750Y-47506250D03*
%TO.P,SW1,C,C*%
%TO.N,GND*%
X163178750Y-45006250D03*
%TO.P,SW1,S1,S1*%
%TO.N,Encoder_Right_3*%
X177678750Y-42506250D03*
%TO.P,SW1,S2,S2*%
%TO.N,GND*%
X177678750Y-47506250D03*
D13*
%TO.P,SW1,SH*%
%TO.N,N/C*%
X170678750Y-39406250D03*
X170678750Y-50606250D03*
%TD*%
D19*
%TO.P,D1,1,K*%
%TO.N,Row 0*%
X122720000Y-78332500D03*
D20*
%TO.P,D1,2,A*%
%TO.N,Net-(D1-A)*%
X122720000Y-70712500D03*
%TD*%
D19*
%TO.P,D4,1,K*%
%TO.N,Row 1*%
X122720000Y-97382500D03*
D20*
%TO.P,D4,2,A*%
%TO.N,Net-(D4-A)*%
X122720000Y-89762500D03*
%TD*%
D19*
%TO.P,D3,1,K*%
%TO.N,Row 0*%
X160820000Y-78332500D03*
D20*
%TO.P,D3,2,A*%
%TO.N,Net-(D3-A)*%
X160820000Y-70712500D03*
%TD*%
D19*
%TO.P,D2,1,K*%
%TO.N,Row 0*%
X141770000Y-78332500D03*
D20*
%TO.P,D2,2,A*%
%TO.N,Net-(D2-A)*%
X141770000Y-70712500D03*
%TD*%
D19*
%TO.P,D6,1,K*%
%TO.N,Row 1*%
X160820000Y-97382500D03*
D20*
%TO.P,D6,2,A*%
%TO.N,Net-(D6-A)*%
X160820000Y-89762500D03*
%TD*%
D19*
%TO.P,D9,1,K*%
%TO.N,Row 2*%
X160820000Y-116432500D03*
D20*
%TO.P,D9,2,A*%
%TO.N,Net-(D9-A)*%
X160820000Y-108812500D03*
%TD*%
D19*
%TO.P,D8,1,K*%
%TO.N,Row 2*%
X141770000Y-116432500D03*
D20*
%TO.P,D8,2,A*%
%TO.N,Net-(D8-A)*%
X141770000Y-108812500D03*
%TD*%
D19*
%TO.P,D5,1,K*%
%TO.N,Row 1*%
X141770000Y-97382500D03*
D20*
%TO.P,D5,2,A*%
%TO.N,Net-(D5-A)*%
X141770000Y-89762500D03*
%TD*%
D19*
%TO.P,D7,1,K*%
%TO.N,Row 2*%
X122720000Y-116432500D03*
D20*
%TO.P,D7,2,A*%
%TO.N,Net-(D7-A)*%
X122720000Y-108812500D03*
%TD*%
D21*
%TO.N,Row 0*%
X118116250Y-59316250D02*
X118116250Y-57756250D01*
X122720000Y-78332500D02*
X141770000Y-78332500D01*
X156057500Y-62518750D02*
X121318750Y-62518750D01*
X161920000Y-77232500D02*
X161920000Y-68381250D01*
X141770000Y-78332500D02*
X160820000Y-78332500D01*
X161920000Y-68381250D02*
X156057500Y-62518750D01*
X121318750Y-62518750D02*
X118116250Y-59316250D01*
X160820000Y-78332500D02*
X161920000Y-77232500D01*
%TO.N,Net-(D1-A)*%
X115735000Y-69345000D02*
X121352500Y-69345000D01*
X121352500Y-69345000D02*
X122720000Y-70712500D01*
%TO.N,Net-(D2-A)*%
X134785000Y-69345000D02*
X140402500Y-69345000D01*
X140402500Y-69345000D02*
X141770000Y-70712500D01*
%TO.N,Net-(D3-A)*%
X159452500Y-69345000D02*
X160820000Y-70712500D01*
X153835000Y-69345000D02*
X159452500Y-69345000D01*
%TO.N,Net-(D4-A)*%
X115735000Y-88395000D02*
X121352500Y-88395000D01*
X121352500Y-88395000D02*
X122720000Y-89762500D01*
%TO.N,Row 1*%
X122720000Y-97382500D02*
X160820000Y-97382500D01*
X154810686Y-60706250D02*
X122046250Y-60706250D01*
X122046250Y-60706250D02*
X120656250Y-59316250D01*
X160820000Y-97382500D02*
X162320000Y-95882500D01*
X162320000Y-95882500D02*
X162320000Y-68215564D01*
X120656250Y-59316250D02*
X120656250Y-57756250D01*
X162320000Y-68215564D02*
X154810686Y-60706250D01*
%TO.N,Net-(D5-A)*%
X140402500Y-88395000D02*
X141770000Y-89762500D01*
X134785000Y-88395000D02*
X140402500Y-88395000D01*
%TO.N,Net-(D6-A)*%
X153835000Y-88395000D02*
X159452500Y-88395000D01*
X159452500Y-88395000D02*
X160820000Y-89762500D01*
%TO.N,Row 2*%
X162720000Y-114532500D02*
X162720000Y-67368750D01*
X122720000Y-116432500D02*
X160820000Y-116432500D01*
X153676250Y-58325000D02*
X123288750Y-58325000D01*
X160820000Y-116432500D02*
X162720000Y-114532500D01*
X162720000Y-67368750D02*
X153676250Y-58325000D01*
X123288750Y-58325000D02*
X123196250Y-58232500D01*
X123196250Y-58232500D02*
X123196250Y-55375000D01*
%TO.N,Net-(D7-A)*%
X115735000Y-107445000D02*
X121352500Y-107445000D01*
X121352500Y-107445000D02*
X122720000Y-108812500D01*
%TO.N,Net-(D8-A)*%
X140402500Y-107445000D02*
X141770000Y-108812500D01*
X134785000Y-107445000D02*
X140402500Y-107445000D01*
%TO.N,Net-(D9-A)*%
X153835000Y-107445000D02*
X159452500Y-107445000D01*
X159452500Y-107445000D02*
X160820000Y-108812500D01*
%TO.N,Column 2*%
X147326250Y-110143750D02*
X146532500Y-110143750D01*
%TO.N,Encoder_Left_1*%
X106601250Y-47656250D02*
X118017500Y-47656250D01*
X118017500Y-47656250D02*
X125736250Y-55375000D01*
%TO.N,Encoder_Left_3*%
X98201250Y-41556250D02*
X119537500Y-41556250D01*
X119537500Y-41556250D02*
X133356250Y-55375000D01*
X92101250Y-47656250D02*
X98201250Y-41556250D01*
%TO.N,Encoder_Left_2*%
X118097500Y-42656250D02*
X130816250Y-55375000D01*
X106601250Y-42656250D02*
X118097500Y-42656250D01*
%TO.N,Encoder_Right_1*%
X146532500Y-33943750D02*
X146056250Y-34420000D01*
X163178750Y-42506250D02*
X163178750Y-33966250D01*
X146056250Y-34420000D02*
X146056250Y-37595000D01*
X163178750Y-33966250D02*
X163201250Y-33943750D01*
X163201250Y-33943750D02*
X146532500Y-33943750D01*
%TO.N,Encoder_Right_2*%
X160820000Y-34343750D02*
X150287500Y-34343750D01*
X150287500Y-34343750D02*
X148596250Y-36035000D01*
X163178750Y-46797500D02*
X161476250Y-45095000D01*
X161476250Y-45095000D02*
X161476250Y-35000000D01*
X148596250Y-36035000D02*
X148596250Y-37595000D01*
X163178750Y-47506250D02*
X163178750Y-46797500D01*
X161476250Y-35000000D02*
X160820000Y-34343750D01*
%TO.N,GND*%
X172874416Y-50612500D02*
X172632500Y-50612500D01*
%TD*%
M02*
